<?xml version="1.0" encoding="UTF-8"?><svg id="Layer_1" xmlns="http://www.w3.org/2000/svg" width="5in" height="2.545in" viewBox="0 0 360 183.258"><defs><style>.cls-1{fill:none;stroke-linecap:round;stroke-linejoin:round;stroke-width:4.365px;}.cls-1,.cls-2{stroke:#18212c;}.cls-2{fill:#f4f1e4;stroke-miterlimit:10;stroke-width:6px;}.cls-3{fill:#18212c;}</style></defs><path class="cls-2" d="M89.066,62.987l81.847-31.16c3.67-1.397,7.839-1.43,11.537-.09l86.846,31.457c4.15,1.503,7.277,4.576,8.485,8.337l7.356,22.895c1.857,5.779-1.178,11.9-7.288,14.699l-91.483,41.907c-4.312,1.975-9.471,1.961-13.769-.037l-90.527-42.091c-5.815-2.704-8.839-8.446-7.39-14.035l5.961-23.008c1.024-3.953,4.152-7.248,8.425-8.875Z"/><path class="cls-3" d="M115.778,69.16c-1.784.447-3.565.913-5.342,1.398-.591,5.631-.956,11.859-1.166,17.379-.732.218-1.464.439-2.194.664.184-5.529.494-11.761,1.01-17.39-1.773.501-3.543,1.022-5.308,1.561.047-.677.096-1.353.146-2.03,4.343-1.313,8.712-2.514,13.101-3.601-.084.673-.166,1.346-.247,2.02Z"/><path class="cls-3" d="M123.689,77.108c-.703,2.786-1.8,5.477-5.567,6.433-2.368.606-4.417-.285-5.024-2.479-.828-2.981.543-6.359,3.615-7.133,1.903-.478,3.184.62,3.482,1.874.627,2.669-2.146,4.759-4.929,4.894.415.982,1.328,1.441,2.88,1.046,2.342-.593,3.596-2.384,4.535-5.681.337.348.673.696,1.008,1.045ZM114.991,79.364c1.789-.16,3.554-1.517,3.222-2.98-.116-.575-.591-.917-1.229-.756-1.375.347-2.137,2.028-1.993,3.736Z"/><path class="cls-3" d="M132.47,75.276c-.798,2.759-1.986,5.409-5.776,6.232-2.145.469-4.074-.47-4.621-2.775-.731-3.056.905-6.314,3.722-6.916,2.441-.519,3.886,1.45,3.542,3.67-.717.146-1.434.294-2.15.446.213-1.531-.371-2.488-1.284-2.292-1.36.292-2.151,2.515-1.728,4.367.317,1.396,1.333,1.982,2.582,1.71,2.381-.515,3.669-2.255,4.72-5.517.333.358.664.716.994,1.075Z"/><path class="cls-3" d="M135.972,77.612c-.324-1.779,1.213-4.118,1.014-5.319-.075-.439-.32-.683-.841-.593-2.246.388-3.454,5.251-3.68,8.378-.704.137-1.407.276-2.11.419.516-3.889,1.624-10.983,2.494-15.405.738-.134,1.476-.265,2.214-.392-.595,2.626-1.061,5.235-1.521,7.871.72-1.635,1.961-2.643,3.285-2.867,1.225-.207,2.173.426,2.358,1.584.282,1.639-1.319,4.304-1.116,5.461.063.37.316.541.68.481,1.04-.174,2.287-2.298,3.249-4.814.299.366.598.733.895,1.1-.652,2.11-2.323,5.353-4.478,5.72-1.345.228-2.234-.444-2.445-1.622Z"/><path class="cls-3" d="M146.34,75.987c-.249-1.791,1.355-4.061,1.206-5.269-.056-.442-.267-.699-.789-.631-2.281.298-3.662,5.102-4.016,8.217-.708.107-1.415.217-2.122.33.551-3.2,1.164-6.403,1.846-9.584.709-.104,1.418-.205,2.128-.304-.158.701-.314,1.401-.468,2.102.785-1.604,2.065-2.559,3.395-2.727,1.205-.153,2.126.519,2.288,1.68.214,1.649-1.517,4.248-1.363,5.413.047.372.293.554.658.508,1.045-.131,2.376-2.201,3.465-4.678.284.378.566.757.847,1.136-.738,2.081-2.563,5.255-4.703,5.529-1.352.172-2.21-.537-2.372-1.722Z"/><path class="cls-3" d="M158.901,71.66c-.782,2.065-2.65,5.197-4.77,5.421-3.667.401-2.356-4.464-.959-9.379.745-.078,1.49-.153,2.236-.225-1.21,4.075-2.377,7.786-.916,7.633,1.023-.106,2.48-2.061,3.587-4.604.275.384.549.769.822,1.154ZM153.495,65.168c-.099-.956.68-1.909,1.601-1.997.665-.064,1.217.334,1.274.964.082.911-.72,1.903-1.628,1.992-.707.07-1.182-.329-1.247-.959Z"/><path class="cls-3" d="M169.766,70.978c-.995,2.342-2.476,4.168-4.588,5.447,2.782,1.371,2.468,5.7-.689,5.894-2.73.184-3.49-2.359-2.049-7.406-.353.566-.992,1.504-2.348,1.613-1.645.134-2.806-1.334-2.981-3.203-.311-3.244,1.709-6.405,4.594-6.611,1.059-.076,2.057.471,2.472,1.08.113-.344.226-.688.34-1.031.739-.045,1.477-.087,2.216-.125-1.09,3.275-1.847,5.905-2.51,8.556,2.08-1.166,3.471-2.69,4.746-5.401.267.395.533.791.797,1.187ZM163.724,69.373c-.308-.521-1.012-.897-1.738-.846-1.857.132-2.898,2.435-2.724,4.468.073.865.578,1.622,1.481,1.551,1.295-.1,2.144-1.852,2.981-5.173ZM163.701,77.271c-.448,1.653-.413,3.459.752,3.382,1.523-.094,1.101-2.938-.752-3.382Z"/><path class="cls-3" d="M180.672,70.76c-.953,1.991-3.079,4.952-5.208,4.996-1.165.023-1.941-.799-1.88-2.091-.704,1.239-1.84,2.188-3.15,2.24-2.67.115-3.354-2.716-.549-9.413.748-.03,1.495-.057,2.243-.08-2.199,5.095-2.491,7.626-1.035,7.568,1.498-.053,2.406-2.264,4.288-7.65.765-.015,1.53-.026,2.296-.034-2.223,5.726-2.776,7.551-1.687,7.529,1.027-.019,2.618-1.842,3.962-4.282.241.406.481.813.72,1.22Z"/><path class="cls-3" d="M188.131,73.412c-1.07,1.187-2.994,2.331-5.226,2.309-2.426-.025-4.161-1.414-4.181-3.69-.032-3.094,2.145-6.003,5.289-5.96,1.947.029,2.895,1.419,2.86,2.707-.08,2.647-3.278,4.022-5.979,3.436.147,1.08.879,1.758,2.493,1.776,1.393.016,2.959-1.122,3.8-1.991.316.47.631.94.944,1.411ZM180.971,70.877c1.755.26,3.798-.644,3.852-2.049.036-.586-.333-1.038-.984-1.047-1.407-.019-2.568,1.409-2.867,3.096Z"/><path class="cls-3" d="M212.432,61.245c-2.17,5.857-4.043,11.784-5.792,17.73-.793-.084-1.586-.164-2.38-.241,1.487-4.852,3.13-9.682,4.947-14.485-3.164,3.947-6.075,7.938-8.845,12.046-.769-.061-1.538-.119-2.307-.174.375-4.276.848-8.498,1.44-12.758-2.656,4.769-5.084,9.631-7.249,14.505-.78-.037-1.559-.071-2.339-.101,2.694-6.022,5.761-11.946,9.133-17.8,1.008.071,2.016.147,3.023.229-.692,4.344-1.286,8.673-1.703,13.016,2.776-4.18,5.8-8.282,9.005-12.32,1.023.112,2.045.229,3.066.353Z"/><path class="cls-3" d="M223.577,74.435c-1.276,1.802-3.875,4.365-5.987,4.05-1.228-.184-1.612-1.112-1.611-1.824-.613.648-1.526,1.37-2.998,1.176-1.687-.221-2.584-1.742-2.35-3.722.361-3.121,2.992-5.955,5.863-5.553,1.053.147,1.966.899,2.217,1.601.184-.32.368-.64.552-.96.717.108,1.434.22,2.15.334-3.218,5.499-3.938,6.989-2.98,7.131,1.019.154,2.922-1.373,4.636-3.556.171.441.34.882.508,1.324ZM217.937,71.613c-.19-.597-.777-1.109-1.523-1.214-1.847-.259-3.354,1.821-3.609,3.845-.107.838.233,1.66,1.132,1.781,1.288.173,2.512-1.358,4-4.411Z"/><path class="cls-3" d="M232.579,76.143c-1.313,1.737-4.059,4.218-6.088,3.84-1.39-.259-1.958-1.382-1.754-2.537.262-1.478,1.442-3.031,2.704-4.729-.515-.12-1.292-.333-1.956-.617-1.421,2.249-3.037,3.923-4.467,5.069-1.246.962-1.952-.24-.663-1.295,1.947-1.565,3.451-4.137,4.488-6.553.65.112,1.3.227,1.95.345-.133.309-.287.592-.416.878,1.155.443,3.247.934,4.22,1.104-1.326,1.722-3.395,4.506-3.61,5.684-.09.484.075.801.486.879.987.185,3.204-1.648,4.645-3.41.155.447.309.894.462,1.341Z"/><path class="cls-3" d="M237.986,77.331c-1.381,1.725-4.128,4.133-6.223,3.697-3.628-.742-.885-4.972,1.955-9.223.736.154,1.472.311,2.207.472-2.406,3.507-4.657,6.684-3.214,6.985,1.011.213,3.003-1.201,4.842-3.282.146.45.29.901.433,1.351ZM234.803,69.492c.198-.941,1.235-1.609,2.143-1.41.656.143,1.062.691.923,1.309-.201.893-1.272,1.59-2.167,1.397-.698-.151-1.03-.676-.899-1.296Z"/><path class="cls-3" d="M240.303,80.894c.422-1.758,2.754-3.283,3.057-4.462.109-.432.006-.748-.509-.877-2.244-.559-5.291,3.408-6.761,6.177-.7-.159-1.401-.315-2.102-.469,1.683-2.777,3.428-5.534,5.23-8.246.7.162,1.4.328,2.1.496-.404.594-.806,1.189-1.207,1.785,1.321-1.205,2.867-1.625,4.175-1.294,1.185.3,1.801,1.263,1.528,2.403-.404,1.613-2.976,3.397-3.258,4.538-.092.364.071.623.43.714,1.027.262,3.033-1.176,4.961-3.081.127.456.254.912.378,1.368-1.454,1.666-4.328,3.949-6.432,3.419-1.329-.335-1.872-1.31-1.59-2.473Z"/><path class="cls-3" d="M254.888,84.498c-1.357.858-3.534,1.447-5.702.829-2.355-.671-3.675-2.473-3.093-4.674.787-2.992,3.673-5.219,6.723-4.337,1.888.548,2.445,2.142,2.071,3.376-.777,2.531-4.258,3.002-6.73,1.717-.143,1.08.39,1.93,1.957,2.378,1.352.387,3.179-.292,4.228-.904.184.538.366,1.076.547,1.614ZM248.584,80.141c1.639.718,3.867.393,4.291-.948.189-.555-.05-1.09-.682-1.273-1.365-.394-2.872.673-3.609,2.221Z"/><path class="cls-3" d="M111.366,99.285l-4.702.943c-.652.128-1.187.559-1.478,1.152-.663,1.397-1.944,2.479-3.573,2.793-1.664.337-3.305-.186-4.446-1.269-.209-.186-.105-.535.163-.594l2.642-.524c.244-.047.442-.221.524-.454l.629-1.851c.07-.233.023-.5-.14-.687l-1.292-1.466c-.163-.186-.407-.268-.652-.221l-2.642.524c-.268.058-.489-.221-.384-.477.652-1.443,1.967-2.549,3.62-2.886,1.629-.314,3.236.175,4.376,1.21.5.454,1.164.64,1.816.512l4.493-.896c-.058.722-.012,1.443.151,2.141.175.745.477,1.443.896,2.048Z"/><path class="cls-1" d="M106.929,97.951c50.245-10.451,99.224-10.194,147.028,0"/><path class="cls-3" d="M259.978,93.984c-1.644-.338-3.263.164-4.415,1.211-.488.443-1.157.63-1.803.502l-4.322-.859c.192.856.186,1.779-.076,2.733-.146.533-.383,1.043-.69,1.515l4.246.844c.65.129,1.194.563,1.478,1.161.661,1.394,1.95,2.469,3.58,2.793,2.735.544,5.394-1.233,5.937-3.968.543-2.731-1.208-5.371-3.936-5.931ZM261.341,99.756l-1.25,1.426c-.163.186-.413.271-.656.223l-1.86-.37c-.243-.048-.441-.222-.521-.456l-.61-1.795c-.079-.234-.028-.493.135-.679l1.25-1.426c.163-.186.413-.271.656-.223l1.86.37c.243.048.441.222.521.456l.61,1.795c.079.234.028.493-.135.679Z"/><path class="cls-3" d="M132.315,108.739l-.123-.062-.056-.117-.006-.136-.012-.067v-.124l.012-.11-.006-.124-.006-.135.006-.117-.013-.16v-.167l.006-.086-.012-.167.006-.209v-.099l-.012-.173v-.234l.006-.08.006-.173v-.24l-.006-.246v-.37l.006-.08v-.314l-.006-.142-.012-.123v-.105l.012-.049.043-.068.049-.037.117-.018.124-.013h.043l.092-.006.111.019.049.031.043.043.043.093.068.104.074.136.068.148.111.191.08.148.074.16.117.234.074.123.068.154.068.117.031.062.031.056.037.073.062.148.086.154.062.123.037.08.031.062.043.074.068.129.068.143.062.092.056.105.031.08.037.019.031-.019.043-.062.043-.067.043-.08.074-.154.068-.136.037-.08.049-.074.037-.043.019-.049.019-.056.062-.093.043-.092.037-.056.056-.104.062-.13.055-.117.056-.123.056-.111.062-.093.068-.147.08-.148.074-.166.093-.185.055-.117.019-.068.049-.086.025-.074.062-.123.092-.148.074-.049.074-.025.277-.024.111.012.099.037.037.055.012.043.012.099v.623l-.006.129.006.142v.555l.006.154v.087l-.006.129.019.185-.006.148.012.191v.468l-.006.154v.099l-.006.08.006.136.006.123-.006.16.006.186-.012.136-.031.11-.037.044-.062.036-.049.019-.074.019-.105-.006h-.08l-.062-.013-.062-.019-.074-.036-.08-.173-.019-.191.006-.129v-.204l-.006-.259v-.512l-.019-.203.012-.136v-.099l.006-.136v-.117l-.006-.067v-.16l-.006-.019-.019-.013-.013.013-.031.043-.018.056-.043.073-.031.062-.037.062-.043.086-.056.123-.062.136-.068.099-.062.105-.056.11-.043.093-.068.123-.092.173-.043.104-.043.117-.08.148-.031.073-.031.044-.025.055-.031.05-.025.049-.068.13-.055.117-.012.037-.056.08-.111.08-.08.012-.074.007-.086.006-.086-.006-.068-.031-.068-.093-.074-.153-.049-.093-.049-.111-.067-.147-.062-.111-.037-.086-.025-.056-.031-.062-.129-.216-.031-.043-.062-.136-.062-.13-.031-.062-.068-.104-.074-.173-.062-.123-.043-.099-.074-.123-.074-.16-.074-.136-.043-.05-.019.019v.093l-.006.142v.104l.006.05v.08l-.006.093.012.179v.123l-.006.234-.006.099v.265l.006.148-.006.104.012.111v.086l.012.136v.11l-.019.173-.019.068-.062.08-.203.056h-.136l-.105-.031Z"/><path class="cls-3" d="M140.002,108.825h-.105l-.092-.006-.124-.019h-.154l-.111-.03-.062-.013-.08-.019-.111-.043-.148-.056-.124-.067-.062-.031-.068-.043-.08-.043-.055-.044-.062-.036-.086-.08-.104-.093-.068-.068-.222-.265-.086-.166-.074-.136-.08-.143-.037-.135-.031-.081-.031-.147-.024-.123-.006-.074-.019-.104-.006-.087.006-.104v-.179l.019-.117.012-.111.049-.153.019-.099.049-.143.062-.16.056-.086.062-.136.117-.185.105-.142.062-.056.043-.055.062-.068.062-.062.049-.024.068-.068.167-.092.148-.074.172-.08.129-.037.08-.037.167-.056.154-.025.099-.018.148.006.216-.006.148.012h.068l.111.019.123.031.081.019.055.024.092.031.086.031.086.043.099.056.129.067.173.111.129.104.129.124.154.185.099.117.043.062.037.074.043.062.056.11.062.143.037.123.031.099.012.056.025.08.031.153.012.099v.087l.006.099-.012.104-.012.16-.012.099-.006.099-.019.124-.019.073-.024.105-.056.147-.049.136-.055.117-.043.074-.031.062-.049.062-.043.056-.037.055-.025.044-.037.043-.068.067-.08.062-.056.056-.043.037-.056.043-.049.043-.062.037-.043.037-.074.05-.124.067-.135.08-.105.043-.068.025-.129.043-.154.043-.129.019h-.179l-.142-.013ZM140.211,108.11l.08-.006.037-.006.031-.019.025-.013.08-.013.08-.037.074-.024.117-.062.124-.08.16-.117.092-.099.031-.037.05-.074.092-.117.123-.185.037-.136.025-.117.019-.136.012-.166.012-.086-.012-.161-.043-.222-.043-.142-.062-.129-.031-.105-.037-.067-.049-.099-.074-.093-.043-.056-.068-.067-.209-.167-.197-.117-.117-.049-.129-.037-.049-.012-.08-.025-.105-.024h-.339l-.093.019-.111.012-.142.043-.204.086-.345.197-.062.067-.049.062-.037.03-.074.104-.056.105-.031.043-.025.067-.043.081-.037.098-.031.1-.012.086-.031.136-.012.154.006.073.006.087.012.099v.092l.006.031.018.067.025.111.019.093.074.136.148.222.117.147.043.05.099.086.123.08.043.025.025.012.111.062.129.062.105.031.173.031.172.024.148.006.179-.019Z"/><path class="cls-3" d="M144.767,108.757l-.154-.006-.117.006-.08-.006-.099-.007-.259.007-.068.006-.136-.006-.216.012-.136-.019-.062-.012-.055-.037-.068-.105-.019-.179-.006-.197.012-.209v-.142l-.012-.167-.012-.209v-.42l.006-.203-.006-.136-.006-.185v-.179l.006-.117-.006-.173v-.104l-.006-.197.006-.148v-.08l.006-.117v-.16l.012-.129v-.259l-.006-.136.012-.092.037-.117.104-.093.136-.031.129.006.086.006.247-.006h.154l.148.006.074-.006h.234l.074.012.105.006.191-.006.099-.012h.407l.283.031.16.043.081.025.277.136.074.062.068.068.062.068.068.117.086.191.062.191.019.099v.24l-.006.093-.049.185-.062.179-.068.105-.092.123-.049.093.024.037.105.067.086.093.086.136.068.16.067.185.031.13.024.117.006.11-.006.167-.049.185-.025.104-.049.111-.062.136-.074.074-.062.099-.124.104-.167.093-.129.055-.092.025-.161.049-.16.024-.08.019-.092.007-.062.006-.104.013-.111-.007-.161.007h-.16l-.24-.013ZM144.945,106.156l.265.006h.099l.123-.012.209-.031.111-.043.117-.093.062-.08.055-.092.019-.13v-.154l-.031-.099-.031-.08-.056-.074-.135-.08-.148-.056h-.105l-.074-.006-.314.006-.241-.006h-.154l-.117-.012-.173-.006-.197.013-.111.019-.049.019-.024.049v.099l-.006.093-.025.123.006.148v.153l.019.111v.086l.019.056.024.037.056.019.049.006.123.007h.136l.129.006.191.006.179-.006ZM145.179,108.054l.148-.006.16-.019h.104l.117-.013.105-.006.099-.03.062-.037.08-.074.062-.099.024-.05.031-.067.012-.104.013-.124-.013-.099-.031-.099-.055-.116-.062-.074-.049-.043-.049-.031-.031-.019-.068-.024-.185-.031-.228-.006-.167-.006-.074.006h-.277l-.08-.006-.092.006h-.124l-.456.006-.086.025-.024.062.006.104.012.093v.117l-.012.185-.012.234v.136l.024.166.049.024.031.013.129.006h.228l.191.007.148-.007.16.013.179-.013Z"/><path class="cls-3" d="M148.275,108.733l-.117-.031-.086-.086-.025-.087.006-.142v-.246l.006-.148-.013-.099.006-.142-.012-.154.006-.08.006-.067-.019-.105v-.19l.012-.148-.012-.123.019-.111-.006-.073v-.111l-.018-.111.006-.073v-.099l-.019-.173-.006-.105.019-.185v-.179l.006-.166-.006-.124v-.591l-.006-.124.024-.099.031-.055.037-.037.081-.056.117-.012h.111l.129.006.099.031.049.055.049.081.006.111.006.154v.105l-.006.068.013.104-.006.154v.148l.012.104-.006.154-.006.19v.124l.006.086v.154l.006.136-.006.166.006.29-.012.173v.08l.006.055v.346l.006.099v.32l.013.068v.289l-.006.142-.031.173-.031.068-.031.037-.043.019-.111.043h-.129l-.049.006-.08-.006Z"/><path class="cls-3" d="M150.312,108.72l-.08-.043-.043-.087-.031-.11-.006-.13.006-.136-.006-.123.012-.093-.006-.16v-.277l.006-.136-.006-.147-.013-.068-.006-.135v-.383l.006-.172v-.117l.013-.136.006-.136.012-.16-.012-.16.012-.13v-.283l-.012-.087v-.179l-.006-.154v-.339l.024-.099.019-.043.031-.043.043-.025.074-.019.08-.006.08.012h.117l.099-.006.068.025.037.037.031.055.012.043.006.099.006.123v.092l.013.136v.099l-.013.124-.006.104v.389l.006.136.013.117.006.11.006.186.006.135-.006.044.006.067.006.117-.006.117v.056l-.006.056.006.043-.013.123v.111l-.006.209-.019.136v.142l.006.105.019.147v.05l.006.055.037.05.031.013h.271l.136.006.056-.006.062.006.099.006.123.007h.129l.099-.019.117-.007h.111l.092.007h.124l.074.012h.111l.148-.019h.148l.093.007h.086l.08.019.068.043.068.08.013.043v.277l-.013.062-.019.043-.049.044-.104.055-.086.013-.105-.006h-.32l-.105.019-.08-.007h-.352l-.092-.006-.364.013h-1.189l-.093-.031Z"/><path class="cls-3" d="M156.7,108.751l-.043-.007-.055.007-.142-.013-.123.006-.08-.006-.173.006h-.129l-.117-.006h-.099l-.086.013-.099-.007-.031.007-.135-.013h-.185l-.204-.006-.222.006h-.197l-.099-.006-.099-.056-.074-.123-.012-.148v-.438l-.006-.191.006-.142v-.191l-.006-.117-.006-.129-.006-.062v-.087l.006-.092v-.148l-.006-.019.006-.056-.006-.073v-.056l-.006-.148.006-.259.006-.173v-.104l-.006-.179v-.4l-.012-.105.006-.08v-.074l.006-.117v-.068l.006-.117.006-.167.025-.08.043-.068.068-.043.049-.024.068-.012h.179l.259.012h.407l.172-.006.129-.006.191-.006h.4l.136.019h.136l.099-.012.172.006.099.006.247-.012.068.006.092-.006.099.012.093.037.049.074.037.124.013.129-.006.08-.037.111-.068.086-.067.025-.142.012-.222.006-.129.006-.056-.006-.197.013h-.29l-.234-.006-.142-.006h-.062l-.123.013-.327.006h-.111l-.135.006h-.117l-.111.031-.018.099-.006.105-.012.043v.104l-.006.142.012.154-.006.16.031.143.074.043h.049l.136.019.16-.013h.105l.129.013.136-.013.468-.006h.339l.092.006.105.031.074.073.025.068.012.062.006.049.012.143-.019.129-.043.074-.124.062h-.327l-.357.019-.197-.006h-.068l-.253-.007-.074.007-.111-.007-.148.007-.074.012-.08.025-.043.037-.006.086-.006.093-.012.104v.136l.006.092v.117l-.006.099v.167l.056.16.172.074h.432l.172-.007.173.007.352-.007.129-.012h.37l.074.012h.117l.191.007.154.012h.081l.049.013.055.037.037.056.019.11-.006.13v.074l-.012.067-.025.074-.037.049-.043.025-.062.018-.308.031-.16.019h-.173l-.123-.006Z"/><path class="cls-3" d="M160.706,108.739l-.123-.062-.056-.117-.006-.136-.012-.067v-.124l.012-.11-.006-.124-.006-.135.006-.117-.012-.16v-.167l.006-.086-.012-.167.006-.209v-.099l-.013-.173v-.234l.006-.08.006-.173v-.24l-.006-.246v-.37l.006-.08v-.314l-.006-.142-.012-.123v-.105l.012-.049.043-.068.049-.037.117-.018.124-.013h.043l.092-.006.111.019.049.031.043.043.043.093.068.104.074.136.068.148.111.191.08.148.074.16.117.234.074.123.068.154.068.117.031.062.031.056.037.073.062.148.086.154.062.123.037.08.031.062.043.074.068.129.068.143.062.092.056.105.031.08.037.019.031-.019.043-.062.043-.067.043-.08.074-.154.068-.136.037-.08.049-.074.037-.043.019-.049.018-.056.062-.093.043-.092.037-.056.055-.104.062-.13.055-.117.056-.123.056-.111.062-.093.068-.147.08-.148.074-.166.093-.185.055-.117.019-.068.049-.086.025-.074.062-.123.092-.148.074-.049.074-.025.278-.024.111.012.099.037.037.055.013.043.012.099v.623l-.006.129.006.142v.555l.006.154v.087l-.006.129.019.185-.006.148.013.191v.468l-.006.154v.099l-.006.08.006.136.006.123-.006.16.006.186-.013.136-.031.11-.037.044-.062.036-.049.019-.074.019-.105-.006h-.08l-.062-.013-.062-.019-.074-.036-.08-.173-.019-.191.006-.129v-.204l-.006-.259v-.512l-.019-.203.012-.136v-.099l.006-.136v-.117l-.006-.067v-.16l-.006-.019-.019-.013-.012.013-.031.043-.019.056-.043.073-.031.062-.037.062-.043.086-.056.123-.062.136-.068.099-.062.105-.056.11-.043.093-.068.123-.092.173-.043.104-.043.117-.08.148-.031.073-.031.044-.024.055-.031.05-.025.049-.067.13-.056.117-.012.037-.056.08-.111.08-.08.012-.074.007-.086.006-.086-.006-.068-.031-.068-.093-.074-.153-.049-.093-.049-.111-.068-.147-.062-.111-.037-.086-.024-.056-.031-.062-.129-.216-.031-.043-.062-.136-.062-.13-.031-.062-.068-.104-.074-.173-.062-.123-.043-.099-.074-.123-.074-.16-.074-.136-.043-.05-.019.019v.093l-.006.142v.104l.006.05v.08l-.006.093.012.179v.123l-.006.234-.006.099v.265l.006.148-.006.104.012.111v.086l.012.136v.11l-.019.173-.019.068-.062.08-.204.056h-.135l-.105-.031Z"/><path class="cls-3" d="M166.388,108.813l-.08-.019-.111-.056-.086-.067-.062-.074-.024-.074v-.111l.055-.11.037-.093.031-.067.037-.074.056-.13.037-.099.117-.234.062-.135.055-.143.099-.19.062-.142.043-.087.043-.093.049-.104.086-.222.074-.13.05-.136.086-.185.099-.228.056-.124.092-.234.068-.142.031-.092.056-.105.043-.086.012-.049.025-.062.031-.086.043-.062.037-.074.037-.068.024-.049.043-.074.074-.062.154-.031h.167l.08.019.068.062.043.081.037.074.062.142.062.136.117.228.037.099.043.08.037.111.049.11.031.087.043.086.068.154.067.136.043.111.043.073.025.068.043.092.056.099.037.099.037.105.037.062.031.08.062.111.049.123.081.19.111.21.062.148.043.092.025.056.024.08.074.148.056.117.031.049.055.117.043.13.031.104-.025.136-.068.08-.123.062-.216.056-.142-.031-.056-.049-.062-.062-.019-.081-.056-.116-.068-.143-.037-.067-.056-.123-.068-.143-.024-.055-.043-.074-.055-.099-.043-.08-.062-.043-.123-.013-.154.006h-.721l-.204-.006-.16.013-.086-.007-.105.013-.099.006-.08.044-.037.055-.124.247-.062.11-.019.068-.031.062-.037.086-.049.105-.031.092-.062.099-.074.111-.068.056-.099.024-.104-.006ZM168.577,106.939l.006-.007.019-.006.025-.056-.019-.11-.037-.093-.136-.24-.062-.117-.08-.197-.049-.117-.043-.111-.068-.16-.074-.062-.049.099-.049.154-.105.234-.08.166-.055.154-.049.111-.062.123-.006.049-.012.056v.062l.043.044.105.006h.111l.172.012.413.013.142-.006Z"/><path class="cls-3" d="M174.23,108.788l-.062-.03-.05-.043-.067-.074-.074-.104-.05-.062-.049-.068-.05-.074-.055-.08-.037-.062-.05-.062-.067-.099-.099-.111-.068-.086-.056-.08-.08-.099-.092-.111-.074-.104-.099-.117-.062-.086-.037-.05-.043-.03-.062-.043-.062-.031-.068-.013-.08-.012-.056.006-.382-.013-.148.013-.124.043-.031.099-.012.167-.012.142-.006.074-.006.16v.123l.006.173-.006.049v.117l-.006.104v.13l-.012.086-.013.099-.031.062-.031.036-.037.019-.062.019h-.074l-.111.013-.135-.013-.068-.012-.062-.025-.055-.099-.031-.086v-.148l-.006-.147-.006-.062.019-.24v-.148l-.006-.123-.013-.099v-.419l.006-.117.006-.074-.006-.049v-.284l.006-.117v-.24l-.006-.13v-.086l.012-.062-.012-.074v-.123l-.006-.043.006-.037.006-.062v-.111l-.006-.024.012-.093v-.296l-.012-.062.012-.062-.019-.117v-.111l.006-.124.025-.104.037-.056.037-.031.068-.037.179-.024.271.012.215-.006.142-.006h.099l.068.006.104-.006.142-.006.314.006h.08l.117-.006h.283l.142.006.333.031.074.019.111.037.142.062.154.092.086.086.049.055.093.099.056.105.03.099.044.105.03.086.025.049.012.056.013.049-.007.074.007.08.006.148.006.191-.006.092-.013.05-.018.067-.025.068-.043.123-.062.142-.037.056-.037.062-.067.074-.062.056-.062.067-.105.067-.074.037-.104.074-.129.056-.037.037.006.03.006.025.037.062.068.11.086.105.062.073.031.056.049.056.186.265.067.087.074.099.062.074.049.08.068.086.043.111-.013.043-.024.08-.074.123-.086.056-.104.074-.136.055-.062-.019ZM173.397,106.359l.056-.006.068-.006.049-.007.062.007.056-.024.043-.019.056-.019.037-.031.043-.043.037-.05.05-.129.024-.13.012-.056.007-.092.012-.074-.012-.093-.031-.11-.03-.099-.074-.117-.104-.068-.087-.025-.117-.037-.117-.006-.092-.006-.056-.006h-.056l-.068-.006-.074.012h-.413l-.086-.006h-.099l-.111.006-.093-.019h-.191l-.148.019-.037.012-.019.043-.006.08-.006.161v.197l-.006.142.006.197-.006.185.018.111.093.056.08.019.08.006.111-.013.068.013.136.006h.129l.037.006.136-.006h.167l.259.024h.209Z"/><path class="cls-3" d="M176.16,108.733l-.117-.031-.087-.086-.024-.087.007-.142v-.246l.006-.148-.013-.099.007-.142-.013-.154.006-.08.007-.067-.019-.105v-.19l.012-.148-.012-.123.019-.111-.007-.073v-.111l-.019-.111.007-.073v-.099l-.019-.173-.007-.105.019-.185v-.179l.007-.166-.007-.124v-.591l-.006-.124.024-.099.031-.055.037-.037.08-.056.117-.012h.11l.13.006.099.031.049.055.05.081.006.111.007.154v.105l-.007.068.013.104-.006.154v.148l.012.104-.006.154-.006.19v.124l.006.086v.154l.006.136-.006.166.006.29-.012.173v.08l.006.055v.346l.006.099v.32l.013.068v.289l-.007.142-.03.173-.031.068-.03.037-.043.019-.111.043h-.13l-.049.006-.08-.006Z"/><path class="cls-3" d="M181.39,108.739l-.197.006-.13-.024-.08-.056-.086-.11-.104-.143-.247-.351-.117-.154-.062-.087-.136-.203-.147-.21-.111-.142-.093-.104-.062-.093-.056-.056-.129-.185-.08-.099-.056-.056-.043-.08-.074-.08-.142-.19-.117-.173-.074-.099-.08-.087-.049-.067-.037-.037-.062-.024-.056.03-.006.117.006.143v.123l-.006.129.012.191v.253l.006.253.007.153.019.117-.007.191v.259l-.012.173v.093l-.007.129.007.099-.007.08v.111l-.012.099-.043.08-.062.043-.056.019-.099.019h-.08l-.044.006-.129-.006-.13-.086-.049-.093-.019-.099.006-.111.013-.117-.006-.117v-.08l-.007-.11v-.117l.013-.087-.006-.16-.013-.117-.019-.117.006-.185v-.104l-.006-.105.006-.11v-.068l.013-.172v-.186l-.013-.092v-.056l.013-.099-.013-.111v-.043l.013-.111-.006-.153.006-.136-.013-.105.007-.062-.007-.08-.006-.123-.006-.111v-.166l.006-.117.006-.074v-.062l.013-.099.013-.08.03-.025.111-.062.092-.006.117-.006.136.012.13.025.08.055.099.124.062.092.104.148.087.136.08.099.08.123.086.111.037.049.062.111.068.086.104.117.08.111.067.074.124.147.147.197.093.148.147.197.062.067.05.074.08.117.111.129.11.173.062.074.044.056.062.049h.067l.019-.03.013-.136.006-.13v-.616l.013-.173v-.11l-.007-.117v-.111l.013-.086v-.413l-.013-.062.007-.099-.007-.124v-.099l-.006-.092v-.172l.006-.117.031-.111.049-.037.068-.037.056-.012.08-.006.067-.019h.179l.074.037.056.062.043.099.013.161-.013.142-.006.068.012.117-.006.092.006.086-.006.092.006.062v.24l.007.179v.321l.019.092v.056l-.013.08.013.13-.007.067.007.056-.019.068v.727l-.007.173.007.093v.696l.019.104-.013.148-.067.062-.05.019-.062.013-.136-.013Z"/><path class="cls-3" d="M185.472,108.751l-.043-.007-.056.007-.142-.013-.124.006-.08-.006-.172.006h-.13l-.117-.006h-.099l-.086.013-.099-.007-.031.007-.136-.013h-.185l-.203-.006-.223.006h-.197l-.099-.006-.099-.056-.073-.123-.013-.148v-.438l-.006-.191.006-.142v-.191l-.006-.117-.007-.129-.006-.062v-.087l.006-.092v-.148l-.006-.019.006-.056-.006-.073v-.056l-.006-.148.006-.259.006-.173v-.104l-.006-.179v-.4l-.013-.105.007-.08v-.074l.006-.117v-.068l.006-.117.007-.167.024-.08.043-.068.068-.043.049-.024.067-.012h.179l.26.012h.406l.173-.006.13-.006.19-.006h.401l.135.019h.136l.099-.012.173.006.099.006.247-.012.067.006.093-.006.099.012.092.037.05.074.037.124.012.129-.006.08-.037.111-.067.086-.068.025-.142.012-.222.006-.13.006-.056-.006-.197.013h-.289l-.234-.006-.142-.006h-.062l-.124.013-.326.006h-.111l-.136.006h-.117l-.11.031-.019.099-.006.105-.013.043v.104l-.006.142.012.154-.006.16.03.143.074.043h.05l.136.019.16-.013h.104l.13.013.135-.013.469-.006h.339l.093.006.104.031.074.073.024.068.013.062.006.049.013.143-.019.129-.043.074-.123.062h-.327l-.357.019-.197-.006h-.068l-.252-.007-.074.007-.111-.007-.147.007-.074.012-.08.025-.043.037-.007.086-.006.093-.012.104v.136l.006.092v.117l-.006.099v.167l.055.16.173.074h.432l.173-.007.172.007.352-.007.13-.012h.37l.073.012h.117l.191.007.154.012h.08l.049.013.056.037.037.056.019.11-.006.13v.074l-.013.067-.024.074-.037.049-.043.025-.062.018-.309.031-.16.019h-.173l-.123-.006Z"/><path class="cls-3" d="M190.783,108.825l-.08-.012-.104-.019-.167-.024-.185-.062-.123-.043-.234-.099-.166-.092-.074-.056-.104-.074-.173-.154-.136-.117-.074-.117-.056-.104v-.123l.056-.105.068-.086.104-.056.062-.019.062-.024h.08l.08.019.062.037.148.136.024.043.024.024.179.142.074.056.068.031.123.067.136.05.099.049.086.024.062.013h.05l.049-.006.056.012.037-.006.093.006.147.007.093-.025h.093l.073-.012.08-.006.068-.019.049-.025.08-.024.105-.062.136-.111.086-.104.019-.049.037-.093.012-.117-.019-.154-.104-.166-.123-.074-.068-.031-.092-.03-.087-.025-.092-.012-.093-.024-.086-.013-.081-.019-.086-.006-.129-.024-.13-.013-.067-.019-.13-.013-.247-.043-.086-.019-.074-.024-.123-.031-.123-.043-.086-.037-.1-.037-.135-.067-.099-.062-.025-.013-.067-.056-.08-.073-.043-.037-.037-.05-.05-.073-.03-.056-.062-.099-.062-.24v-.18l.012-.104.019-.142.024-.093.025-.062.03-.062.024-.056.044-.067.067-.093.191-.191.062-.031.086-.062.104-.05.081-.062.067-.037.056-.024.056-.006.062-.037.222-.062.117-.018.142-.019.068-.013.08-.006.136-.013.123.006h.056l.043.006.216.019.037.012h.049l.062.012.056.012.074.013.16.062.062.037.056.024.08.049.154.068.086.08.136.105.117.123.104.148.056.105-.013.185-.012.037-.025.043-.049.044-.111.067-.117.043-.099-.006-.099-.043-.062-.043-.067-.068-.104-.111-.087-.074-.056-.043-.104-.056-.067-.055-.143-.062-.099-.025-.166-.019-.111-.006-.166.006-.148.012-.123.006-.185.037-.179.08-.074.043-.099.068-.123.111-.037.092-.024.074-.007.111.025.11.036.099.031.044.049.036.087.068.129.049.191.056.117.024.074.019.067.007.08.012.056.013.068.03h.043l.062.007h.123l.074.019.104.019.123.03.062.019.062.007.024.018.16.019.283.074.136.062.13.056.104.08.037.037.086.062.093.104.037.074.037.068.024.043.013.049.037.099.012.087.007.024.012.013.006.086v.228l-.024.143-.024.099-.031.086-.03.062-.013.043-.043.074-.056.08-.049.056-.043.056-.031.03-.043.056-.056.056-.074.05-.104.067-.062.037-.043.024-.062.031-.062.024-.043.019-.086.024-.123.043-.161.037-.147.013-.093.012-.123.007h-.24l-.148-.007Z"/><path class="cls-3" d="M195.975,108.825h-.104l-.093-.006-.123-.019h-.154l-.111-.03-.062-.013-.08-.019-.111-.043-.147-.056-.123-.067-.062-.031-.068-.043-.08-.043-.056-.044-.062-.036-.086-.08-.105-.093-.067-.068-.222-.265-.087-.166-.073-.136-.08-.143-.037-.135-.031-.081-.03-.147-.025-.123-.006-.074-.019-.104-.006-.087.006-.104v-.179l.019-.117.013-.111.049-.153.019-.099.05-.143.062-.16.055-.086.062-.136.117-.185.104-.142.062-.056.043-.055.062-.068.062-.062.05-.024.067-.068.167-.092.147-.074.173-.08.13-.037.08-.037.166-.056.154-.025.099-.018.147.006.216-.006.148.012h.067l.111.019.123.031.08.019.056.024.093.031.086.031.086.043.1.056.129.067.173.111.129.104.13.124.154.185.099.117.043.062.037.074.043.062.056.11.062.143.037.123.03.099.013.056.024.08.031.153.012.099v.087l.007.099-.013.104-.012.16-.013.099-.006.099-.019.124-.019.073-.025.105-.055.147-.05.136-.056.117-.043.074-.03.062-.05.062-.043.056-.037.055-.024.044-.037.043-.068.067-.08.062-.055.056-.044.037-.055.043-.05.043-.062.037-.043.037-.074.05-.123.067-.136.08-.104.043-.068.025-.129.043-.154.043-.13.019h-.179l-.142-.013ZM196.185,108.11l.08-.006.036-.006.031-.019.024-.013.08-.013.08-.037.074-.024.117-.062.123-.08.161-.117.092-.099.031-.037.049-.074.093-.117.123-.185.037-.136.024-.117.019-.136.013-.166.012-.086-.012-.161-.043-.222-.043-.142-.062-.129-.03-.105-.037-.067-.05-.099-.073-.093-.044-.056-.067-.067-.21-.167-.197-.117-.117-.049-.129-.037-.05-.012-.08-.025-.104-.024h-.339l-.093.019-.11.012-.143.043-.203.086-.345.197-.062.067-.049.062-.037.03-.074.104-.055.105-.031.043-.024.067-.044.081-.036.098-.031.1-.013.086-.03.136-.013.154.007.073.006.087.013.099v.092l.006.031.019.067.024.111.019.093.074.136.147.222.117.147.043.05.099.086.124.08.043.025.024.012.111.062.129.062.104.031.173.031.173.024.148.006.179-.019Z"/><path class="cls-3" d="M199.414,108.72l-.08-.043-.043-.087-.031-.11-.006-.13.006-.136-.006-.123.013-.093-.007-.16v-.277l.007-.136-.007-.147-.012-.068-.007-.135v-.383l.007-.172v-.117l.012-.136.007-.136.012-.16-.012-.16.012-.13v-.283l-.012-.087v-.179l-.007-.154v-.339l.025-.099.018-.043.031-.043.043-.025.074-.019.08-.006.08.012h.117l.099-.006.067.025.037.037.031.055.013.043.006.099.006.123v.092l.013.136v.099l-.013.124-.006.104v.389l.006.136.013.117.006.11.006.186.007.135-.007.044.007.067.006.117-.006.117v.056l-.007.056.007.043-.013.123v.111l-.006.209-.019.136v.142l.006.105.019.147v.05l.006.055.037.05.031.013h.271l.135.006.056-.006.062.006.099.006.124.007h.129l.099-.019.117-.007h.111l.093.007h.123l.074.012h.11l.148-.019h.147l.093.007h.086l.08.019.068.043.067.08.013.043v.277l-.013.062-.019.043-.049.044-.105.055-.086.013-.104-.006h-.321l-.104.019-.08-.007h-.352l-.092-.006-.364.013h-1.189l-.093-.031Z"/><path class="cls-3" d="M204.588,108.837l-.074-.019-.08-.019-.08-.013-.105-.024-.135-.049-.093-.043-.062-.019-.093-.062-.086-.043-.068-.055-.08-.068-.043-.062-.074-.074-.08-.099-.043-.08-.031-.062-.019-.056-.024-.092-.043-.13-.03-.117-.007-.067-.019-.05.007-.099v-.21l-.013-.092v-.037l-.006-.068-.007-.11.013-.111.006-.117v-.11l-.012-.099.019-.044-.007-.062v-.166l-.006-.068v-.055l-.013-.08v-.26l.007-.08v-.055l-.007-.087-.006-.08v-.438l-.006-.086.012-.086-.006-.111.006-.111.013-.093.024-.049.062-.043.117-.037h.099l.068-.012.062.012.086.025.074.024.062.049.019.068-.006.068.012.062.007.105v.099l-.013.031.006.062v.167l.013.08v.105l.006.049.007.067-.013.062v.067l-.006.062.006.167v.16l.006.037.007.049-.007.037v.067l-.006.068.013.056-.007.11-.006.117.006.043v.074l-.006.05.013.062-.007.099-.006.104v.142l.013.186.006.142.03.117.031.147.093.142.067.087.05.037.092.062.111.056.08.03.093.031.08.019.08.012.104.007h.05l.153.006.26-.019.104-.031.129-.043.117-.043.056-.049.074-.068.049-.062.025-.019.037-.067.03-.08.013-.056.012-.062.013-.074.013-.08v-.123l.012-.087-.006-.03.013-.044-.007-.067.007-.154v-.147l.012-.124v-.147l-.012-.086v-.074l-.007-.117v-.24l-.006-.074v-.191l-.006-.062-.007-.129v-.105l.013-.172v-.142l-.006-.099v-.099l-.007-.142.013-.129.024-.117.05-.055.055-.025.087-.019.104-.012h.087l.086.012.099.043.093.08.03.129.013.099v.111l.006.099-.006.16v.364l-.007.166-.012.099-.006.104v.099l.006.087-.006.123.006.16v.45l-.006.111v.147l.006.136-.006.147-.007.093-.019.154-.019.123-.019.068-.043.147-.043.117-.056.104-.067.105-.093.153-.104.117-.024.019-.05.031-.062.03-.05.031-.099.043-.129.062-.117.037-.111.019-.073.024-.234.031-.124.024h-.468l-.08-.024Z"/><path class="cls-3" d="M209.354,108.776h-.105l-.062-.013-.086-.049-.031-.037-.037-.037-.024-.117v-.13l.006-.092v-.093l.013-.117-.006-.154.006-.117v-.129l.006-.104-.006-.241v-.431l-.013-.148v-.049l.007-.068v-.326l-.013-.105v-.166l.006-.197v-.13l.007-.049-.013-.062.006-.099v-.081l-.006-.049v-.067l-.013-.105-.03-.074-.024-.019-.13-.006-.147.013-.05.006-.08-.006h-.111l-.395-.013-.129.006-.087-.019-.055-.043-.05-.056-.037-.086-.012-.147.019-.167.055-.105.074-.049.074-.025.086-.006.099-.019h.074l.049.006h.309l.031.006h.357l.08.006h.142l.136.006h.166l.148-.006.117-.006.123.006.148-.006.16.006.592.012.147.012.123.019.136.105.043.148v.08l.007.056-.019.086-.019.049-.024.037-.043.049-.117.037-.191.024-.21-.006-.16.012-.443-.012-.099.024-.037.056-.007.13v.142l.007.117-.007.123v.104l-.012.13-.007.147v.062l.007.074.006.068-.006.043.006.08v.136l-.013.062.013.049-.006.068.006.067-.013.068-.006.092v.087l-.006.099v.086l-.013.062.013.037-.013.093.007.166v.093l.006.056-.013.067.007.056-.007.056v.154l.007.099-.013.08v.055l.019.044.012.062.007.067-.013.074-.024.074-.037.067-.043.019-.056.024-.056.019-.067.031-.123-.019Z"/><path class="cls-3" d="M212.399,108.733l-.117-.031-.087-.086-.024-.087.007-.142v-.246l.006-.148-.013-.099.007-.142-.013-.154.006-.08.007-.067-.019-.105v-.19l.012-.148-.012-.123.019-.111-.007-.073v-.111l-.019-.111.007-.073v-.099l-.019-.173-.007-.105.019-.185v-.179l.007-.166-.007-.124v-.591l-.006-.124.024-.099.031-.055.037-.037.08-.056.117-.012h.11l.13.006.099.031.049.055.05.081.006.111.007.154v.105l-.007.068.013.104-.006.154v.148l.012.104-.006.154-.006.19v.124l.006.086v.154l.006.136-.006.166.006.29-.012.173v.08l.006.055v.346l.006.099v.32l.013.068v.289l-.007.142-.03.173-.031.068-.03.037-.043.019-.111.043h-.13l-.049.006-.08-.006Z"/><path class="cls-3" d="M216.268,108.825h-.104l-.093-.006-.123-.019h-.154l-.111-.03-.062-.013-.08-.019-.111-.043-.147-.056-.123-.067-.062-.031-.068-.043-.08-.043-.056-.044-.062-.036-.086-.08-.105-.093-.067-.068-.222-.265-.087-.166-.073-.136-.08-.143-.037-.135-.031-.081-.03-.147-.025-.123-.006-.074-.019-.104-.006-.087.006-.104v-.179l.019-.117.013-.111.049-.153.019-.099.05-.143.062-.16.055-.086.062-.136.117-.185.104-.142.062-.056.043-.055.062-.068.062-.062.05-.024.067-.068.167-.092.147-.074.173-.08.13-.037.08-.037.166-.056.154-.025.099-.018.147.006.216-.006.148.012h.067l.111.019.123.031.08.019.056.024.093.031.086.031.086.043.1.056.129.067.173.111.129.104.13.124.154.185.099.117.043.062.037.074.043.062.056.11.062.143.037.123.03.099.013.056.024.08.031.153.012.099v.087l.007.099-.013.104-.012.16-.013.099-.006.099-.019.124-.019.073-.025.105-.055.147-.05.136-.056.117-.043.074-.03.062-.05.062-.043.056-.037.055-.024.044-.037.043-.068.067-.08.062-.055.056-.044.037-.055.043-.05.043-.062.037-.043.037-.074.05-.123.067-.136.08-.104.043-.068.025-.129.043-.154.043-.13.019h-.179l-.142-.013ZM216.478,108.11l.08-.006.036-.006.031-.019.024-.013.08-.013.08-.037.074-.024.117-.062.123-.08.161-.117.092-.099.031-.037.049-.074.093-.117.123-.185.037-.136.024-.117.019-.136.013-.166.012-.086-.012-.161-.043-.222-.043-.142-.062-.129-.03-.105-.037-.067-.05-.099-.073-.093-.044-.056-.067-.067-.21-.167-.197-.117-.117-.049-.129-.037-.05-.012-.08-.025-.104-.024h-.339l-.093.019-.11.012-.143.043-.203.086-.345.197-.062.067-.049.062-.037.03-.074.104-.055.105-.031.043-.024.067-.044.081-.036.098-.031.1-.013.086-.03.136-.013.154.007.073.006.087.013.099v.092l.006.031.019.067.024.111.019.093.074.136.147.222.117.147.043.05.099.086.124.08.043.025.024.012.111.062.129.062.104.031.173.031.173.024.148.006.179-.019Z"/><path class="cls-3" d="M222.9,108.739l-.197.006-.13-.024-.08-.056-.086-.11-.104-.143-.247-.351-.117-.154-.062-.087-.136-.203-.147-.21-.111-.142-.093-.104-.062-.093-.055-.056-.13-.185-.08-.099-.056-.056-.043-.08-.074-.08-.142-.19-.117-.173-.074-.099-.08-.087-.049-.067-.037-.037-.062-.024-.056.03-.006.117.006.143v.123l-.006.129.012.191v.253l.007.253.006.153.019.117-.007.191v.259l-.012.173v.093l-.006.129.006.099-.006.08v.111l-.013.099-.043.08-.062.043-.056.019-.099.019h-.08l-.043.006-.13-.006-.13-.086-.049-.093-.019-.099.006-.111.013-.117-.006-.117v-.08l-.007-.11v-.117l.013-.087-.006-.16-.013-.117-.019-.117.006-.185v-.104l-.006-.105.006-.11v-.068l.013-.172v-.186l-.013-.092v-.056l.013-.099-.013-.111v-.043l.013-.111-.006-.153.006-.136-.013-.105.007-.062-.007-.08-.006-.123-.006-.111v-.166l.006-.117.006-.074v-.062l.013-.099.013-.08.03-.025.111-.062.092-.006.117-.006.136.012.13.025.08.055.099.124.062.092.104.148.087.136.08.099.08.123.086.111.037.049.062.111.068.086.104.117.08.111.067.074.124.147.147.197.093.148.147.197.062.067.049.074.08.117.111.129.11.173.062.074.044.056.062.049h.067l.019-.03.013-.136.006-.13v-.616l.013-.173v-.11l-.007-.117v-.111l.013-.086v-.413l-.013-.062.007-.099-.007-.124v-.099l-.006-.092v-.172l.006-.117.031-.111.049-.037.068-.037.056-.012.08-.006.067-.019h.179l.074.037.056.062.043.099.013.161-.013.142-.006.068.012.117-.006.092.006.086-.006.092.006.062v.24l.007.179v.321l.019.092v.056l-.013.08.013.13-.007.067.007.056-.019.068v.727l-.007.173.007.093v.696l.019.104-.013.148-.068.062-.049.019-.062.013-.136-.013Z"/><path class="cls-3" d="M226.044,108.825l-.08-.012-.104-.019-.166-.024-.186-.062-.123-.043-.234-.099-.166-.092-.074-.056-.105-.074-.172-.154-.136-.117-.074-.117-.056-.104v-.123l.056-.105.068-.086.104-.056.062-.019.062-.024h.08l.08.019.062.037.148.136.024.043.024.024.179.142.074.056.068.031.123.067.136.05.099.049.086.024.062.013h.05l.049-.006.056.012.037-.006.093.006.147.007.093-.025h.092l.074-.012.08-.006.068-.019.049-.025.08-.024.105-.062.135-.111.087-.104.019-.049.037-.093.012-.117-.019-.154-.104-.166-.123-.074-.068-.031-.092-.03-.087-.025-.092-.012-.093-.024-.086-.013-.08-.019-.087-.006-.129-.024-.13-.013-.067-.019-.13-.013-.246-.043-.087-.019-.074-.024-.123-.031-.123-.043-.087-.037-.098-.037-.136-.067-.099-.062-.025-.013-.067-.056-.08-.073-.043-.037-.037-.05-.05-.073-.03-.056-.062-.099-.062-.24v-.18l.013-.104.019-.142.024-.093.025-.062.03-.062.024-.056.044-.067.067-.093.191-.191.062-.031.086-.062.105-.05.08-.062.067-.037.056-.024.056-.006.062-.037.222-.062.117-.018.142-.019.068-.013.08-.006.135-.013.124.006h.056l.043.006.216.019.037.012h.049l.062.012.056.012.074.013.16.062.062.037.056.024.08.049.154.068.086.08.136.105.117.123.104.148.056.105-.013.185-.012.037-.024.043-.05.044-.111.067-.117.043-.099-.006-.099-.043-.062-.043-.067-.068-.104-.111-.087-.074-.056-.043-.104-.056-.067-.055-.143-.062-.099-.025-.166-.019-.111-.006-.166.006-.148.012-.123.006-.185.037-.179.08-.074.043-.099.068-.123.111-.037.092-.024.074-.007.111.025.11.036.099.031.044.05.036.086.068.129.049.191.056.117.024.074.019.067.007.08.012.056.013.068.03h.043l.062.007h.123l.074.019.104.019.123.03.062.019.062.007.024.018.16.019.283.074.136.062.13.056.104.08.037.037.086.062.093.104.037.074.037.068.024.043.013.049.037.099.012.087.007.024.012.013.007.086v.228l-.025.143-.024.099-.031.086-.03.062-.013.043-.043.074-.056.08-.049.056-.043.056-.031.03-.043.056-.056.056-.074.05-.104.067-.062.037-.043.024-.062.031-.062.024-.043.019-.086.024-.123.043-.161.037-.147.013-.093.012-.123.007h-.24l-.148-.007Z"/><path class="cls-3" d="M155.404,116.202l-.08-.019-.111-.056-.086-.067-.062-.074-.024-.074v-.111l.056-.11.037-.093.031-.067.037-.074.056-.13.037-.099.117-.234.062-.135.055-.143.099-.19.062-.142.043-.087.043-.093.049-.104.086-.222.074-.13.049-.136.086-.185.099-.228.056-.124.092-.234.068-.142.031-.092.056-.105.043-.086.013-.05.024-.062.031-.086.043-.062.037-.074.037-.067.025-.05.043-.074.074-.062.154-.03h.167l.08.019.068.062.043.08.037.073.062.143.062.136.117.228.037.099.043.08.037.111.049.11.031.087.043.086.068.154.068.136.043.111.043.073.025.068.043.092.056.099.037.099.037.105.037.062.031.08.062.111.049.123.08.19.111.21.062.148.043.092.025.056.024.08.074.148.055.117.031.049.055.117.043.13.031.104-.025.136-.068.08-.123.062-.216.056-.142-.031-.056-.049-.062-.062-.019-.081-.056-.116-.068-.143-.037-.067-.056-.123-.068-.143-.024-.055-.043-.074-.055-.099-.043-.08-.062-.043-.124-.013-.154.006h-.721l-.204-.006-.16.013-.086-.007-.104.013-.099.006-.081.044-.037.055-.124.247-.062.11-.019.068-.031.062-.037.086-.049.105-.031.092-.062.099-.074.111-.068.056-.099.024-.104-.006ZM157.593,114.328l.006-.007.019-.006.025-.056-.019-.11-.037-.093-.136-.24-.062-.117-.08-.197-.049-.117-.043-.111-.067-.16-.074-.062-.049.099-.049.154-.104.234-.081.166-.055.154-.049.111-.062.123-.006.049-.012.056v.062l.043.044.105.006h.111l.172.012.413.013.142-.006Z"/><path class="cls-3" d="M163.499,116.127l-.197.006-.129-.024-.08-.056-.086-.11-.105-.143-.247-.351-.117-.154-.062-.087-.136-.203-.147-.21-.111-.142-.092-.104-.062-.093-.056-.056-.129-.185-.08-.099-.056-.056-.043-.08-.074-.08-.142-.19-.117-.173-.074-.099-.08-.087-.049-.067-.037-.037-.062-.024-.055.03-.006.117.006.143v.123l-.006.129.012.191v.253l.006.253.006.153.019.117-.006.191v.259l-.012.173v.093l-.006.129.006.099-.006.08v.111l-.012.099-.043.08-.062.043-.055.019-.099.019h-.081l-.043.006-.129-.006-.129-.086-.049-.093-.019-.099.006-.111.013-.117-.006-.117v-.08l-.006-.11v-.117l.013-.087-.006-.16-.012-.117-.019-.117.006-.185v-.104l-.006-.105.006-.11v-.068l.012-.172v-.186l-.012-.092v-.056l.012-.099-.012-.111v-.043l.012-.111-.006-.153.006-.136-.012-.105.006-.062-.006-.08-.006-.123-.006-.111v-.166l.006-.117.006-.074v-.062l.012-.099.012-.08.031-.024.111-.062.092-.007.117-.006.135.013.13.024.08.056.099.123.062.093.105.147.086.136.081.099.08.123.086.111.037.049.062.111.068.086.105.117.08.111.068.074.123.147.148.197.093.148.148.197.062.067.049.074.08.117.111.129.111.173.062.074.043.056.062.049h.067l.019-.03.013-.136.006-.13v-.616l.012-.173v-.11l-.006-.117v-.111l.012-.086v-.413l-.012-.062.006-.1-.006-.123v-.099l-.006-.092v-.173l.006-.117.031-.111.049-.037.068-.037.055-.012.081-.006.067-.019h.179l.074.036.056.062.043.099.012.16-.012.142-.006.067.013.117-.006.093.006.086-.006.093.006.062v.24l.006.179v.321l.019.092v.056l-.012.08.012.13-.006.067.006.056-.019.068v.727l-.006.173.006.093v.696l.019.104-.012.148-.068.062-.049.019-.062.013-.136-.013Z"/><path class="cls-3" d="M165.613,116.146l-.16-.013-.142-.03-.068-.043-.031-.037-.025-.08-.019-.111v-.197l.006-.074v-.067l.006-.074-.006-.136.012-.147-.012-.191-.006-.173-.006-.147v-.808l.006-.191-.006-.16-.006-.117-.006-.13.006-.16-.006-.179.006-.136v-.203l.012-.185-.019-.173v-.13l.025-.104.056-.08.055-.043.111-.006.179-.007.111.007.068-.007.154.007h.783l.092-.013h.086l.068-.006.16-.007.16.013.086-.006.037.012.055.007.086.006.204.03.092.019.129.05.124.049.074.05.105.067.086.062.086.068.136.142.111.123.062.105.093.147.056.117.043.08.037.093.043.123.031.13.012.049.019.142.019.191.012.093.019.067.006.123-.006.161-.006.147-.025.166-.031.179-.043.148-.056.203-.049.111-.056.123-.037.062-.043.087-.099.136-.104.123-.093.099-.086.074-.093.067-.136.074-.142.067-.056.024-.08.031-.08.024-.24.062-.296.013h-.191l-.197.006-.16-.006-.327.019-.204.006-.172-.006-.117.006-.284-.006ZM167.136,115.45l.154-.025.148-.03.117-.019.154-.062.123-.068.167-.117.124-.136.111-.153.068-.167.043-.166.031-.148.006-.11v-.407l-.012-.179-.019-.136-.025-.117-.043-.147-.043-.124-.049-.086-.056-.086-.111-.136-.179-.148-.142-.08-.086-.037-.228-.062-.086-.006-.154-.006h-.481l-.24-.007-.185.007-.08.019-.111.012-.099.024-.043.044-.012.067-.006.093.006.117v.086l-.006.111-.006.166v.395l.006.154v.413l-.006.173v.425l.012.123.006.161.006.104v.154l.019.08.093.024.086-.013.105.007.123.012h.173l.197.007h.432Z"/><path class="cls-3" d="M172.478,116.146l-.16-.013-.142-.03-.068-.043-.031-.037-.025-.08-.019-.111v-.197l.006-.074v-.067l.006-.074-.006-.136.012-.147-.012-.191-.006-.173-.006-.147v-.808l.006-.191-.006-.16-.006-.117-.006-.13.006-.16-.006-.179.006-.136v-.203l.012-.185-.019-.173v-.13l.025-.104.056-.08.055-.043.111-.006.179-.007.111.007.068-.007.154.007h.783l.092-.013h.087l.067-.006.16-.007.161.013.086-.006.037.012.056.007.086.006.203.03.093.019.13.05.123.049.074.05.104.067.086.062.087.068.135.142.111.123.062.105.093.147.056.117.043.08.037.093.043.123.031.13.012.049.019.142.019.191.013.093.019.067.006.123-.006.161-.007.147-.024.166-.03.179-.044.148-.056.203-.049.111-.056.123-.037.062-.043.087-.099.136-.104.123-.093.099-.086.074-.093.067-.136.074-.142.067-.056.024-.08.031-.08.024-.24.062-.296.013h-.191l-.197.006-.16-.006-.327.019-.203.006-.172-.006-.117.006-.284-.006ZM174,115.45l.154-.025.148-.03.117-.019.153-.062.124-.068.166-.117.123-.136.111-.153.067-.167.044-.166.03-.148.006-.11v-.407l-.012-.179-.019-.136-.024-.117-.044-.147-.043-.124-.049-.086-.056-.086-.111-.136-.179-.148-.142-.08-.086-.037-.229-.062-.086-.006-.154-.006h-.48l-.241-.007-.185.007-.08.019-.111.012-.099.024-.043.044-.012.067-.006.093.006.117v.086l-.006.111-.006.166v.395l.006.154v.413l-.006.173v.425l.012.123.006.161.006.104v.154l.019.08.093.024.086-.013.105.007.123.012h.172l.197.007h.432Z"/><path class="cls-3" d="M179.462,116.14l-.043-.007-.056.007-.142-.013-.124.006-.08-.006-.172.006h-.13l-.117-.006h-.099l-.086.013-.099-.007-.031.007-.136-.013h-.185l-.203-.006-.223.006h-.197l-.099-.006-.099-.056-.073-.123-.013-.148v-.438l-.006-.191.006-.142v-.191l-.006-.117-.007-.129-.006-.062v-.087l.006-.092v-.148l-.006-.019.006-.056-.006-.073v-.056l-.006-.148.006-.259.006-.173v-.104l-.006-.179v-.4l-.013-.105.007-.08v-.073l.006-.117v-.068l.006-.117.007-.166.024-.08.043-.068.068-.043.049-.024.067-.013h.179l.26.013h.406l.173-.006.13-.007.19-.006h.401l.135.019h.136l.099-.013.173.007.099.006.247-.013.067.007.093-.007.099.013.092.037.05.074.037.123.012.129-.006.08-.037.111-.067.086-.068.025-.142.012-.222.007-.13.006-.056-.006-.197.012h-.289l-.234-.006-.142-.006h-.062l-.124.012-.326.007h-.111l-.136.006h-.117l-.11.031-.019.098-.006.105-.013.043v.104l-.006.142.012.154-.006.16.03.143.074.043h.05l.136.019.16-.013h.104l.13.013.135-.013.469-.006h.339l.093.006.104.031.074.073.024.068.013.062.006.049.013.143-.019.129-.043.074-.123.062h-.327l-.357.019-.197-.006h-.068l-.252-.007-.074.007-.111-.007-.147.007-.074.012-.08.025-.043.037-.007.086-.006.093-.012.104v.136l.006.092v.117l-.006.099v.167l.055.16.173.074h.432l.173-.007.172.007.352-.007.13-.012h.37l.073.012h.117l.191.007.154.012h.08l.049.013.056.037.037.056.019.11-.006.13v.074l-.013.067-.024.074-.037.049-.043.025-.062.018-.309.031-.16.019h-.173l-.123-.006Z"/><path class="cls-3" d="M181.602,116.109l-.08-.043-.043-.087-.031-.11-.006-.13.006-.136-.006-.123.013-.093-.007-.16v-.277l.007-.136-.007-.147-.012-.068-.007-.135v-.383l.007-.172v-.117l.012-.136.007-.136.012-.16-.012-.16.012-.13v-.283l-.012-.087v-.179l-.007-.154v-.339l.025-.099.018-.043.031-.043.043-.024.074-.019.08-.007.08.013h.117l.099-.006.067.024.037.037.031.056.013.043.006.099.006.123v.093l.013.136v.099l-.013.123-.006.104v.389l.006.136.013.117.006.11.006.186.007.135-.007.044.007.067.006.117-.006.117v.056l-.007.056.007.043-.013.123v.111l-.006.209-.019.136v.142l.006.105.019.147v.05l.006.055.037.05.031.013h.271l.135.006.056-.006.062.006.099.006.124.007h.129l.099-.019.117-.007h.111l.093.007h.123l.074.012h.11l.148-.019h.147l.093.007h.086l.08.019.068.043.067.08.013.043v.277l-.013.062-.019.043-.049.044-.105.055-.086.013-.104-.006h-.321l-.104.019-.08-.007h-.352l-.092-.006-.364.013h-1.189l-.093-.031Z"/><path class="cls-3" d="M185.819,116.122l-.117-.031-.087-.086-.024-.087.007-.142v-.246l.006-.148-.013-.099.007-.142-.013-.154.006-.08.007-.067-.019-.105v-.19l.012-.148-.012-.123.019-.111-.007-.073v-.111l-.019-.111.007-.073v-.099l-.019-.173-.007-.105.019-.185v-.179l.007-.166-.007-.124v-.592l-.006-.123.024-.099.031-.056.037-.037.08-.055.117-.013h.11l.13.006.099.031.049.056.05.08.006.11.007.154v.105l-.007.067.013.104-.006.154v.148l.012.104-.006.154-.006.19v.124l.006.086v.154l.006.136-.006.166.006.29-.012.173v.08l.006.055v.346l.006.099v.32l.013.068v.289l-.007.142-.03.173-.031.068-.03.037-.043.019-.111.043h-.13l-.049.006-.08-.006Z"/><path class="cls-3" d="M189.208,116.133l-.13-.019-.043-.019-.043-.043-.05-.062-.006-.062-.05-.111-.012-.055-.025-.044-.08-.147-.062-.148-.03-.067-.056-.099-.05-.123-.062-.136-.043-.136-.074-.154-.037-.099-.049-.08-.037-.111-.024-.067-.019-.056-.043-.099-.117-.234-.019-.055-.037-.093-.031-.074-.037-.099-.012-.043-.05-.104-.08-.173-.049-.117-.024-.056-.007-.043-.03-.068-.031-.08-.037-.11-.03-.056-.007-.037-.037-.056-.055-.142-.062-.166-.044-.148-.037-.086-.018-.062-.013-.074v-.074l.024-.056.019-.024.087-.043.135-.056.148-.03.086.006.087.043.062.074.03.062.037.08.062.147.099.229.13.277.043.136.043.117.025.049.049.13.043.136.031.043.024.062.05.111.055.129.056.117.031.087.024.062.031.08.062.11.067.148.043.099.037.056.043.099.056.123.043.104.05.062.037.037.037-.012.036-.05.031-.067.037-.056.037-.099.049-.142.043-.074.019-.062.044-.099.03-.08.013-.037.037-.056.043-.086.03-.08.025-.074.024-.056.019-.08.062-.123.043-.099.031-.087.043-.067.037-.08.03-.068.037-.08.031-.08.019-.049.03-.08.05-.087.043-.099.056-.129.062-.13.037-.086.024-.05.019-.055.043-.08.056-.117.067-.093.099-.056.056-.012.104.03.1.037.104.049.037.007.08.086.012.104-.006.037-.024.105-.056.123-.031.08-.086.216-.056.142-.049.099-.087.185-.036.087-.031.086-.031.068-.024.043-.019.056-.062.142-.056.123-.019.043-.024.08-.037.068-.024.049-.024.056-.013.043-.03.068-.05.136-.056.11-.03.08-.019.056-.019.037-.019.049-.031.08-.043.093-.074.123-.062.179-.037.105-.012.056-.037.062-.019.062-.031.067-.037.087-.043.104-.019.074-.024.062-.056.117-.062.142-.043.067-.019.037-.05.062-.049.037-.093.019-.172-.019Z"/><path class="cls-3" d="M194.651,116.14l-.043-.007-.056.007-.142-.013-.124.006-.08-.006-.172.006h-.13l-.117-.006h-.099l-.086.013-.099-.007-.031.007-.136-.013h-.185l-.203-.006-.223.006h-.197l-.099-.006-.099-.056-.073-.123-.013-.148v-.438l-.006-.191.006-.142v-.191l-.006-.117-.007-.129-.006-.062v-.087l.006-.092v-.148l-.006-.019.006-.056-.006-.073v-.056l-.006-.148.006-.259.006-.173v-.104l-.006-.179v-.4l-.013-.105.007-.08v-.073l.006-.117v-.068l.006-.117.007-.166.024-.08.043-.068.068-.043.049-.024.067-.013h.179l.26.013h.406l.173-.006.13-.007.19-.006h.401l.135.019h.136l.099-.013.173.007.099.006.247-.013.067.007.093-.007.099.013.092.037.05.074.037.123.012.129-.006.08-.037.111-.067.086-.068.025-.142.012-.222.007-.13.006-.056-.006-.197.012h-.289l-.234-.006-.142-.006h-.062l-.124.012-.326.007h-.111l-.136.006h-.117l-.11.031-.019.098-.006.105-.013.043v.104l-.006.142.012.154-.006.16.03.143.074.043h.05l.136.019.16-.013h.104l.13.013.135-.013.469-.006h.339l.093.006.104.031.074.073.024.068.013.062.006.049.013.143-.019.129-.043.074-.123.062h-.327l-.357.019-.197-.006h-.068l-.252-.007-.074.007-.111-.007-.147.007-.074.012-.08.025-.043.037-.007.086-.006.093-.012.104v.136l.006.092v.117l-.006.099v.167l.055.16.173.074h.432l.173-.007.172.007.352-.007.13-.012h.37l.073.012h.117l.191.007.154.012h.08l.049.013.056.037.037.056.019.11-.006.13v.074l-.013.067-.024.074-.037.049-.043.025-.062.018-.309.031-.16.019h-.173l-.123-.006Z"/><path class="cls-3" d="M199.731,116.176l-.062-.03-.049-.043-.068-.074-.074-.104-.049-.062-.05-.068-.049-.074-.056-.08-.037-.062-.049-.062-.068-.099-.099-.111-.067-.086-.056-.08-.08-.099-.093-.111-.074-.104-.098-.117-.062-.086-.037-.05-.043-.03-.062-.043-.062-.031-.067-.013-.08-.012-.056.006-.383-.013-.147.013-.123.043-.031.099-.013.167-.012.142-.006.074-.007.16v.123l.007.173-.007.049v.117l-.006.104v.13l-.013.086-.012.099-.031.062-.031.036-.036.019-.062.019h-.074l-.111.013-.136-.013-.067-.012-.062-.025-.056-.099-.031-.086v-.148l-.006-.147-.006-.062.019-.24v-.148l-.007-.123-.012-.099v-.419l.006-.117.006-.074-.006-.049v-.284l.006-.117v-.24l-.006-.13v-.086l.013-.062-.013-.074v-.123l-.006-.043.006-.037.006-.062v-.111l-.006-.024.013-.093v-.296l-.013-.062.013-.062-.019-.117v-.111l.006-.123.024-.104.037-.056.037-.031.067-.036.18-.025.271.013.216-.006.142-.007h.099l.068.007.104-.007.142-.006.314.006h.08l.117-.006h.284l.142.006.333.031.073.019.111.037.142.062.154.092.086.087.05.056.093.099.055.104.031.099.043.104.031.087.024.049.013.056.012.049-.006.074.006.08.007.148.006.191-.006.092-.013.05-.019.067-.024.068-.043.123-.062.142-.036.056-.037.062-.068.074-.062.056-.062.067-.104.067-.074.037-.104.074-.13.056-.037.037.007.03.006.025.037.062.067.11.087.105.062.073.03.056.05.056.185.265.068.087.073.099.062.074.05.08.067.086.043.111-.012.043-.024.08-.074.123-.087.056-.104.074-.136.055-.062-.019ZM198.899,113.748l.056-.006.067-.006.05-.007.062.007.056-.024.043-.019.056-.019.037-.031.043-.043.037-.05.049-.129.024-.13.013-.056.006-.092.013-.074-.013-.093-.03-.11-.031-.099-.074-.117-.104-.068-.086-.024-.117-.037-.117-.006-.093-.006-.056-.007h-.055l-.068-.006-.074.013h-.413l-.086-.007h-.099l-.111.007-.092-.019h-.191l-.147.019-.037.012-.019.043-.007.08-.006.161v.197l-.006.142.006.197-.006.185.019.111.092.056.081.019.08.006.11-.013.068.013.136.006h.129l.037.006.136-.006h.166l.259.024h.21Z"/><path class="cls-3" d="M202.833,116.127l-.037-.013-.037-.019-.049-.036-.031-.056-.019-.056-.012-.074-.013-.067v-.173l.007-.234v-.147l-.007-.117.013-.124.006-.092-.012-.062-.007-.191-.006-.283-.043-.18-.044-.062-.024-.055-.056-.093-.049-.05-.05-.08-.08-.086-.036-.037-.037-.062-.074-.086-.05-.056-.036-.062-.068-.062-.049-.043-.08-.099-.093-.104-.056-.08-.049-.068-.124-.142-.099-.129-.074-.111-.086-.093-.08-.099-.031-.049-.055-.074-.05-.099-.019-.067v-.08l.043-.074.044-.056.062-.037.123-.092.056-.013.067-.031.117.013.123.104.124.142.11.105.056.062.08.104.068.099.099.13.08.099.086.129.056.074.062.087.062.092.019.024.019.019.05.062.067.08.062.067.074.08.074.067.055.025.05-.013.043-.019.123-.123.037-.056.05-.056.043-.062.037-.043.043-.05.049-.067.062-.074.049-.062.043-.056.031-.03.049-.056.056-.074.037-.037.05-.062.055-.067.031-.043.037-.044.019-.036.012-.019.05-.05.056-.067.036-.05.05-.056.067-.086.044-.062.043-.037.099-.074.117-.049.086.03.277.223.056.067.013.067-.068.143-.062.099-.099.117-.093.129-.062.08-.104.117-.13.136-.067.086-.136.186-.093.129-.104.117-.086.111-.056.056-.074.092-.043.05-.024.043-.074.093-.086.117-.068.11-.056.124-.012.172v.327l.006.185-.019.259-.006.204.012.222-.006.21v.086l-.024.062-.05.074-.073.037-.143.012h-.11l-.13-.006Z"/></svg>