<?xml version="1.0" encoding="UTF-8"?><svg id="Layer_1" xmlns="http://www.w3.org/2000/svg" width="3.5in" height="2in" viewBox="0 0 252 144"><defs><style>.cls-1{fill:none;stroke:#b78330;stroke-linecap:round;stroke-linejoin:round;stroke-width:5.323px;}.cls-2{fill:#b78330;}.cls-3{fill:#f4f1e4;}</style></defs><path class="cls-3" d="M47.676,47.733c-2.177.546-4.349,1.114-6.517,1.706-.721,6.869-1.166,14.467-1.422,21.2-.893.266-1.785.536-2.677.81.224-6.745.602-14.346,1.232-21.214-2.163.612-4.322,1.246-6.475,1.904.057-.825.117-1.651.178-2.476,5.299-1.602,10.628-3.067,15.982-4.393-.102.821-.203,1.642-.301,2.463Z"/><path class="cls-3" d="M57.323,57.43c-.857,3.398-2.196,6.681-6.791,7.848-2.889.739-5.389-.348-6.129-3.024-1.011-3.637.664-7.757,4.41-8.701,2.321-.583,3.884.756,4.247,2.286.765,3.257-2.619,5.806-6.013,5.971.508,1.199,1.619,1.759,3.514,1.276,2.858-.723,4.387-2.908,5.532-6.931.411.424.821.849,1.23,1.275ZM46.712,60.182c2.182-.195,4.336-1.851,3.931-3.636-.142-.701-.721-1.119-1.499-.922-1.677.423-2.608,2.473-2.432,4.558Z"/><path class="cls-3" d="M68.034,55.196c-.973,3.366-2.423,6.599-7.046,7.602-2.617.572-4.97-.573-5.638-3.385-.892-3.728,1.104-7.703,4.541-8.438,2.977-.633,4.74,1.768,4.32,4.477-.875.178-1.749.359-2.623.544.26-1.868-.452-3.035-1.568-2.796-1.659.356-2.623,3.068-2.108,5.328.386,1.702,1.627,2.417,3.15,2.086,2.905-.628,4.477-2.75,5.758-6.73.406.436.81.874,1.213,1.312Z"/><path class="cls-3" d="M72.303,58.045c-.395-2.17,1.481-5.024,1.238-6.488-.091-.536-.391-.834-1.026-.724-2.74.473-4.213,6.406-4.489,10.22-.859.167-1.717.337-2.575.511.63-4.744,1.982-13.399,3.043-18.793.9-.163,1.801-.323,2.701-.479-.726,3.203-1.294,6.386-1.856,9.602.879-1.995,2.391-3.224,4.008-3.497,1.494-.253,2.651.52,2.877,1.932.345,1.999-1.607,5.25-1.361,6.662.077.452.385.66.829.586,1.268-.212,2.79-2.803,3.964-5.872.365.446.729.894,1.092,1.341-.795,2.574-2.835,6.531-5.462,6.978-1.641.279-2.724-.542-2.983-1.979Z"/><path class="cls-3" d="M84.948,56.063c-.304-2.185,1.654-4.954,1.472-6.427-.069-.539-.324-.853-.964-.77-2.784.363-4.466,6.224-4.899,10.023-.863.131-1.726.265-2.588.403.672-3.903,1.42-7.811,2.252-11.692.865-.127,1.73-.251,2.595-.371-.193.855-.383,1.71-.572,2.565.959-1.956,2.519-3.122,4.142-3.327,1.47-.187,2.594.633,2.792,2.05.261,2.012-1.852,5.182-1.663,6.603.058.454.357.676.803.62,1.274-.16,2.898-2.685,4.226-5.706.346.461.691.923,1.034,1.385-.899,2.539-3.127,6.411-5.737,6.745-1.649.21-2.696-.655-2.894-2.102Z"/><path class="cls-3" d="M100.269,50.785c-.953,2.519-3.232,6.339-5.818,6.613-4.474.489-2.875-5.446-1.171-11.442.909-.095,1.819-.187,2.729-.274-1.477,4.971-2.899,9.499-1.118,9.312,1.248-.129,3.024-2.513,4.376-5.616.336.469.67.938,1.003,1.408ZM93.675,42.866c-.122-1.166.83-2.329,1.954-2.436.811-.078,1.484.407,1.554,1.176.1,1.111-.879,2.321-1.987,2.43-.863.085-1.441-.402-1.521-1.17Z"/><path class="cls-3" d="M113.523,49.954c-1.215,2.857-3.02,5.085-5.597,6.644,3.394,1.673,3.012,6.954-.84,7.191-3.333.225-4.256-2.878-2.5-9.035-.43.691-1.21,1.835-2.865,1.968-2.007.163-3.424-1.628-3.637-3.907-.379-3.958,2.085-7.813,5.605-8.065,1.291-.093,2.51.575,3.015,1.318.138-.42.276-.839.415-1.258.901-.055,1.802-.106,2.704-.153-1.33,3.995-2.253,7.204-3.063,10.438,2.538-1.423,4.236-3.282,5.791-6.588.326.482.65.965.972,1.448ZM106.153,47.995c-.377-.635-1.235-1.095-2.121-1.032-2.266.162-3.537,2.97-3.324,5.45.089,1.055.706,1.978,1.808,1.892,1.579-.122,2.615-2.259,3.637-6.311ZM106.123,57.63c-.547,2.016-.505,4.22.918,4.126,1.858-.115,1.342-3.584-.918-4.126Z"/><path class="cls-3" d="M126.824,49.687c-1.162,2.429-3.756,6.042-6.354,6.094-1.421.028-2.368-.974-2.293-2.551-.859,1.511-2.244,2.669-3.843,2.732-3.257.14-4.092-3.314-.67-11.484.912-.037,1.824-.069,2.737-.098-2.682,6.216-3.04,9.303-1.263,9.232,1.827-.065,2.934-2.762,5.231-9.333.933-.018,1.866-.031,2.8-.041-2.711,6.985-3.386,9.212-2.058,9.184,1.254-.023,3.194-2.247,4.832-5.224.295.495.588.991.88,1.488Z"/><path class="cls-3" d="M135.92,52.923c-1.307,1.448-3.653,2.844-6.376,2.817-2.958-.03-5.076-1.725-5.1-4.501-.038-3.774,2.615-7.324,6.451-7.271,2.376.035,3.532,1.731,3.49,3.302-.097,3.229-4,4.907-7.294,4.192.18,1.318,1.073,2.145,3.042,2.168,1.698.019,3.609-1.369,4.635-2.428.386.573.77,1.147,1.152,1.722ZM127.186,49.831c2.14.317,4.634-.786,4.699-2.5.042-.714-.405-1.267-1.202-1.277-1.717-.023-3.132,1.718-3.497,3.777Z"/><path class="cls-3" d="M165.56,38.08c-2.647,7.144-4.933,14.374-7.067,21.628-.967-.103-1.934-.201-2.902-.294,1.813-5.918,3.819-11.811,6.033-17.67-3.861,4.814-7.41,9.684-10.79,14.695-.938-.075-1.876-.145-2.814-.212.458-5.216,1.034-10.367,1.757-15.564-3.241,5.817-6.202,11.749-8.843,17.695-.951-.045-1.902-.086-2.853-.123,3.286-7.347,7.028-14.573,11.141-21.713,1.229.086,2.458.179,3.687.279-.843,5.299-1.569,10.58-2.077,15.878,3.387-5.1,7.074-10.103,10.986-15.029,1.248.136,2.495.28,3.741.43Z"/><path class="cls-3" d="M179.152,54.17c-1.557,2.199-4.728,5.325-7.305,4.94-1.498-.224-1.967-1.357-1.965-2.225-.748.79-1.862,1.671-3.657,1.435-2.058-.269-3.153-2.125-2.867-4.541.441-3.807,3.65-7.265,7.151-6.774,1.286.18,2.4,1.097,2.705,1.952.224-.391.449-.781.674-1.172.874.132,1.748.268,2.622.407-3.924,6.708-4.804,8.525-3.634,8.699,1.243.188,3.565-1.673,5.654-4.338.208.538.415,1.076.621,1.615ZM172.271,50.727c-.231-.729-.947-1.354-1.858-1.482-2.253-.316-4.092,2.222-4.403,4.69-.13,1.022.284,2.026,1.381,2.172,1.573.211,3.066-1.657,4.88-5.381Z"/><path class="cls-3" d="M190.13,56.253c-1.602,2.119-4.951,5.145-7.428,4.685-1.695-.316-2.39-1.686-2.141-3.095.319-1.803,1.761-3.698,3.299-5.769-.627-.146-1.577-.406-2.387-.753-1.733,2.744-3.704,4.786-5.449,6.184-1.522,1.173-2.381-.292-.81-1.58,2.376-1.91,4.211-5.047,5.476-7.994.793.137,1.586.277,2.379.42-.163.377-.35.722-.507,1.071,1.409.54,3.961,1.14,5.148,1.348-1.616,2.1-4.139,5.497-4.403,6.934-.11.591.092.977.593,1.072,1.203.226,3.908-2.011,5.666-4.159.19.545.378,1.091.564,1.636Z"/><path class="cls-3" d="M196.723,57.701c-1.685,2.105-5.036,5.042-7.592,4.51-4.426-.905-1.079-6.066,2.385-11.252.898.188,1.796.38,2.693.576-2.935,4.279-5.682,8.153-3.921,8.521,1.232.259,3.661-1.465,5.906-4.004.178.549.354,1.098.529,1.648ZM192.84,48.139c.241-1.148,1.506-1.963,2.615-1.72.801.175,1.294.843,1.126,1.597-.245,1.088-1.552,1.94-2.645,1.704-.851-.184-1.255-.825-1.096-1.581Z"/><path class="cls-3" d="M199.549,62.048c.514-2.145,3.36-4.004,3.73-5.442.132-.527.008-.913-.621-1.07-2.738-.682-6.454,4.157-8.248,7.535-.854-.194-1.709-.385-2.564-.572,2.054-3.388,4.181-6.751,6.379-10.059.854.198,1.708.4,2.562.605-.493.725-.984,1.451-1.473,2.178,1.612-1.47,3.498-1.983,5.093-1.579,1.446.366,2.198,1.541,1.865,2.932-.493,1.968-3.633,4.144-3.974,5.535-.111.444.087.76.525.872,1.251.319,3.698-1.435,6.05-3.759.156.556.31,1.113.463,1.669-1.774,2.032-5.281,4.818-7.847,4.171-1.622-.409-2.283-1.598-1.939-3.017Z"/><path class="cls-3" d="M217.34,66.445c-1.656,1.047-4.312,1.765-6.957,1.012-2.874-.819-4.483-3.017-3.773-5.701.96-3.65,4.48-6.367,8.201-5.291,2.303.668,2.984,2.614,2.527,4.118-.948,3.088-5.194,3.663-8.211,2.094-.173,1.319.477,2.355,2.388,2.902,1.648.472,3.878-.356,5.157-1.102.225.656.448,1.313.668,1.969ZM209.649,61.129c1.999.876,4.719.479,5.236-1.157.23-.678-.062-1.33-.833-1.553-1.666-.481-3.503.821-4.403,2.71Z"/><path class="cls-2" d="M42.291,84.479l-5.735,1.15c-.795.156-1.448.681-1.803,1.405-.809,1.703-2.371,3.024-4.358,3.407-2.03.412-4.031-.227-5.422-1.547-.255-.227-.128-.653.199-.724l3.222-.639c.298-.057.539-.27.639-.554l.767-2.257c.085-.284.028-.61-.17-.837l-1.576-1.789c-.199-.227-.497-.326-.795-.27l-3.222.639c-.327.071-.596-.27-.468-.582.795-1.76,2.399-3.109,4.415-3.52,1.987-.383,3.946.213,5.337,1.476.61.554,1.419.781,2.214.625l5.479-1.093c-.071.88-.014,1.76.185,2.612.213.908.582,1.76,1.093,2.498Z"/><path class="cls-1" d="M36.88,82.852c61.28-12.747,121.017-12.433,179.32,0"/><path class="cls-2" d="M223.544,78.013c-2.005-.412-3.98.2-5.385,1.476-.595.541-1.411.768-2.199.612l-5.271-1.048c.234,1.045.227,2.17-.093,3.333-.178.65-.468,1.272-.841,1.848l5.179,1.03c.792.158,1.457.686,1.803,1.416.806,1.701,2.378,3.011,4.366,3.406,3.336.663,6.578-1.503,7.241-4.839.662-3.33-1.474-6.55-4.8-7.234ZM225.206,85.053l-1.525,1.739c-.199.227-.504.33-.8.272l-2.268-.451c-.296-.059-.538-.271-.635-.557l-.744-2.19c-.097-.286-.034-.601.165-.828l1.525-1.739c.199-.227.504-.33.8-.271l2.268.451c.296.059.538.271.635.557l.744,2.19c.097.286.034.601-.165.828Z"/><path class="cls-3" d="M67.841,96.008l-.15-.075-.067-.143-.008-.165-.015-.083v-.15l.015-.135-.007-.15-.008-.165.008-.143-.016-.195v-.203l.008-.105-.015-.203.007-.255v-.12l-.015-.21v-.285l.008-.098.007-.21v-.292l-.007-.3v-.451l.007-.097v-.383l-.007-.172-.016-.15v-.127l.016-.06.052-.083.061-.045.143-.022.15-.015h.052l.113-.008.135.022.061.038.053.053.052.113.083.127.09.165.083.18.135.233.098.18.09.195.143.285.091.15.082.188.083.143.037.075.038.067.045.09.075.18.104.188.075.15.045.098.038.075.052.09.083.158.083.173.074.112.068.128.037.098.045.022.038-.022.052-.075.053-.083.053-.098.09-.188.083-.166.045-.098.061-.09.045-.053.022-.06.022-.067.075-.113.052-.112.046-.068.067-.127.075-.158.067-.143.067-.15.067-.135.075-.113.083-.18.098-.18.09-.203.112-.225.067-.143.022-.083.061-.105.03-.09.074-.15.113-.18.09-.06.09-.03.338-.03.136.015.12.045.045.068.015.052.015.12v.758l-.007.158.007.173v.675l.008.188v.105l-.008.158.023.225-.008.18.015.233v.57l-.007.188v.12l-.008.097.008.166.007.15-.007.195.007.225-.015.166-.038.135-.045.053-.075.045-.06.022-.09.022-.128-.007h-.098l-.075-.015-.075-.022-.09-.045-.098-.21-.022-.232.008-.158v-.248l-.008-.315v-.623l-.022-.248.015-.165v-.12l.008-.165v-.143l-.008-.083v-.195l-.007-.022-.022-.015-.016.015-.037.052-.022.068-.053.09-.037.075-.046.075-.052.105-.068.15-.074.166-.083.12-.075.127-.067.135-.053.112-.083.15-.112.21-.053.128-.052.143-.098.18-.038.09-.037.053-.03.067-.037.06-.03.06-.083.158-.067.143-.015.045-.068.098-.135.097-.098.015-.09.008-.105.007-.104-.007-.083-.038-.082-.113-.091-.188-.06-.113-.061-.135-.082-.18-.075-.135-.045-.105-.03-.067-.037-.075-.158-.263-.037-.053-.075-.165-.075-.158-.037-.075-.083-.127-.09-.21-.075-.15-.053-.12-.09-.15-.09-.195-.091-.165-.053-.06-.022.022v.112l-.007.173v.127l.007.06v.098l-.007.113.015.218v.15l-.008.286-.007.12v.323l.007.18-.007.127.015.135v.105l.015.165v.135l-.022.21-.022.083-.075.098-.247.067h-.165l-.128-.038Z"/><path class="cls-3" d="M77.212,96.113h-.128l-.112-.007-.15-.022h-.188l-.135-.038-.075-.015-.098-.022-.135-.053-.181-.067-.15-.083-.075-.038-.082-.053-.098-.052-.067-.053-.075-.045-.105-.098-.127-.113-.083-.083-.271-.323-.104-.203-.091-.165-.098-.173-.045-.165-.037-.098-.038-.18-.029-.15-.008-.09-.022-.127-.008-.105.008-.127v-.218l.022-.143.015-.135.061-.188.022-.12.06-.173.075-.195.067-.105.075-.165.143-.225.128-.173.075-.067.053-.068.075-.083.075-.075.06-.03.083-.083.202-.113.181-.09.21-.098.157-.045.098-.045.203-.067.188-.03.12-.022.181.008.263-.008.18.015h.083l.135.022.15.038.098.022.067.03.112.038.105.038.104.052.121.068.157.083.21.135.158.128.157.15.188.226.12.143.053.075.045.09.053.075.067.135.075.173.045.15.038.12.015.067.03.098.037.188.016.12v.105l.007.12-.015.128-.015.195-.016.12-.008.12-.022.15-.022.09-.029.128-.068.18-.06.165-.067.143-.053.09-.038.075-.06.075-.053.068-.045.067-.03.053-.045.052-.082.083-.098.075-.068.067-.052.045-.068.052-.06.053-.075.045-.053.045-.09.061-.15.083-.165.097-.128.053-.082.03-.158.052-.188.053-.157.022h-.218l-.173-.015ZM77.467,95.243l.098-.008.045-.007.038-.022.03-.015.098-.015.098-.045.09-.03.143-.075.15-.098.195-.143.112-.12.037-.045.061-.09.112-.143.15-.225.045-.166.03-.143.022-.165.015-.203.015-.105-.015-.195-.053-.271-.052-.172-.075-.158-.038-.127-.045-.083-.06-.12-.091-.113-.053-.068-.082-.083-.255-.203-.24-.143-.144-.06-.157-.045-.06-.015-.098-.03-.128-.03h-.413l-.112.022-.136.015-.172.053-.248.105-.421.24-.074.083-.061.075-.045.038-.09.127-.067.127-.038.053-.03.083-.053.098-.045.12-.037.12-.015.105-.038.166-.015.188.007.09.008.105.016.12v.112l.007.038.022.083.03.135.022.113.09.165.181.27.143.18.053.06.12.105.149.097.053.03.03.015.135.075.158.075.127.038.211.038.21.03.181.007.217-.022Z"/><path class="cls-3" d="M83.024,96.031l-.188-.007-.143.007-.098-.007-.119-.008-.315.008-.083.007-.165-.007-.263.015-.165-.022-.075-.015-.067-.045-.083-.127-.022-.218-.008-.24.016-.255v-.172l-.016-.203-.015-.255v-.511l.008-.248-.008-.165-.008-.225v-.218l.008-.143-.008-.21v-.127l-.007-.24.007-.18v-.098l.008-.143v-.195l.015-.158v-.315l-.007-.165.015-.113.045-.143.128-.112.165-.038.157.007.105.007.301-.007h.188l.18.007.09-.007h.286l.09.015.128.007.232-.007.12-.015h.495l.346.038.195.053.098.03.338.165.09.075.082.083.075.083.083.143.105.232.074.233.022.12v.292l-.007.113-.061.225-.075.218-.082.128-.112.15-.061.113.03.045.127.083.105.113.105.165.082.195.083.225.037.158.03.143.008.135-.008.203-.06.225-.03.127-.061.135-.075.165-.09.09-.075.12-.149.127-.203.113-.158.067-.112.03-.195.06-.195.03-.097.022-.113.008-.075.007-.127.015-.136-.008-.195.008h-.195l-.292-.015ZM83.242,92.863l.322.007h.12l.15-.015.255-.038.136-.053.143-.113.075-.098.067-.112.022-.158v-.188l-.038-.12-.037-.098-.067-.09-.165-.098-.181-.067h-.127l-.091-.007-.383.007-.293-.007h-.188l-.143-.015-.21-.008-.24.015-.135.022-.061.023-.03.06v.12l-.007.113-.03.15.007.18v.188l.023.135v.105l.022.067.029.045.068.022.06.007.15.008h.165l.157.007.233.007.218-.007ZM83.527,95.175l.18-.007.195-.022h.128l.143-.015.128-.007.12-.038.074-.045.098-.09.075-.12.03-.06.037-.083.016-.127.015-.15-.015-.12-.038-.12-.067-.143-.075-.09-.06-.053-.061-.038-.037-.022-.083-.03-.225-.038-.278-.007-.202-.007-.091.007h-.337l-.098-.007-.113.007h-.15l-.555.007-.105.03-.03.075.008.127.015.113v.143l-.015.225-.015.285v.166l.029.203.061.03.037.015.158.007h.277l.232.008.181-.008.195.015.218-.015Z"/><path class="cls-3" d="M87.305,96.001l-.143-.038-.105-.105-.029-.105.007-.172v-.3l.008-.18-.015-.12.007-.173-.015-.188.008-.098.007-.083-.022-.128v-.232l.016-.18-.016-.15.022-.135-.007-.09v-.135l-.022-.135.007-.09v-.12l-.022-.21-.007-.127.022-.225v-.218l.007-.203-.007-.15v-.721l-.008-.15.03-.12.037-.068.045-.045.098-.067.143-.015h.136l.157.007.12.038.061.068.06.098.008.135.008.188v.127l-.008.083.015.127-.007.188v.18l.015.127-.008.188-.007.232v.15l.007.105v.188l.008.166-.008.203.008.353-.015.21v.098l.007.067v.42l.008.12v.391l.015.083v.353l-.007.173-.038.21-.037.083-.038.045-.053.022-.135.053h-.157l-.061.007-.098-.007Z"/><path class="cls-3" d="M89.79,95.986l-.098-.053-.053-.105-.037-.135-.008-.158.008-.165-.008-.15.015-.113-.007-.195v-.338l.007-.165-.007-.18-.016-.083-.007-.165v-.466l.007-.21v-.143l.016-.165.007-.166.016-.195-.016-.195.016-.158v-.345l-.016-.105v-.217l-.007-.188v-.413l.029-.12.022-.053.038-.053.053-.03.09-.022.098-.008.098.015h.143l.12-.007.082.03.046.045.037.067.015.053.008.12.008.15v.113l.015.165v.12l-.015.15-.008.128v.473l.008.166.015.143.008.135.008.226.007.165-.007.053.007.083.008.143-.008.143v.067l-.007.068.007.052-.015.15v.135l-.008.255-.022.166v.172l.008.128.022.18v.06l.008.067.045.06.037.015h.33l.165.007.068-.007.075.007.12.007.149.008h.158l.12-.022.143-.008h.135l.113.008h.149l.091.015h.135l.18-.022h.181l.112.008h.105l.098.022.082.053.083.097.015.053v.338l-.015.075-.022.052-.061.053-.127.067-.105.015-.128-.007h-.39l-.128.022-.098-.008h-.428l-.113-.007-.442.015h-1.449l-.112-.038Z"/><path class="cls-3" d="M97.576,96.024l-.053-.008-.067.008-.173-.015-.149.007-.098-.007-.211.007h-.157l-.143-.007h-.12l-.105.015-.12-.008-.037.008-.165-.015h-.226l-.248-.007-.27.007h-.24l-.12-.007-.12-.068-.091-.15-.015-.18v-.533l-.008-.233.008-.172v-.233l-.008-.143-.007-.158-.008-.075v-.105l.008-.112v-.18l-.008-.023.008-.067-.008-.09v-.068l-.008-.18.008-.315.008-.21v-.127l-.008-.218v-.488l-.015-.127.007-.098v-.09l.008-.143v-.083l.008-.143.007-.203.03-.098.053-.083.083-.053.06-.03.083-.015h.217l.315.015h.496l.21-.007.157-.008.233-.007h.487l.166.022h.165l.12-.015.21.008.12.007.3-.015.083.008.112-.008.12.015.113.045.06.09.045.15.016.158-.008.098-.045.135-.083.105-.082.03-.173.015-.271.008-.157.007-.068-.007-.24.015h-.353l-.285-.007-.173-.007h-.075l-.149.015-.398.008h-.135l-.165.007h-.143l-.136.038-.022.12-.007.127-.016.053v.127l-.008.173.016.188-.008.195.038.173.09.052h.06l.165.023.195-.015h.128l.157.015.166-.015.57-.008h.413l.112.008.128.038.09.09.03.083.015.075.008.06.015.173-.022.157-.053.09-.15.075h-.397l-.436.022-.24-.007h-.082l-.309-.008-.09.008-.135-.008-.181.008-.09.015-.098.03-.053.045-.007.105-.008.113-.015.127v.166l.007.112v.143l-.007.12v.203l.067.195.21.09h.525l.21-.008.211.008.428-.008.157-.015h.45l.091.015h.143l.232.008.188.015h.098l.061.015.067.045.045.068.022.135-.008.158v.09l-.015.083-.03.09-.045.06-.053.03-.075.022-.375.038-.195.022h-.21l-.15-.007Z"/><path class="cls-3" d="M102.466,96.008l-.15-.075-.067-.143-.008-.165-.015-.083v-.15l.015-.135-.007-.15-.008-.165.008-.143-.016-.195v-.203l.008-.105-.015-.203.007-.255v-.12l-.015-.21v-.285l.008-.098.007-.21v-.292l-.007-.3v-.451l.007-.097v-.383l-.007-.172-.016-.15v-.127l.016-.06.052-.083.061-.045.143-.022.15-.015h.052l.113-.008.135.022.061.038.053.053.052.113.083.127.09.165.083.18.135.233.098.18.09.195.143.285.091.15.082.188.083.143.037.075.038.067.045.09.075.18.104.188.075.15.045.098.038.075.052.09.083.158.083.173.074.112.068.128.037.098.045.022.038-.022.052-.075.053-.083.053-.098.09-.188.083-.166.045-.098.061-.09.045-.053.022-.06.022-.067.075-.113.052-.112.046-.068.067-.127.075-.158.067-.143.067-.15.067-.135.075-.113.083-.18.098-.18.09-.203.112-.225.067-.143.022-.083.061-.105.03-.09.074-.15.113-.18.09-.06.09-.03.338-.03.136.015.12.045.045.068.015.052.015.12v.758l-.007.158.007.173v.675l.008.188v.105l-.008.158.023.225-.008.18.015.233v.57l-.007.188v.12l-.008.097.008.166.007.15-.007.195.007.225-.015.166-.038.135-.045.053-.075.045-.06.022-.09.022-.128-.007h-.098l-.075-.015-.075-.022-.09-.045-.098-.21-.022-.232.008-.158v-.248l-.008-.315v-.623l-.022-.248.015-.165v-.12l.008-.165v-.143l-.008-.083v-.195l-.007-.022-.022-.015-.016.015-.037.052-.022.068-.053.09-.037.075-.046.075-.052.105-.068.15-.074.166-.083.12-.075.127-.067.135-.053.112-.083.15-.112.21-.053.128-.052.143-.098.18-.038.09-.037.053-.03.067-.037.06-.03.06-.083.158-.067.143-.015.045-.068.098-.135.097-.098.015-.09.008-.105.007-.104-.007-.083-.038-.082-.113-.091-.188-.06-.113-.061-.135-.082-.18-.075-.135-.045-.105-.03-.067-.037-.075-.158-.263-.037-.053-.075-.165-.075-.158-.037-.075-.083-.127-.09-.21-.075-.15-.053-.12-.09-.15-.09-.195-.091-.165-.053-.06-.022.022v.112l-.007.173v.127l.007.06v.098l-.007.113.015.218v.15l-.008.286-.007.12v.323l.007.18-.007.127.015.135v.105l.015.165v.135l-.022.21-.022.083-.075.098-.247.067h-.165l-.128-.038Z"/><path class="cls-3" d="M109.397,96.099l-.098-.023-.136-.067-.104-.083-.075-.09-.03-.09v-.135l.067-.135.045-.112.038-.083.045-.09.067-.158.045-.12.143-.285.075-.165.067-.173.12-.232.075-.173.053-.105.053-.113.06-.127.105-.271.09-.158.061-.165.104-.225.12-.278.068-.15.112-.285.082-.173.038-.112.067-.128.053-.105.015-.06.03-.075.037-.105.053-.075.045-.09.045-.083.03-.06.053-.09.09-.075.188-.038h.202l.098.022.083.075.052.098.046.09.074.173.075.165.143.278.045.12.053.098.045.135.061.135.037.105.053.105.083.188.082.165.053.135.053.09.03.083.052.112.068.12.045.12.045.128.045.075.037.098.075.135.061.15.098.232.135.255.075.18.053.112.03.068.029.098.091.18.067.143.037.06.067.143.053.158.038.127-.03.166-.083.097-.149.075-.264.068-.172-.038-.068-.06-.074-.075-.022-.098-.068-.143-.082-.173-.045-.083-.067-.15-.083-.173-.03-.067-.053-.09-.067-.12-.053-.098-.075-.052-.149-.015-.188.007h-.879l-.248-.007-.194.015-.105-.008-.128.015-.12.007-.098.053-.045.067-.15.3-.074.135-.023.083-.037.075-.045.105-.061.128-.037.112-.075.12-.09.135-.083.067-.12.03-.127-.007ZM112.062,93.817l.007-.008.022-.007.03-.068-.022-.135-.045-.113-.165-.293-.075-.143-.098-.24-.06-.143-.053-.135-.083-.195-.09-.075-.061.12-.06.188-.128.286-.098.203-.067.188-.06.135-.075.15-.008.06-.015.068v.075l.053.053.127.007h.136l.21.015.503.015.173-.007Z"/><path class="cls-3" d="M118.956,96.068l-.075-.038-.061-.052-.082-.09-.09-.127-.061-.075-.06-.083-.061-.09-.067-.098-.045-.075-.061-.075-.082-.12-.12-.135-.083-.105-.067-.098-.098-.12-.112-.135-.09-.127-.121-.143-.074-.105-.045-.061-.053-.037-.075-.053-.075-.038-.083-.015-.098-.015-.067.007-.465-.015-.181.015-.15.053-.037.12-.015.203-.016.172-.008.09-.007.195v.15l.007.21-.007.06v.143l-.008.127v.158l-.015.105-.016.12-.037.075-.037.045-.046.022-.075.022h-.09l-.135.015-.165-.015-.083-.015-.075-.03-.067-.12-.037-.105v-.18l-.008-.18-.008-.075.022-.292v-.18l-.007-.15-.016-.12v-.51l.008-.143.008-.09-.008-.06v-.345l.008-.143v-.293l-.008-.158v-.105l.015-.075-.015-.09v-.15l-.008-.052.008-.045.008-.075v-.135l-.008-.03.015-.112v-.36l-.015-.075.015-.075-.022-.143v-.135l.008-.15.03-.128.045-.067.045-.038.083-.045.217-.03.331.015.263-.007.173-.008h.12l.082.008.128-.008.173-.007.383.007h.098l.143-.007h.345l.173.007.405.038.091.022.135.045.173.075.188.113.105.105.06.068.112.12.068.127.037.12.053.127.037.105.03.06.015.067.016.06-.008.09.008.098.007.18.008.233-.008.113-.015.06-.022.083-.03.083-.053.15-.074.173-.046.067-.045.075-.082.09-.075.067-.075.083-.128.083-.09.045-.128.09-.157.067-.045.045.007.037.008.03.045.075.083.135.104.128.075.09.038.068.06.067.226.323.082.105.091.12.075.09.06.098.083.105.053.135-.016.053-.03.097-.09.15-.104.067-.128.09-.165.067-.075-.022ZM117.942,93.11l.067-.007.083-.007.06-.008.075.008.067-.03.053-.022.067-.022.045-.038.053-.053.045-.06.061-.158.03-.158.015-.067.008-.112.015-.09-.015-.113-.038-.135-.037-.12-.09-.143-.128-.083-.105-.03-.143-.045-.143-.008-.112-.007-.067-.008h-.068l-.082-.007-.09.015h-.503l-.105-.008h-.12l-.135.008-.113-.022h-.232l-.181.022-.045.015-.022.052-.007.098-.008.195v.24l-.008.173.008.24-.008.225.022.135.113.067.097.022.098.007.136-.015.082.015.165.008h.158l.045.007.165-.007h.203l.315.03h.255Z"/><path class="cls-3" d="M121.314,96.001l-.143-.038-.105-.105-.029-.105.007-.172v-.3l.008-.18-.015-.12.007-.173-.015-.188.008-.098.007-.083-.022-.128v-.232l.016-.18-.016-.15.022-.135-.007-.09v-.135l-.022-.135.007-.09v-.12l-.022-.21-.007-.127.022-.225v-.218l.007-.203-.007-.15v-.721l-.008-.15.03-.12.037-.068.045-.045.098-.067.143-.015h.136l.157.007.12.038.061.068.06.098.008.135.008.188v.127l-.008.083.015.127-.007.188v.18l.015.127-.008.188-.007.232v.15l.007.105v.188l.008.166-.008.203.008.353-.015.21v.098l.007.067v.42l.008.12v.391l.015.083v.353l-.007.173-.038.21-.037.083-.038.045-.053.022-.135.053h-.157l-.061.007-.098-.007Z"/><path class="cls-3" d="M127.688,96.008l-.24.007-.157-.03-.098-.068-.105-.135-.128-.173-.3-.428-.143-.188-.075-.105-.165-.248-.181-.255-.135-.173-.112-.127-.075-.113-.067-.067-.158-.225-.098-.12-.067-.068-.053-.098-.09-.097-.173-.233-.143-.21-.09-.12-.098-.105-.061-.083-.045-.045-.075-.03-.067.038-.008.143.008.173v.15l-.008.157.016.233v.308l.008.308.007.188.022.143-.007.233v.315l-.016.21v.113l-.007.158.007.12-.007.097v.135l-.016.12-.053.098-.075.053-.067.022-.12.022h-.098l-.052.007-.158-.007-.157-.105-.061-.113-.022-.12.008-.135.015-.143-.008-.143v-.098l-.007-.135v-.143l.015-.105-.008-.195-.015-.143-.022-.143.008-.225v-.127l-.008-.128.008-.135v-.083l.015-.21v-.226l-.015-.112v-.067l.015-.12-.015-.135v-.053l.015-.135-.008-.188.008-.165-.015-.128.007-.075-.007-.098-.008-.15-.008-.135v-.203l.008-.143.008-.09v-.075l.015-.12.015-.098.038-.03.135-.075.113-.008.143-.007.165.015.157.03.098.068.12.15.075.113.128.18.104.165.098.12.098.15.105.135.045.06.075.135.082.105.128.143.098.135.083.09.149.18.181.24.112.18.181.24.075.083.06.09.098.143.135.157.136.21.075.09.052.068.075.06h.083l.022-.038.015-.165.008-.158v-.751l.015-.21v-.135l-.007-.143v-.135l.015-.105v-.503l-.015-.075.007-.12-.007-.15v-.12l-.008-.112v-.21l.008-.143.037-.135.061-.045.082-.045.067-.015.098-.007.083-.022h.218l.09.045.067.075.053.12.015.195-.015.172-.008.083.016.143-.008.113.008.105-.008.113.008.075v.292l.007.218v.391l.022.112v.068l-.015.097.015.158-.007.083.007.068-.022.083v.886l-.007.21.007.112v.849l.022.127-.015.18-.083.075-.06.022-.075.015-.165-.015Z"/><path class="cls-3" d="M132.667,96.024l-.053-.008-.067.008-.173-.015-.149.007-.098-.007-.211.007h-.157l-.143-.007h-.12l-.105.015-.12-.008-.037.008-.165-.015h-.226l-.248-.007-.27.007h-.24l-.12-.007-.12-.068-.091-.15-.015-.18v-.533l-.008-.233.008-.172v-.233l-.008-.143-.007-.158-.008-.075v-.105l.008-.112v-.18l-.008-.023.008-.067-.008-.09v-.068l-.008-.18.008-.315.008-.21v-.127l-.008-.218v-.488l-.015-.127.007-.098v-.09l.008-.143v-.083l.008-.143.007-.203.03-.098.053-.083.082-.053.061-.03.083-.015h.218l.314.015h.496l.21-.007.157-.008.233-.007h.487l.166.022h.165l.12-.015.21.008.12.007.3-.015.083.008.112-.008.12.015.113.045.06.09.045.15.016.158-.008.098-.045.135-.083.105-.082.03-.173.015-.271.008-.157.007-.067-.007-.24.015h-.354l-.285-.007-.173-.007h-.075l-.149.015-.398.008h-.135l-.165.007h-.143l-.136.038-.022.12-.008.127-.015.053v.127l-.008.173.016.188-.008.195.038.173.09.052h.06l.165.023.195-.015h.128l.157.015.166-.015.57-.008h.413l.112.008.128.038.09.09.03.083.015.075.008.06.015.173-.022.157-.053.09-.15.075h-.397l-.436.022-.24-.007h-.082l-.309-.008-.09.008-.135-.008-.181.008-.09.015-.098.03-.053.045-.007.105-.008.113-.016.127v.166l.008.112v.143l-.008.12v.203l.068.195.21.09h.525l.21-.008.211.008.428-.008.157-.015h.45l.091.015h.143l.232.008.188.015h.098l.061.015.067.045.045.068.022.135-.008.158v.09l-.015.083-.03.09-.045.06-.053.03-.075.022-.375.038-.195.022h-.21l-.15-.007Z"/><path class="cls-3" d="M139.148,96.113l-.098-.015-.128-.023-.202-.03-.226-.075-.15-.053-.285-.12-.203-.112-.09-.067-.128-.09-.21-.188-.165-.143-.09-.143-.067-.127v-.15l.067-.128.082-.105.128-.068.075-.022.075-.03h.098l.098.022.075.045.18.166.03.052.03.03.218.172.09.068.082.038.15.083.165.06.12.06.105.03.075.015h.06l.061-.007.067.015.045-.007.112.007.181.008.112-.03h.112l.091-.015.098-.007.082-.022.061-.03.098-.03.127-.075.165-.135.105-.127.022-.06.045-.113.016-.143-.022-.188-.128-.203-.15-.09-.082-.038-.113-.037-.104-.03-.113-.015-.112-.03-.105-.015-.097-.022-.105-.007-.158-.03-.157-.015-.083-.022-.157-.015-.3-.052-.105-.022-.09-.03-.15-.038-.15-.052-.105-.045-.119-.045-.166-.083-.12-.075-.029-.015-.083-.067-.098-.09-.053-.045-.045-.06-.06-.09-.038-.067-.075-.12-.075-.293v-.218l.016-.127.022-.173.03-.113.029-.075.038-.075.03-.068.052-.083.083-.112.232-.233.075-.038.105-.075.128-.061.097-.075.083-.045.067-.03.067-.007.075-.045.271-.075.143-.022.173-.023.082-.015.098-.008.165-.015.15.008h.067l.053.007.263.022.045.015h.061l.075.015.067.015.09.015.195.075.075.045.067.03.098.06.188.083.105.098.165.127.143.15.128.18.067.127-.015.225-.016.045-.029.052-.061.053-.135.083-.143.053-.12-.008-.12-.052-.075-.053-.083-.083-.128-.135-.104-.09-.067-.053-.128-.067-.083-.068-.172-.075-.12-.03-.203-.022-.135-.008-.203.008-.18.015-.15.007-.226.045-.218.098-.09.053-.12.083-.15.135-.045.112-.03.09-.007.135.029.135.046.12.037.053.061.045.104.083.158.06.232.068.143.03.09.022.083.008.098.015.067.015.082.038h.053l.075.007h.15l.09.023.128.022.15.037.074.023.075.007.03.022.195.022.346.09.165.075.157.068.128.098.045.045.105.075.112.127.045.09.045.083.03.052.015.06.045.12.016.105.007.03.016.015.008.105v.278l-.03.173-.03.12-.037.105-.038.075-.015.052-.053.09-.067.098-.061.067-.053.067-.037.038-.053.068-.067.067-.09.06-.128.083-.075.045-.053.03-.074.038-.075.03-.053.022-.105.03-.15.052-.194.045-.181.015-.112.015-.15.008h-.293l-.18-.008Z"/><path class="cls-3" d="M145.479,96.113h-.128l-.112-.007-.15-.022h-.188l-.135-.038-.075-.015-.098-.022-.135-.053-.181-.067-.15-.083-.075-.038-.082-.053-.098-.052-.067-.053-.075-.045-.105-.098-.127-.113-.083-.083-.271-.323-.104-.203-.091-.165-.098-.173-.045-.165-.037-.098-.038-.18-.029-.15-.008-.09-.022-.127-.008-.105.008-.127v-.218l.022-.143.015-.135.061-.188.022-.12.06-.173.075-.195.068-.105.074-.165.143-.225.128-.173.075-.067.053-.068.075-.083.075-.075.06-.03.083-.083.202-.113.181-.09.21-.098.157-.045.098-.045.203-.067.188-.03.12-.022.181.008.263-.008.18.015h.083l.135.022.15.038.098.022.067.03.112.038.105.038.105.052.119.068.158.083.21.135.158.128.157.15.188.226.12.143.053.075.045.09.053.075.067.135.075.173.045.15.038.12.015.067.03.098.037.188.016.12v.105l.007.12-.015.128-.016.195-.015.12-.008.12-.022.15-.022.09-.029.128-.068.18-.06.165-.067.143-.053.09-.038.075-.06.075-.053.068-.045.067-.03.053-.045.052-.082.083-.098.075-.068.067-.052.045-.068.052-.06.053-.075.045-.053.045-.09.061-.15.083-.165.097-.128.053-.082.03-.158.052-.188.053-.157.022h-.218l-.173-.015ZM145.733,95.243l.098-.008.046-.007.037-.022.03-.015.098-.015.098-.045.09-.03.143-.075.15-.098.194-.143.113-.12.037-.045.061-.09.112-.143.15-.225.045-.166.03-.143.022-.165.015-.203.016-.105-.016-.195-.053-.271-.053-.172-.074-.158-.038-.127-.045-.083-.06-.12-.091-.113-.052-.068-.083-.083-.255-.203-.24-.143-.143-.06-.158-.045-.06-.015-.098-.03-.128-.03h-.413l-.112.022-.136.015-.172.053-.248.105-.421.24-.074.083-.061.075-.045.038-.09.127-.068.127-.037.053-.03.083-.052.098-.046.12-.037.12-.015.105-.038.166-.015.188.007.09.008.105.015.12v.112l.008.038.022.083.03.135.022.113.09.165.181.27.143.18.053.06.12.105.149.097.053.03.03.015.135.075.158.075.128.038.21.038.21.03.18.007.218-.022Z"/><path class="cls-3" d="M149.677,95.986l-.098-.053-.053-.105-.037-.135-.008-.158.008-.165-.008-.15.015-.113-.007-.195v-.338l.007-.165-.007-.18-.016-.083-.007-.165v-.466l.007-.21v-.143l.016-.165.007-.166.016-.195-.016-.195.016-.158v-.345l-.016-.105v-.217l-.007-.188v-.413l.029-.12.022-.053.038-.053.053-.03.09-.022.098-.008.098.015h.143l.12-.007.082.03.046.045.037.067.015.053.008.12.008.15v.113l.015.165v.12l-.015.15-.008.128v.473l.008.166.015.143.008.135.008.226.007.165-.007.053.007.083.008.143-.008.143v.067l-.007.068.007.052-.015.15v.135l-.008.255-.022.166v.172l.008.128.022.18v.06l.008.067.045.06.037.015h.33l.165.007.068-.007.075.007.12.007.149.008h.158l.12-.022.143-.008h.135l.113.008h.149l.091.015h.135l.18-.022h.181l.112.008h.105l.098.022.082.053.083.097.015.053v.338l-.015.075-.022.052-.061.053-.127.067-.105.015-.128-.007h-.39l-.128.022-.098-.008h-.428l-.113-.007-.442.015h-1.449l-.112-.038Z"/><path class="cls-3" d="M155.983,96.129l-.09-.022-.098-.022-.098-.015-.127-.03-.166-.06-.112-.053-.075-.022-.112-.075-.105-.053-.082-.067-.098-.083-.053-.075-.09-.09-.098-.12-.053-.098-.037-.075-.023-.067-.029-.113-.053-.158-.037-.143-.008-.083-.022-.06.007-.12v-.255l-.015-.112v-.045l-.008-.083-.007-.135.015-.135.008-.143v-.135l-.016-.12.022-.053-.007-.075v-.203l-.008-.083v-.067l-.015-.098v-.315l.007-.098v-.067l-.007-.105-.008-.098v-.533l-.008-.105.016-.105-.008-.135.008-.135.015-.113.03-.06.075-.053.143-.045h.12l.082-.015.075.015.105.03.09.03.075.06.022.083-.008.083.016.075.007.127v.12l-.015.038.008.075v.203l.015.098v.127l.008.06.007.083-.015.075v.083l-.008.075.008.203v.195l.008.045.007.06-.007.045v.083l-.008.083.015.068-.007.135-.008.143.008.052v.09l-.008.06.015.075-.007.12-.008.127v.172l.015.226.008.172.038.143.037.18.112.173.083.105.06.045.113.075.135.068.098.038.112.038.098.022.098.015.128.008h.06l.188.007.314-.022.128-.038.158-.053.143-.052.067-.06.09-.083.061-.075.029-.022.045-.083.038-.098.015-.067.016-.075.015-.09.015-.098v-.15l.016-.105-.008-.038.015-.053-.007-.083.007-.188v-.18l.016-.15v-.18l-.016-.105v-.09l-.007-.143v-.292l-.008-.09v-.233l-.008-.075-.007-.158v-.128l.015-.21v-.173l-.008-.12v-.12l-.007-.172.015-.158.03-.143.06-.068.067-.03.105-.022.128-.015h.104l.105.015.12.052.112.098.038.158.015.12v.135l.008.12-.008.195v.443l-.008.203-.015.12-.008.127v.12l.008.105-.008.15.008.195v.548l-.008.135v.18l.008.165-.008.18-.007.113-.022.188-.022.15-.022.083-.053.18-.053.143-.067.127-.083.128-.112.188-.128.143-.03.022-.06.038-.075.038-.06.038-.12.052-.158.075-.143.045-.135.023-.091.03-.285.038-.149.03h-.571l-.098-.03Z"/><path class="cls-3" d="M161.796,96.053h-.127l-.075-.015-.105-.06-.037-.045-.045-.045-.03-.143v-.158l.008-.113v-.112l.015-.143-.008-.188.008-.143v-.158l.008-.127-.008-.293v-.525l-.015-.18v-.06l.007-.083v-.398l-.015-.127v-.203l.008-.24v-.158l.007-.06-.015-.075.008-.12v-.098l-.008-.06v-.083l-.015-.128-.038-.09-.03-.022-.157-.008-.181.015-.06.008-.098-.008h-.135l-.48-.015-.158.008-.104-.022-.068-.053-.06-.067-.045-.105-.016-.18.022-.203.068-.127.09-.06.09-.03.105-.007.12-.022h.09l.06.007h.376l.037.008h.436l.098.007h.173l.165.007h.203l.18-.007.143-.007.15.007.18-.007.195.007.721.015.181.015.15.022.165.127.052.18v.098l.008.067-.022.105-.022.06-.03.045-.052.06-.144.045-.232.03-.255-.008-.195.015-.541-.015-.12.03-.045.067-.007.158v.173l.007.143-.007.15v.128l-.016.158-.008.18v.075l.008.09.008.083-.008.053.008.097v.166l-.016.075.016.06-.008.083.008.083-.016.083-.007.112v.105l-.008.12v.105l-.015.075.015.045-.015.113.007.203v.112l.008.068-.015.083.007.067-.007.068v.188l.007.12-.015.098v.067l.022.053.015.075.008.083-.015.09-.03.09-.045.083-.053.022-.067.03-.067.022-.083.038-.15-.022Z"/><path class="cls-3" d="M165.514,96.001l-.143-.038-.105-.105-.029-.105.007-.172v-.3l.008-.18-.015-.12.007-.173-.015-.188.008-.098.007-.083-.022-.128v-.232l.016-.18-.016-.15.022-.135-.007-.09v-.135l-.022-.135.007-.09v-.12l-.022-.21-.007-.127.022-.225v-.218l.007-.203-.007-.15v-.721l-.008-.15.03-.12.037-.068.045-.045.098-.067.143-.015h.136l.157.007.12.038.061.068.06.098.008.135.008.188v.127l-.008.083.015.127-.007.188v.18l.015.127-.008.188-.007.232v.15l.007.105v.188l.008.166-.008.203.008.353-.015.21v.098l.007.067v.42l.008.12v.391l.015.083v.353l-.007.173-.038.21-.037.083-.038.045-.053.022-.135.053h-.157l-.061.007-.098-.007Z"/><path class="cls-3" d="M170.229,96.113h-.128l-.112-.007-.15-.022h-.188l-.135-.038-.075-.015-.098-.022-.135-.053-.181-.067-.15-.083-.075-.038-.082-.053-.098-.052-.067-.053-.075-.045-.105-.098-.127-.113-.083-.083-.271-.323-.104-.203-.091-.165-.098-.173-.045-.165-.037-.098-.038-.18-.029-.15-.008-.09-.022-.127-.008-.105.008-.127v-.218l.022-.143.015-.135.061-.188.022-.12.06-.173.075-.195.068-.105.074-.165.143-.225.128-.173.075-.067.053-.068.075-.083.075-.075.06-.03.083-.083.202-.113.181-.09.21-.098.157-.045.098-.045.203-.067.188-.03.12-.022.181.008.263-.008.18.015h.083l.135.022.15.038.098.022.067.03.112.038.105.038.105.052.119.068.158.083.21.135.158.128.157.15.188.226.12.143.053.075.045.09.053.075.067.135.075.173.045.15.038.12.015.067.03.098.037.188.016.12v.105l.007.12-.015.128-.016.195-.015.12-.008.12-.022.15-.022.09-.029.128-.068.18-.06.165-.067.143-.053.09-.038.075-.06.075-.053.068-.045.067-.03.053-.045.052-.082.083-.098.075-.068.067-.052.045-.068.052-.06.053-.075.045-.053.045-.09.061-.15.083-.165.097-.128.053-.082.03-.158.052-.188.053-.157.022h-.218l-.173-.015ZM170.483,95.243l.098-.008.046-.007.037-.022.03-.015.098-.015.098-.045.09-.03.143-.075.15-.098.194-.143.113-.12.037-.045.061-.09.112-.143.15-.225.045-.166.03-.143.022-.165.015-.203.016-.105-.016-.195-.053-.271-.053-.172-.074-.158-.038-.127-.045-.083-.06-.12-.091-.113-.052-.068-.083-.083-.255-.203-.24-.143-.143-.06-.158-.045-.06-.015-.098-.03-.128-.03h-.413l-.112.022-.136.015-.172.053-.248.105-.421.24-.074.083-.061.075-.045.038-.09.127-.068.127-.037.053-.03.083-.052.098-.046.12-.037.12-.015.105-.038.166-.015.188.007.09.008.105.015.12v.112l.008.038.022.083.03.135.022.113.09.165.181.27.143.18.053.06.12.105.149.097.053.03.03.015.135.075.158.075.128.038.21.038.21.03.18.007.218-.022Z"/><path class="cls-3" d="M178.315,96.008l-.24.007-.157-.03-.098-.068-.105-.135-.128-.173-.3-.428-.143-.188-.075-.105-.165-.248-.181-.255-.135-.173-.112-.127-.075-.113-.067-.067-.158-.225-.098-.12-.067-.068-.053-.098-.09-.097-.173-.233-.143-.21-.09-.12-.098-.105-.061-.083-.045-.045-.075-.03-.067.038-.008.143.008.173v.15l-.008.157.016.233v.308l.008.308.007.188.022.143-.007.233v.315l-.016.21v.113l-.007.158.007.12-.007.097v.135l-.016.12-.053.098-.075.053-.067.022-.12.022h-.098l-.052.007-.158-.007-.157-.105-.061-.113-.022-.12.008-.135.015-.143-.008-.143v-.098l-.007-.135v-.143l.015-.105-.008-.195-.015-.143-.022-.143.008-.225v-.127l-.008-.128.008-.135v-.083l.015-.21v-.226l-.015-.112v-.067l.015-.12-.015-.135v-.053l.015-.135-.008-.188.008-.165-.015-.128.007-.075-.007-.098-.008-.15-.008-.135v-.203l.008-.143.008-.09v-.075l.015-.12.015-.098.038-.03.135-.075.113-.008.143-.007.165.015.157.03.098.068.12.15.075.113.128.18.104.165.098.12.098.15.105.135.045.06.075.135.082.105.128.143.098.135.083.09.149.18.181.24.112.18.181.24.075.083.06.09.098.143.135.157.136.21.075.09.052.068.075.06h.083l.022-.038.015-.165.008-.158v-.751l.015-.21v-.135l-.007-.143v-.135l.015-.105v-.503l-.015-.075.007-.12-.007-.15v-.12l-.008-.112v-.21l.008-.143.037-.135.061-.045.082-.045.067-.015.098-.007.083-.022h.218l.09.045.067.075.053.12.015.195-.015.172-.008.083.016.143-.008.113.008.105-.008.113.008.075v.292l.007.218v.391l.022.112v.068l-.015.097.015.158-.007.083.007.068-.022.083v.886l-.007.21.007.112v.849l.022.127-.015.18-.083.075-.06.022-.075.015-.165-.015Z"/><path class="cls-3" d="M182.154,96.113l-.098-.015-.128-.023-.202-.03-.226-.075-.15-.053-.285-.12-.203-.112-.09-.067-.128-.09-.21-.188-.165-.143-.09-.143-.067-.127v-.15l.067-.128.082-.105.128-.068.075-.022.075-.03h.098l.098.022.075.045.18.166.03.052.03.03.218.172.09.068.082.038.15.083.165.06.12.06.105.03.075.015h.06l.061-.007.067.015.045-.007.112.007.181.008.112-.03h.112l.091-.015.098-.007.082-.022.061-.03.098-.03.127-.075.165-.135.105-.127.022-.06.045-.113.016-.143-.022-.188-.128-.203-.15-.09-.082-.038-.113-.037-.104-.03-.113-.015-.112-.03-.105-.015-.097-.022-.105-.007-.158-.03-.157-.015-.083-.022-.157-.015-.3-.052-.105-.022-.09-.03-.15-.038-.15-.052-.105-.045-.119-.045-.166-.083-.12-.075-.029-.015-.083-.067-.098-.09-.053-.045-.045-.06-.06-.09-.038-.067-.075-.12-.075-.293v-.218l.016-.127.022-.173.03-.113.029-.075.038-.075.03-.068.052-.083.083-.112.232-.233.075-.038.105-.075.128-.061.097-.075.083-.045.067-.03.067-.007.075-.045.271-.075.143-.022.173-.023.082-.015.098-.008.165-.015.15.008h.067l.053.007.263.022.045.015h.061l.075.015.067.015.09.015.195.075.075.045.067.03.098.06.188.083.105.098.165.127.143.15.128.18.067.127-.015.225-.016.045-.029.052-.061.053-.135.083-.143.053-.12-.008-.12-.052-.075-.053-.083-.083-.128-.135-.104-.09-.067-.053-.128-.067-.083-.068-.172-.075-.12-.03-.203-.022-.135-.008-.203.008-.18.015-.15.007-.226.045-.218.098-.09.053-.12.083-.15.135-.045.112-.03.09-.007.135.029.135.046.12.037.053.061.045.104.083.158.06.232.068.143.03.09.022.083.008.098.015.067.015.082.038h.053l.075.007h.15l.09.023.128.022.15.037.074.023.075.007.03.022.195.022.346.09.165.075.157.068.128.098.045.045.105.075.112.127.045.09.045.083.03.052.015.06.045.12.016.105.007.03.016.015.008.105v.278l-.03.173-.03.12-.037.105-.038.075-.015.052-.053.09-.067.098-.061.067-.053.067-.037.038-.053.068-.067.067-.09.06-.128.083-.075.045-.053.03-.074.038-.075.03-.053.022-.105.03-.15.052-.194.045-.181.015-.112.015-.15.008h-.293l-.18-.008Z"/><path class="cls-3" d="M96.001,105.11l-.098-.022-.136-.067-.104-.083-.075-.09-.03-.09v-.135l.067-.135.045-.112.038-.083.045-.09.067-.158.045-.12.143-.285.075-.165.067-.173.12-.233.075-.172.053-.105.053-.113.06-.127.105-.271.09-.158.061-.165.104-.225.12-.278.068-.15.112-.285.082-.172.038-.113.067-.127.053-.105.015-.06.03-.075.037-.105.053-.075.045-.09.045-.083.03-.06.053-.09.09-.075.188-.038h.202l.098.022.083.075.052.097.046.09.074.173.075.165.143.278.045.12.053.098.045.135.061.135.037.105.053.105.083.188.082.165.053.135.053.09.03.083.052.112.068.12.045.12.045.128.045.075.037.098.075.135.061.15.098.233.135.255.075.18.053.113.03.067.029.098.091.18.067.143.037.06.067.143.053.158.038.127-.03.165-.083.098-.149.075-.264.067-.172-.037-.068-.06-.074-.075-.022-.098-.068-.143-.082-.173-.045-.083-.067-.15-.083-.173-.03-.067-.053-.09-.067-.12-.053-.098-.075-.052-.149-.015-.188.007h-.879l-.248-.007-.194.015-.105-.008-.128.015-.12.007-.098.053-.045.067-.15.3-.074.135-.023.083-.037.075-.045.105-.061.128-.037.112-.075.12-.09.135-.083.067-.12.03-.127-.008ZM98.666,102.827l.007-.007.022-.007.03-.068-.022-.135-.045-.113-.165-.293-.075-.143-.098-.24-.06-.143-.053-.135-.083-.195-.09-.075-.061.12-.06.188-.128.285-.098.203-.067.188-.06.135-.075.15-.008.06-.015.068v.075l.053.053.127.007h.136l.21.015.503.015.173-.008Z"/><path class="cls-3" d="M105.867,105.02l-.24.007-.157-.03-.098-.067-.105-.135-.128-.173-.3-.428-.143-.188-.075-.105-.165-.248-.181-.255-.135-.173-.112-.127-.075-.113-.068-.067-.157-.225-.098-.12-.067-.068-.053-.097-.09-.098-.173-.233-.143-.21-.09-.12-.098-.105-.061-.083-.045-.045-.075-.03-.067.038-.008.143.008.173v.15l-.008.158.016.233v.308l.007.308.008.188.022.143-.007.233v.315l-.016.21v.113l-.008.158.008.12-.008.098v.135l-.015.12-.053.098-.075.053-.067.022-.12.022h-.098l-.053.007-.157-.007-.157-.105-.061-.113-.022-.12.008-.135.015-.143-.008-.143v-.098l-.007-.135v-.143l.015-.105-.008-.195-.015-.143-.022-.143.008-.225v-.128l-.008-.127.008-.135v-.083l.015-.21v-.225l-.015-.113v-.068l.015-.12-.015-.135v-.053l.015-.135-.008-.188.008-.165-.015-.128.007-.075-.007-.098-.008-.15-.008-.135v-.203l.008-.143.008-.09v-.075l.015-.12.015-.098.038-.03.135-.075.113-.007.143-.008.165.015.157.03.098.068.12.15.075.113.128.18.104.165.098.12.098.15.105.135.045.06.075.135.082.105.128.143.098.135.083.09.149.18.181.24.112.18.181.24.074.083.061.09.098.143.135.158.136.21.075.09.052.068.075.06h.083l.022-.038.015-.165.008-.158v-.751l.015-.21v-.135l-.007-.143v-.135l.015-.105v-.503l-.015-.075.007-.12-.007-.15v-.12l-.008-.113v-.21l.008-.143.037-.135.061-.045.082-.045.067-.015.098-.007.083-.022h.218l.09.045.067.075.053.12.015.195-.015.173-.008.083.016.143-.008.113.008.105-.008.113.008.075v.292l.007.218v.391l.022.112v.068l-.015.098.015.157-.007.083.007.067-.022.083v.886l-.007.21.007.112v.849l.022.127-.015.18-.082.075-.061.022-.075.015-.165-.015Z"/><path class="cls-3" d="M108.451,105.042l-.195-.015-.173-.038-.082-.052-.038-.045-.03-.098-.022-.135v-.24l.008-.09v-.083l.008-.09-.008-.165.015-.18-.015-.233-.008-.21-.007-.181v-.983l.007-.232-.007-.195-.008-.143-.008-.158.008-.195-.008-.218.008-.165v-.248l.015-.226-.022-.21v-.158l.03-.127.067-.098.067-.053.136-.007.218-.007.135.007.083-.007.188.007h.953l.112-.015h.105l.083-.007.195-.008.194.015.105-.007.045.015.067.007.105.007.248.038.112.022.157.06.15.06.09.06.128.083.105.075.104.083.165.173.136.15.075.128.112.18.067.143.053.098.045.112.053.15.037.158.016.06.022.172.022.233.015.113.022.083.008.15-.008.195-.007.18-.03.203-.037.218-.053.18-.068.248-.06.135-.067.15-.045.075-.053.105-.12.165-.128.15-.112.12-.105.09-.112.083-.165.09-.173.083-.067.03-.098.038-.098.03-.293.075-.36.015h-.232l-.24.007-.195-.007-.398.022-.247.008-.21-.008-.143.008-.346-.008ZM110.306,104.194l.188-.03.18-.038.143-.022.188-.075.149-.083.203-.143.15-.165.135-.188.083-.203.052-.203.038-.18.008-.135v-.496l-.016-.218-.022-.165-.03-.143-.052-.18-.053-.15-.061-.105-.067-.105-.135-.166-.218-.18-.173-.097-.105-.045-.277-.075-.105-.008-.188-.007h-.586l-.292-.008-.226.008-.098.022-.135.015-.12.03-.053.053-.015.083-.008.112.008.143v.105l-.008.135-.008.203v.48l.008.188v.503l-.008.21v.518l.016.15.007.195.008.127v.188l.022.097.112.03.105-.015.128.008.149.015h.211l.24.008h.525Z"/><path class="cls-3" d="M116.823,105.042l-.195-.015-.173-.038-.082-.052-.038-.045-.03-.098-.022-.135v-.24l.008-.09v-.083l.008-.09-.008-.165.015-.18-.015-.233-.008-.21-.007-.181v-.983l.007-.232-.007-.195-.008-.143-.008-.158.008-.195-.008-.218.008-.165v-.248l.015-.226-.022-.21v-.158l.03-.127.067-.098.067-.053.136-.007.218-.007.135.007.083-.007.188.007h.953l.113-.015h.104l.083-.007.195-.008.194.015.105-.007.045.015.067.007.105.007.248.038.112.022.157.06.15.06.09.06.128.083.105.075.104.083.166.173.135.15.075.128.112.18.067.143.053.098.045.112.053.15.037.158.016.06.022.172.022.233.015.113.022.083.008.15-.008.195-.007.18-.03.203-.038.218-.052.18-.067.248-.061.135-.067.15-.045.075-.053.105-.12.165-.128.15-.112.12-.105.09-.112.083-.165.09-.173.083-.067.03-.098.038-.098.03-.293.075-.36.015h-.232l-.24.007-.195-.007-.397.022-.248.008-.21-.008-.144.008-.345-.008ZM118.678,104.194l.188-.03.18-.038.143-.022.188-.075.149-.083.203-.143.15-.165.135-.188.083-.203.052-.203.038-.18.008-.135v-.496l-.016-.218-.022-.165-.03-.143-.052-.18-.053-.15-.061-.105-.067-.105-.135-.166-.218-.18-.173-.097-.105-.045-.277-.075-.105-.008-.188-.007h-.586l-.292-.008-.226.008-.098.022-.135.015-.12.03-.053.053-.016.083-.007.112.007.143v.105l-.007.135-.008.203v.48l.008.188v.503l-.008.21v.518l.015.15.008.195.008.127v.188l.022.097.112.03.105-.015.128.008.149.015h.211l.24.008h.525Z"/><path class="cls-3" d="M125.338,105.035l-.053-.008-.067.008-.173-.015-.149.007-.098-.007-.211.007h-.157l-.143-.007h-.12l-.105.015-.12-.008-.037.008-.165-.015h-.226l-.248-.007-.27.007h-.24l-.12-.007-.12-.068-.091-.15-.015-.18v-.533l-.008-.232.008-.173v-.233l-.008-.143-.007-.158-.008-.075v-.105l.008-.112v-.18l-.008-.022.008-.068-.008-.09v-.068l-.008-.18.008-.315.008-.21v-.127l-.008-.218v-.488l-.015-.127.007-.098v-.09l.008-.143v-.083l.008-.143.007-.203.03-.098.053-.083.083-.052.06-.03.083-.015h.217l.315.015h.496l.21-.007.157-.008.233-.007h.487l.166.022h.165l.12-.015.21.008.12.007.3-.015.083.008.112-.008.12.015.113.045.06.09.045.15.016.158-.008.098-.045.135-.083.105-.082.03-.173.015-.271.008-.157.007-.068-.007-.24.015h-.353l-.285-.007-.173-.007h-.075l-.149.015-.398.008h-.135l-.165.007h-.143l-.136.038-.022.12-.007.127-.016.053v.127l-.008.173.016.188-.008.195.038.173.09.052h.06l.165.022.195-.015h.128l.157.015.166-.015.57-.008h.413l.112.008.128.038.09.09.03.083.015.075.008.06.015.173-.022.158-.053.09-.15.075h-.397l-.436.022-.24-.008h-.082l-.309-.007-.09.007-.135-.007-.181.007-.09.015-.098.03-.053.045-.007.105-.008.113-.015.127v.165l.007.113v.143l-.007.12v.203l.067.195.21.09h.525l.21-.008.211.008.428-.008.157-.015h.45l.091.015h.143l.232.008.188.015h.098l.061.015.067.045.045.068.022.135-.008.157v.09l-.015.083-.03.09-.045.061-.053.03-.075.022-.375.038-.195.022h-.21l-.15-.007Z"/><path class="cls-3" d="M127.952,104.997l-.098-.053-.053-.105-.037-.135-.008-.158.008-.165-.008-.15.015-.113-.007-.195v-.338l.007-.165-.007-.18-.016-.083-.007-.165v-.465l.007-.21v-.143l.016-.165.007-.166.016-.195-.016-.195.016-.158v-.345l-.016-.105v-.218l-.007-.188v-.413l.029-.12.022-.053.038-.053.053-.03.09-.022.098-.008.098.015h.143l.12-.007.082.03.046.045.037.068.015.052.008.12.008.15v.113l.015.165v.12l-.015.15-.008.128v.473l.008.166.015.143.008.135.008.225.007.165-.007.053.007.083.008.143-.008.143v.067l-.007.068.007.052-.015.15v.135l-.008.255-.022.166v.172l.008.128.022.18v.06l.008.067.045.06.037.015h.33l.165.007.068-.007.075.007.12.008.149.007h.158l.12-.022.143-.008h.135l.113.008h.149l.091.015h.135l.18-.023h.181l.112.008h.105l.098.022.082.052.083.098.015.053v.338l-.015.075-.022.052-.061.053-.127.067-.105.015-.128-.007h-.39l-.128.022-.098-.008h-.428l-.113-.007-.442.015h-1.449l-.112-.038Z"/><path class="cls-3" d="M133.096,105.012l-.143-.038-.105-.105-.029-.105.007-.172v-.3l.008-.18-.015-.12.007-.173-.015-.188.008-.098.007-.083-.022-.128v-.232l.016-.18-.016-.15.022-.135-.007-.09v-.135l-.022-.135.007-.09v-.12l-.022-.21-.007-.127.022-.225v-.218l.007-.203-.007-.15v-.721l-.008-.15.03-.12.037-.068.045-.045.098-.067.143-.015h.136l.157.007.12.038.061.068.06.097.008.135.008.188v.127l-.008.083.015.128-.007.188v.18l.015.127-.008.188-.007.232v.15l.007.105v.188l.008.166-.008.203.008.353-.015.21v.098l.007.067v.42l.008.12v.391l.015.083v.353l-.007.173-.038.21-.037.083-.038.045-.053.022-.135.053h-.157l-.061.007-.098-.007Z"/><path class="cls-3" d="M137.226,105.027l-.157-.022-.053-.022-.053-.052-.06-.075-.008-.075-.06-.135-.016-.067-.029-.053-.098-.18-.075-.18-.038-.083-.067-.12-.06-.15-.075-.166-.053-.165-.09-.188-.045-.12-.061-.098-.045-.135-.03-.083-.022-.067-.053-.12-.143-.286-.022-.067-.045-.113-.037-.09-.045-.12-.016-.053-.06-.127-.098-.21-.061-.143-.03-.067-.007-.053-.038-.083-.037-.098-.045-.135-.038-.067-.007-.045-.045-.067-.068-.173-.075-.203-.052-.18-.045-.105-.023-.075-.015-.09v-.09l.03-.068.022-.03.104-.053.166-.067.18-.038.105.007.104.053.075.09.038.075.045.098.075.18.12.278.157.338.053.165.053.143.029.06.061.158.053.165.037.053.03.075.06.135.068.158.067.143.037.105.03.075.037.098.075.135.083.18.053.12.045.067.053.12.067.15.053.127.06.075.045.045.045-.015.046-.06.037-.083.045-.067.045-.12.061-.173.053-.09.022-.075.052-.12.038-.098.015-.045.045-.067.053-.105.038-.097.029-.09.03-.067.022-.098.075-.15.053-.12.037-.105.053-.083.045-.098.038-.083.045-.098.037-.098.022-.06.038-.098.06-.105.053-.12.067-.158.075-.158.045-.105.03-.06.022-.067.053-.098.067-.143.083-.113.12-.067.067-.015.128.038.119.045.128.06.045.007.098.105.016.127-.008.045-.03.128-.067.15-.037.098-.105.263-.067.173-.061.12-.104.225-.046.105-.037.105-.037.083-.03.052-.022.068-.075.172-.067.15-.022.053-.03.097-.045.083-.03.061-.03.067-.015.053-.038.083-.06.165-.067.135-.038.098-.022.067-.022.045-.022.06-.037.098-.053.113-.09.15-.075.218-.045.127-.016.068-.045.075-.022.075-.037.083-.045.105-.053.127-.022.09-.03.075-.067.143-.075.173-.053.083-.022.045-.06.075-.061.045-.112.023-.211-.023Z"/><path class="cls-3" d="M143.863,105.035l-.053-.008-.067.008-.173-.015-.149.007-.098-.007-.211.007h-.157l-.143-.007h-.12l-.105.015-.12-.008-.037.008-.165-.015h-.226l-.248-.007-.27.007h-.24l-.12-.007-.12-.068-.091-.15-.015-.18v-.533l-.008-.232.008-.173v-.233l-.008-.143-.007-.158-.008-.075v-.105l.008-.112v-.18l-.008-.022.008-.068-.008-.09v-.068l-.008-.18.008-.315.008-.21v-.127l-.008-.218v-.488l-.015-.127.007-.098v-.09l.008-.143v-.083l.008-.143.007-.203.03-.098.053-.083.083-.052.06-.03.083-.015h.217l.315.015h.496l.21-.007.157-.008.233-.007h.487l.166.022h.165l.12-.015.21.008.12.007.3-.015.083.008.112-.008.12.015.113.045.06.09.045.15.016.158-.008.098-.045.135-.083.105-.082.03-.173.015-.271.008-.157.007-.068-.007-.24.015h-.353l-.285-.007-.173-.007h-.075l-.149.015-.398.008h-.135l-.165.007h-.143l-.136.038-.022.12-.007.127-.016.053v.127l-.008.173.016.188-.008.195.038.173.09.052h.06l.165.022.195-.015h.128l.157.015.166-.015.57-.008h.413l.112.008.128.038.09.09.03.083.015.075.008.06.015.173-.022.158-.053.09-.15.075h-.397l-.436.022-.24-.008h-.082l-.309-.007-.09.007-.135-.007-.181.007-.09.015-.098.03-.053.045-.007.105-.008.113-.015.127v.165l.007.113v.143l-.007.12v.203l.067.195.21.09h.525l.21-.008.211.008.428-.008.157-.015h.45l.091.015h.143l.232.008.188.015h.098l.061.015.067.045.045.068.022.135-.008.157v.09l-.015.083-.03.09-.045.061-.053.03-.075.022-.375.038-.195.022h-.21l-.15-.007Z"/><path class="cls-3" d="M150.059,105.08l-.075-.038-.061-.053-.082-.09-.09-.127-.061-.075-.06-.083-.061-.09-.067-.098-.045-.075-.061-.075-.082-.12-.12-.135-.083-.105-.067-.098-.098-.12-.112-.135-.091-.127-.119-.143-.075-.105-.046-.06-.052-.038-.075-.053-.075-.038-.083-.015-.098-.015-.067.007-.465-.015-.181.015-.15.053-.037.12-.015.203-.016.172-.007.09-.008.195v.15l.008.21-.008.06v.143l-.008.127v.158l-.015.105-.016.12-.037.075-.038.045-.045.022-.074.023h-.091l-.135.015-.165-.015-.083-.015-.075-.03-.067-.12-.037-.105v-.18l-.008-.18-.008-.075.022-.292v-.18l-.007-.15-.016-.12v-.51l.008-.143.008-.09-.008-.06v-.345l.008-.143v-.293l-.008-.158v-.105l.015-.075-.015-.09v-.15l-.008-.053.008-.045.008-.075v-.135l-.008-.03.015-.112v-.36l-.015-.075.015-.075-.022-.143v-.135l.008-.15.03-.128.045-.067.045-.038.083-.045.218-.03.33.015.263-.007.173-.008h.12l.082.008.128-.008.173-.007.383.007h.098l.143-.007h.345l.173.007.405.038.091.022.135.045.173.075.188.113.105.105.06.068.112.12.068.127.037.12.053.127.037.105.03.06.015.067.016.06-.008.09.008.097.007.18.008.233-.008.113-.015.06-.022.083-.03.083-.053.15-.074.173-.046.067-.045.075-.082.09-.075.067-.075.083-.128.083-.09.045-.128.09-.157.067-.045.045.008.038.007.03.045.075.083.135.105.127.074.09.038.068.06.067.226.323.083.105.09.12.075.09.06.098.083.105.052.135-.015.052-.03.098-.09.15-.105.067-.127.09-.165.067-.075-.022ZM149.045,102.122l.067-.007.083-.008.06-.007.075.007.067-.03.053-.022.067-.022.045-.038.053-.053.045-.06.061-.158.03-.157.015-.068.008-.113.015-.09-.015-.113-.038-.135-.037-.12-.09-.143-.128-.083-.105-.03-.143-.045-.143-.008-.112-.007-.067-.007h-.068l-.082-.008-.09.015h-.503l-.105-.007h-.12l-.135.007-.113-.022h-.232l-.181.022-.045.015-.022.052-.007.098-.008.195v.24l-.008.172.008.24-.008.226.022.135.113.068.098.022.097.007.136-.015.082.015.166.008h.157l.045.007.165-.007h.203l.315.03h.255Z"/><path class="cls-3" d="M153.844,105.02l-.045-.015-.045-.022-.061-.045-.037-.068-.022-.067-.016-.09-.015-.083v-.21l.008-.285v-.18l-.008-.143.015-.15.008-.113-.015-.075-.008-.233-.008-.345-.053-.218-.053-.075-.029-.067-.067-.113-.061-.06-.06-.098-.098-.105-.045-.045-.046-.075-.09-.105-.06-.068-.045-.075-.083-.075-.061-.053-.097-.12-.113-.127-.067-.098-.06-.083-.15-.173-.12-.158-.091-.135-.104-.113-.098-.12-.038-.06-.067-.09-.06-.12-.022-.083v-.097l.053-.09.052-.067.075-.045.15-.113.067-.015.083-.038.143.015.15.127.149.173.136.127.067.075.098.128.082.12.12.157.098.12.105.158.067.09.075.105.075.113.022.03.022.022.061.075.082.098.075.083.09.098.09.083.068.03.06-.015.053-.022.15-.15.045-.067.06-.068.053-.075.045-.053.053-.06.061-.083.074-.09.061-.075.053-.068.037-.038.061-.067.067-.09.045-.045.061-.075.067-.083.037-.052.045-.053.022-.045.016-.022.06-.06.067-.083.045-.06.061-.068.083-.105.052-.075.053-.045.12-.09.143-.061.105.038.338.271.067.083.015.083-.082.173-.075.12-.12.143-.112.158-.075.098-.128.143-.157.165-.083.105-.165.225-.112.158-.128.143-.105.135-.067.068-.09.112-.053.06-.03.053-.09.112-.105.143-.082.135-.067.15-.016.21v.398l.008.226-.022.315-.008.248.016.27-.008.255v.105l-.03.075-.06.09-.091.045-.172.015h-.136l-.157-.007Z"/></svg>