<?xml version="1.0" encoding="UTF-8"?><svg id="Layer_1" xmlns="http://www.w3.org/2000/svg" width="5in" height="2.545in" viewBox="0 0 360 183.258"><defs><style>.cls-1{fill:none;stroke-linecap:round;stroke-linejoin:round;stroke-width:3.899px;}.cls-1,.cls-2{stroke:#18212c;}.cls-2{fill:#f4f1e4;stroke-miterlimit:10;stroke-width:7.317px;}.cls-3{fill:#18212c;}</style></defs><ellipse class="cls-2" cx="180" cy="91.629" rx="103.146" ry="59.554"/><path class="cls-3" d="M122.629,74.17c-1.594.4-3.184.816-4.772,1.249-.528,5.03-.853,10.594-1.041,15.524-.654.195-1.307.392-1.96.593.164-4.939.441-10.506.902-15.534-1.584.448-3.165.913-4.742,1.394.042-.604.086-1.209.131-1.814,3.88-1.173,7.782-2.245,11.702-3.217-.075.602-.149,1.203-.221,1.804Z"/><path class="cls-3" d="M129.696,81.27c-.628,2.488-1.608,4.893-4.972,5.748-2.116.541-3.946-.255-4.488-2.215-.74-2.662.486-5.68,3.229-6.371,1.7-.427,2.844.553,3.11,1.673.56,2.385-1.917,4.251-4.403,4.372.371.878,1.186,1.288,2.573.935,2.092-.53,3.212-2.129,4.051-5.075.301.311.601.622.9.933ZM121.926,83.285c1.598-.143,3.176-1.355,2.879-2.662-.104-.514-.528-.819-1.098-.676-1.228.31-1.91,1.812-1.781,3.337Z"/><path class="cls-3" d="M137.541,79.633c-.713,2.465-1.774,4.833-5.16,5.567-1.916.419-3.639-.42-4.128-2.48-.653-2.729.809-5.64,3.325-6.178,2.18-.464,3.471,1.294,3.163,3.278-.641.13-1.281.263-1.921.399.191-1.368-.331-2.222-1.147-2.047-1.215.261-1.921,2.247-1.543,3.901.283,1.247,1.191,1.77,2.307,1.528,2.127-.46,3.278-2.014,4.216-4.928.297.32.593.64.888.96Z"/><path class="cls-3" d="M140.669,81.72c-.289-1.589,1.084-3.679.906-4.751-.067-.393-.286-.61-.752-.53-2.006.346-3.085,4.691-3.287,7.483-.629.122-1.257.247-1.885.374.461-3.474,1.45-9.811,2.228-13.761.659-.12,1.318-.236,1.978-.35-.531,2.346-.947,4.676-1.358,7.03.643-1.46,1.752-2.361,2.935-2.56,1.094-.185,1.941.38,2.107,1.414.252,1.465-1.178,3.845-.997,4.879.056.33.283.483.607.429.929-.156,2.044-2.052,2.903-4.3.267.327.534.655.799.983-.582,1.885-2.075,4.783-3.999,5.11-1.202.204-1.995-.397-2.184-1.449Z"/><path class="cls-3" d="M149.931,80.268c-.223-1.6,1.211-3.628,1.078-4.707-.051-.395-.239-.624-.706-.563-2.038.266-3.27,4.558-3.587,7.339-.632.096-1.264.194-1.896.295.492-2.858,1.04-5.72,1.65-8.562.633-.093,1.267-.184,1.9-.271-.141.626-.281,1.252-.419,1.878.702-1.432,1.845-2.286,3.034-2.436,1.077-.136,1.899.463,2.044,1.5.191,1.474-1.356,3.795-1.218,4.836.042.332.262.494.588.454.934-.117,2.123-1.966,3.095-4.178.253.338.506.676.757,1.015-.659,1.859-2.289,4.695-4.201,4.939-1.207.154-1.974-.48-2.119-1.539Z"/><path class="cls-3" d="M161.153,76.402c-.698,1.844-2.367,4.643-4.261,4.843-3.276.358-2.105-3.988-.858-8.379.666-.07,1.332-.137,1.998-.201-1.081,3.64-2.123,6.955-.819,6.819.914-.095,2.215-1.841,3.204-4.113.246.343.491.687.735,1.031ZM156.323,70.604c-.089-.854.608-1.705,1.431-1.784.593-.057,1.086.298,1.137.862.073.814-.643,1.699-1.454,1.779-.631.062-1.056-.293-1.114-.857Z"/><path class="cls-3" d="M170.858,75.794c-.889,2.092-2.212,3.723-4.098,4.866,2.485,1.224,2.204,5.091-.615,5.265-2.439.165-3.117-2.107-1.831-6.616-.316.506-.886,1.344-2.098,1.441-1.469.119-2.507-1.192-2.663-2.862-.277-2.898,1.526-5.721,4.104-5.905.946-.068,1.837.421,2.208.965.101-.307.202-.615.304-.922.66-.04,1.32-.078,1.98-.112-.974,2.925-1.65,5.275-2.243,7.644,1.858-1.042,3.101-2.403,4.24-4.825.238.353.476.707.712,1.06ZM165.461,74.36c-.276-.466-.905-.802-1.553-.756-1.659.118-2.589,2.176-2.434,3.991.065.773.517,1.449,1.323,1.386,1.157-.089,1.916-1.654,2.664-4.621ZM165.44,81.415c-.4,1.476-.37,3.09.672,3.021,1.36-.084.983-2.624-.672-3.021Z"/><path class="cls-3" d="M180.601,75.599c-.853,1.778-2.751,4.425-4.653,4.463-1.04.02-1.734-.714-1.679-1.869-.629,1.107-1.643,1.955-2.814,2.001-2.385.103-2.996-2.427-.491-8.41.668-.027,1.336-.051,2.004-.072-1.964,4.552-2.226,6.813-.925,6.761,1.338-.047,2.149-2.023,3.831-6.835.683-.013,1.366-.023,2.05-.03-1.985,5.115-2.48,6.746-1.506,6.725.918-.016,2.339-1.646,3.538-3.825.216.363.431.726.645,1.09Z"/><path class="cls-3" d="M187.264,77.968c-.957,1.06-2.674,2.083-4.669,2.063-2.166-.022-3.715-1.264-3.734-3.297-.028-2.762,1.915-5.362,4.723-5.323,1.739.026,2.587,1.267,2.556,2.418-.071,2.364-2.928,3.593-5.341,3.069.13.965.785,1.571,2.227,1.587,1.244.014,2.643-1.003,3.394-1.778.283.42.564.84.843,1.261ZM180.868,75.703c1.568.232,3.392-.575,3.441-1.83.031-.523-.297-.928-.88-.936-1.258-.017-2.293,1.259-2.561,2.766Z"/><path class="cls-3" d="M208.972,67.099c-1.938,5.231-3.612,10.526-5.175,15.838-.708-.075-1.417-.147-2.126-.215,1.328-4.334,2.796-8.649,4.418-12.939-2.826,3.525-5.426,7.091-7.901,10.76-.687-.055-1.373-.107-2.06-.155.335-3.819.757-7.591,1.286-11.396-2.372,4.259-4.54,8.603-6.475,12.957-.696-.033-1.393-.063-2.089-.09,2.407-5.38,5.146-10.672,8.159-15.9.9.063,1.801.131,2.701.205-.619,3.881-1.149,7.747-1.521,11.627,2.481-3.735,5.181-7.398,8.045-11.005.913.1,1.827.205,2.739.315Z"/><path class="cls-3" d="M218.929,78.882c-1.141,1.61-3.462,3.899-5.349,3.618-1.097-.164-1.441-.994-1.44-1.63-.547.579-1.363,1.224-2.678,1.051-1.507-.197-2.309-1.556-2.1-3.325.322-2.788,2.672-5.32,5.237-4.96.941.131,1.756.803,1.98,1.429.164-.286.329-.572.495-.858.64.097,1.28.196,1.92.298-2.875,4.913-3.518,6.243-2.662,6.37.91.138,2.609-1.226,4.14-3.177.153.394.304.788.455,1.183ZM213.89,76.36c-.17-.534-.692-.991-1.36-1.085-1.65-.232-2.997,1.627-3.224,3.435-.096.748.208,1.483,1.012,1.59,1.152.155,2.245-1.213,3.573-3.94Z"/><path class="cls-3" d="M226.97,80.407c-1.173,1.552-3.626,3.768-5.439,3.431-1.241-.232-1.749-1.235-1.567-2.267.234-1.32,1.289-2.707,2.415-4.224-.46-.107-1.154-.297-1.748-.551-1.269,2.009-2.712,3.505-3.99,4.528-1.114.859-1.743-.213-.593-1.156,1.74-1.398,3.084-3.696,4.01-5.855.581.1,1.161.203,1.742.308-.119.277-.256.529-.371.785,1.032.395,2.901.834,3.77.986-1.184,1.538-3.032,4.025-3.224,5.077-.081.433.067.716.435.785.881.165,2.862-1.472,4.149-3.046.139.399.276.799.413,1.198Z"/><path class="cls-3" d="M231.8,81.469c-1.233,1.541-3.688,3.693-5.56,3.303-3.24-.663-.79-4.442,1.747-8.24.658.138,1.315.278,1.971.421-2.149,3.133-4.159,5.971-2.871,6.24.903.19,2.681-1.073,4.325-2.932.13.402.259.805.387,1.207ZM228.957,74.466c.176-.84,1.104-1.437,1.915-1.259.586.128.948.618.825,1.169-.179.797-1.136,1.42-1.936,1.247-.623-.135-.92-.603-.803-1.158Z"/><path class="cls-3" d="M233.87,84.652c.377-1.571,2.461-2.933,2.732-3.985.097-.386.006-.669-.455-.783-2.005-.499-4.727,3.044-6.04,5.517-.626-.142-1.252-.282-1.878-.419,1.504-2.48,3.063-4.943,4.672-7.366.626.145,1.252.293,1.877.444-.361.531-.721,1.062-1.079,1.595,1.18-1.076,2.561-1.451,3.729-1.156,1.059.268,1.61,1.128,1.365,2.146-.36,1.442-2.659,3.035-2.91,4.054-.082.325.064.556.385.638.917.234,2.708-1.05,4.431-2.752.114.408.227.815.338,1.223-1.3,1.488-3.867,3.528-5.746,3.055-1.187-.3-1.673-1.17-1.421-2.209Z"/><path class="cls-3" d="M246.9,87.872c-1.213.766-3.157,1.293-5.094.741-2.103-.599-3.282-2.21-2.762-4.176.703-2.672,3.28-4.662,6.004-3.874,1.687.489,2.186,1.914,1.851,3.015-.694,2.261-3.803,2.682-6.012,1.534-.128.965.348,1.724,1.748,2.125,1.208.346,2.84-.261,3.776-.808.165.481.328.961.489,1.442ZM241.269,83.979c1.464.642,3.454.351,3.834-.847.169-.496-.044-.974-.61-1.137-1.22-.353-2.566.602-3.224,1.984Z"/><path class="cls-3" d="M118.687,101.082l-4.2.842c-.582.114-1.061.499-1.32,1.029-.593,1.248-1.736,2.215-3.192,2.495-1.487.301-2.953-.166-3.972-1.133-.187-.166-.094-.478.146-.53l2.36-.468c.218-.042.395-.198.468-.406l.561-1.653c.062-.208.021-.447-.125-.613l-1.154-1.31c-.146-.166-.364-.239-.582-.198l-2.36.468c-.239.052-.437-.198-.343-.426.582-1.289,1.757-2.277,3.234-2.578,1.456-.281,2.89.156,3.909,1.081.447.406,1.04.572,1.622.457l4.013-.801c-.052.645-.01,1.289.135,1.913.156.665.426,1.289.801,1.83Z"/><path class="cls-1" d="M114.723,99.89c44.886-9.337,88.64-9.107,131.345,0"/><path class="cls-3" d="M251.447,96.346c-1.469-.302-2.915.147-3.944,1.081-.436.396-1.033.563-1.611.448l-3.861-.768c.171.765.166,1.589-.068,2.441-.131.476-.342.932-.616,1.354l3.793.754c.58.115,1.067.503,1.32,1.037.59,1.246,1.742,2.206,3.198,2.495,2.444.486,4.818-1.101,5.304-3.545.485-2.439-1.08-4.798-3.516-5.298ZM252.665,101.502l-1.117,1.274c-.146.166-.369.242-.586.199l-1.661-.33c-.217-.043-.394-.199-.465-.408l-.545-1.604c-.071-.209-.025-.441.121-.607l1.117-1.274c.146-.166.369-.242.586-.199l1.661.33c.217.043.394.199.465.408l.545,1.604c.071.209.025.441-.121.607Z"/><path class="cls-3" d="M137.4,109.527l-.11-.055-.049-.104-.005-.121-.011-.061v-.109l.011-.099-.005-.11-.006-.121.006-.104-.011-.143v-.148l.005-.076-.011-.148.005-.188v-.088l-.011-.153v-.209l.006-.071.005-.154v-.214l-.005-.22v-.329l.005-.071v-.28l-.005-.127-.011-.109v-.094l.011-.044.038-.061.044-.033.104-.016.11-.012h.039l.083-.005.099.017.044.027.039.038.039.083.06.093.066.121.06.132.099.17.071.132.066.144.104.208.066.11.061.137.06.104.028.056.027.049.033.066.055.132.077.137.055.11.033.071.028.055.038.066.061.115.061.126.055.082.05.094.027.071.033.017.028-.017.038-.055.039-.061.039-.071.066-.138.06-.12.033-.072.044-.065.033-.038.016-.044.017-.05.055-.082.038-.083.033-.049.049-.094.055-.115.049-.104.049-.109.049-.1.055-.082.061-.132.071-.132.066-.148.083-.165.049-.104.016-.061.044-.076.022-.066.055-.109.083-.132.066-.044.066-.022.247-.021.099.011.088.033.033.049.011.039.011.088v.555l-.005.115.005.126v.495l.005.137v.077l-.005.115.017.165-.006.132.011.17v.418l-.005.137v.088l-.006.071.006.121.005.11-.005.143.005.165-.011.121-.027.099-.033.038-.055.033-.044.017-.066.017-.093-.006h-.071l-.055-.011-.055-.017-.066-.033-.071-.153-.017-.171.005-.115v-.182l-.005-.23v-.456l-.017-.181.011-.121v-.088l.006-.121v-.104l-.006-.06v-.144l-.005-.017-.016-.011-.011.011-.027.039-.017.049-.039.066-.027.055-.033.055-.038.077-.05.11-.055.12-.061.088-.055.094-.05.099-.038.083-.061.109-.083.154-.039.093-.038.104-.071.132-.028.066-.027.038-.022.05-.027.044-.022.044-.061.115-.049.104-.011.032-.049.072-.099.071-.072.011-.066.006-.077.005-.077-.005-.06-.028-.061-.082-.066-.138-.044-.082-.044-.099-.061-.132-.055-.1-.033-.076-.022-.05-.027-.055-.115-.192-.028-.038-.055-.121-.055-.115-.027-.056-.061-.093-.066-.154-.055-.109-.039-.088-.066-.11-.066-.143-.066-.121-.039-.044-.017.017v.083l-.005.126v.094l.005.044v.071l-.005.082.011.159v.11l-.006.209-.005.088v.235l.005.132-.005.094.011.099v.077l.011.121v.099l-.017.153-.016.061-.055.072-.181.049h-.121l-.094-.027Z"/><path class="cls-3" d="M144.263,109.604h-.094l-.082-.006-.11-.017h-.137l-.099-.027-.055-.011-.071-.017-.099-.038-.132-.05-.11-.061-.055-.027-.061-.038-.071-.039-.049-.038-.055-.033-.077-.071-.093-.082-.061-.061-.198-.236-.077-.148-.066-.121-.071-.126-.033-.121-.028-.071-.027-.132-.022-.109-.005-.066-.017-.094-.005-.076.005-.094v-.159l.017-.104.011-.099.044-.138.017-.088.044-.126.055-.144.049-.076.055-.121.104-.165.094-.126.055-.05.039-.049.055-.061.055-.056.044-.021.061-.061.148-.082.132-.066.154-.071.115-.033.072-.032.148-.05.138-.022.088-.016.132.005.192-.005.132.011h.06l.099.017.11.027.071.017.049.021.083.027.077.028.077.038.088.05.115.06.154.1.116.093.115.11.137.165.088.104.039.056.033.065.039.055.049.1.055.126.033.11.028.088.011.049.022.071.027.138.011.088v.077l.005.088-.011.093-.011.143-.011.088-.006.088-.017.11-.016.065-.022.094-.05.132-.044.121-.049.104-.039.065-.027.056-.044.055-.038.049-.033.05-.022.038-.033.039-.061.061-.071.055-.05.049-.038.033-.05.039-.044.038-.055.033-.039.032-.066.045-.11.06-.121.071-.094.039-.061.021-.115.039-.137.038-.115.017h-.16l-.126-.011ZM144.449,108.966l.071-.005.033-.006.027-.017.022-.011.072-.011.071-.033.066-.022.104-.055.11-.071.143-.104.083-.088.027-.033.044-.065.083-.104.11-.165.033-.121.022-.104.017-.121.011-.148.011-.077-.011-.143-.039-.198-.039-.126-.055-.115-.028-.094-.033-.06-.044-.088-.066-.083-.039-.05-.061-.06-.187-.148-.176-.104-.104-.044-.115-.033-.044-.011-.071-.022-.094-.021h-.302l-.083.017-.099.011-.126.038-.182.077-.308.176-.055.061-.044.055-.033.027-.066.094-.049.094-.027.038-.022.061-.039.071-.033.088-.027.088-.011.077-.027.121-.011.137.005.066.006.076.011.088v.083l.005.027.017.061.022.099.017.082.066.121.132.198.104.132.039.044.088.076.11.071.039.022.022.011.099.055.116.056.093.027.154.027.154.022.132.005.159-.017Z"/><path class="cls-3" d="M148.521,109.543l-.137-.006-.104.006-.071-.006-.088-.005-.231.005-.06.006-.121-.006-.192.011-.121-.016-.055-.012-.05-.032-.061-.094-.016-.159-.005-.176.011-.187v-.127l-.011-.148-.011-.187v-.373l.005-.182-.005-.121-.005-.164v-.16l.005-.104-.005-.154v-.094l-.006-.176.006-.132v-.071l.005-.104v-.143l.011-.115v-.23l-.006-.121.011-.082.033-.104.094-.083.121-.027.115.006.077.005.22-.005h.137l.132.005.066-.005h.208l.066.011.093.006.17-.006.088-.011h.362l.253.027.143.038.071.022.247.121.066.055.06.061.055.061.061.104.077.17.055.17.016.088v.215l-.005.082-.044.165-.055.159-.061.094-.083.109-.044.082.022.033.093.061.077.082.077.121.061.143.061.165.027.115.022.104.005.099-.005.148-.044.165-.022.094-.044.099-.055.121-.066.065-.055.088-.11.094-.148.082-.115.05-.083.021-.143.044-.143.022-.071.017-.083.005-.055.006-.094.011-.099-.006-.143.006h-.143l-.214-.011ZM148.68,107.225l.236.006h.088l.11-.011.187-.028.099-.038.104-.082.055-.072.05-.082.017-.115v-.138l-.028-.088-.027-.071-.049-.065-.121-.071-.132-.05h-.093l-.066-.006-.28.006-.214-.006h-.138l-.104-.011-.153-.006-.176.012-.099.017-.044.017-.022.043v.088l-.005.083-.022.109.005.132v.138l.017.099v.077l.016.05.022.032.049.017.044.006.11.006h.121l.116.005.17.006.159-.006ZM148.889,108.917l.132-.006.143-.017h.094l.104-.011.093-.006.088-.027.055-.033.072-.065.055-.088.022-.044.027-.061.011-.094.011-.109-.011-.088-.027-.088-.05-.104-.055-.065-.044-.039-.044-.027-.027-.017-.061-.021-.165-.028-.203-.005-.148-.006-.066.006h-.247l-.071-.006-.083.006h-.11l-.407.005-.077.022-.022.055.005.094.011.082v.104l-.011.165-.011.209v.12l.022.148.044.022.027.011.115.006h.203l.17.005.132-.005.143.011.159-.011Z"/><path class="cls-3" d="M151.657,109.521l-.104-.027-.077-.076-.022-.077.005-.127v-.22l.006-.132-.011-.088.005-.126-.011-.138.005-.071.005-.061-.017-.093v-.171l.011-.132-.011-.109.017-.099-.005-.066v-.099l-.017-.099.005-.066v-.088l-.016-.153-.005-.094.016-.165v-.159l.005-.148-.005-.109v-.527l-.005-.11.022-.088.027-.049.033-.033.071-.05.104-.011h.099l.116.006.088.027.044.049.044.072.005.099.005.137v.094l-.005.061.011.093-.005.138v.132l.011.094-.005.137-.005.171v.109l.005.077v.138l.005.12-.005.148.005.259-.011.153v.071l.005.05v.308l.005.088v.285l.011.061v.259l-.005.126-.027.153-.028.061-.027.033-.039.017-.099.038h-.115l-.044.006-.072-.006Z"/><path class="cls-3" d="M153.478,109.51l-.071-.038-.038-.077-.028-.099-.005-.115.005-.121-.005-.11.011-.082-.005-.143v-.247l.005-.121-.005-.132-.011-.061-.005-.121v-.341l.005-.153v-.104l.011-.121.005-.12.011-.144-.011-.143.011-.115v-.253l-.011-.077v-.159l-.005-.137v-.303l.022-.088.017-.038.027-.038.039-.022.066-.017.071-.005.071.011h.104l.088-.006.061.022.033.033.027.049.011.039.006.088.005.109v.082l.011.121v.088l-.011.11-.005.093v.347l.005.12.011.104.005.099.006.165.005.121-.005.038.005.061.005.104-.005.104v.05l-.005.049.005.039-.011.109v.099l-.005.188-.016.12v.127l.005.093.016.132v.044l.006.05.033.044.028.011h.241l.121.006.049-.006.055.006.088.005.11.006h.115l.088-.017.104-.005h.099l.083.005h.11l.066.011h.099l.132-.016h.132l.083.005h.077l.071.017.061.039.06.071.011.038v.247l-.011.055-.016.039-.044.038-.093.05-.077.011-.093-.006h-.286l-.094.017-.071-.005h-.313l-.083-.006-.324.011h-1.06l-.083-.027Z"/><path class="cls-3" d="M159.179,109.538l-.038-.005-.05.005-.126-.011-.11.006-.071-.006-.154.006h-.115l-.104-.006h-.088l-.077.011-.088-.005-.027.005-.121-.011h-.165l-.181-.006-.198.006h-.176l-.088-.006-.088-.049-.066-.11-.011-.132v-.39l-.005-.171.005-.126v-.17l-.005-.104-.006-.115-.005-.055v-.077l.005-.083v-.132l-.005-.017.005-.049-.005-.066v-.049l-.005-.132.005-.231.005-.153v-.094l-.005-.159v-.356l-.011-.094.006-.071v-.066l.005-.104v-.061l.005-.104.006-.148.021-.071.039-.061.061-.039.044-.021.061-.011h.159l.231.011h.362l.154-.006.115-.005.17-.006h.357l.121.017h.121l.088-.011.154.005.088.006.22-.011.061.005.083-.005.088.011.082.033.044.065.033.11.011.115-.005.071-.033.099-.061.077-.061.022-.126.011-.198.005-.115.006-.049-.006-.176.012h-.258l-.208-.006-.126-.006h-.055l-.11.012-.291.005h-.099l-.121.006h-.104l-.099.027-.017.088-.005.094-.011.038v.094l-.005.126.011.138-.006.143.028.126.066.039h.044l.121.017.143-.012h.093l.115.012.121-.012.417-.005h.302l.083.005.093.027.066.066.021.061.011.055.005.044.011.126-.017.115-.039.066-.11.055h-.291l-.319.017-.176-.005h-.06l-.225-.006-.066.006-.099-.006-.132.006-.066.011-.071.021-.039.033-.005.077-.005.082-.011.094v.121l.005.082v.104l-.005.088v.148l.049.143.154.065h.385l.154-.005.154.005.313-.005.115-.011h.33l.066.011h.104l.17.005.137.012h.071l.044.011.05.033.033.049.017.099-.005.116v.065l-.011.061-.022.066-.033.043-.038.022-.055.017-.274.027-.143.017h-.154l-.11-.006Z"/><path class="cls-3" d="M162.762,109.527l-.11-.055-.049-.104-.005-.121-.011-.061v-.109l.011-.099-.005-.11-.006-.121.006-.104-.011-.143v-.148l.005-.076-.011-.148.005-.188v-.088l-.011-.153v-.209l.006-.071.005-.154v-.214l-.005-.22v-.329l.005-.071v-.28l-.005-.127-.011-.109v-.094l.011-.044.038-.061.044-.033.104-.016.11-.012h.039l.083-.005.099.017.044.027.039.038.039.083.06.093.066.121.06.132.099.17.071.132.066.144.104.208.066.11.061.137.06.104.028.056.027.049.033.066.055.132.077.137.055.11.033.071.028.055.038.066.061.115.061.126.055.082.05.094.027.071.033.017.028-.017.038-.055.039-.061.039-.071.066-.138.06-.12.033-.072.044-.065.033-.038.016-.044.017-.05.055-.082.038-.083.033-.049.049-.094.055-.115.049-.104.049-.109.049-.1.055-.082.061-.132.071-.132.066-.148.083-.165.049-.104.016-.061.044-.076.022-.066.055-.109.083-.132.066-.044.066-.022.247-.021.099.011.088.033.033.049.011.039.011.088v.555l-.005.115.005.126v.495l.005.137v.077l-.005.115.017.165-.006.132.011.17v.418l-.005.137v.088l-.006.071.006.121.005.11-.005.143.005.165-.011.121-.027.099-.033.038-.055.033-.044.017-.066.017-.093-.006h-.071l-.055-.011-.055-.017-.066-.033-.071-.153-.017-.171.005-.115v-.182l-.005-.23v-.456l-.017-.181.011-.121v-.088l.006-.121v-.104l-.006-.06v-.144l-.005-.017-.016-.011-.011.011-.027.039-.017.049-.039.066-.027.055-.033.055-.038.077-.05.11-.055.12-.061.088-.055.094-.05.099-.038.083-.061.109-.083.154-.039.093-.038.104-.071.132-.028.066-.027.038-.022.05-.027.044-.022.044-.061.115-.049.104-.011.032-.049.072-.099.071-.072.011-.066.006-.077.005-.077-.005-.06-.028-.061-.082-.066-.138-.044-.082-.044-.099-.061-.132-.055-.1-.033-.076-.022-.05-.027-.055-.115-.192-.028-.038-.055-.121-.055-.115-.027-.056-.061-.093-.066-.154-.055-.109-.039-.088-.066-.11-.066-.143-.066-.121-.039-.044-.017.017v.083l-.005.126v.094l.005.044v.071l-.005.082.011.159v.11l-.006.209-.005.088v.235l.005.132-.005.094.011.099v.077l.011.121v.099l-.017.153-.016.061-.055.072-.181.049h-.121l-.094-.027Z"/><path class="cls-3" d="M167.839,109.593l-.071-.017-.099-.05-.077-.061-.055-.065-.022-.066v-.099l.049-.099.033-.083.027-.061.033-.065.049-.115.033-.088.104-.209.055-.121.05-.126.088-.17.055-.127.039-.077.039-.082.044-.094.077-.197.066-.115.044-.121.077-.165.088-.203.049-.109.083-.209.06-.127.028-.082.049-.094.039-.076.011-.044.022-.056.027-.076.039-.055.033-.066.033-.061.022-.044.039-.065.066-.056.137-.027h.148l.071.017.061.055.039.072.033.065.055.126.055.121.104.203.033.088.039.071.033.1.044.099.027.077.038.076.061.138.061.121.039.099.039.065.021.061.039.083.049.088.033.088.033.093.033.056.027.071.055.099.044.11.071.17.099.187.055.132.039.082.022.05.022.071.066.132.049.104.027.044.05.104.038.115.027.094-.021.121-.061.071-.11.055-.192.05-.126-.028-.049-.044-.055-.055-.016-.071-.049-.104-.061-.126-.033-.061-.049-.11-.061-.126-.022-.05-.038-.065-.05-.088-.038-.071-.055-.039-.11-.011-.137.006h-.643l-.181-.006-.143.011-.077-.005-.093.011-.088.006-.071.038-.033.05-.11.22-.055.099-.017.061-.027.055-.033.077-.044.093-.027.083-.055.088-.065.099-.061.05-.088.021-.094-.005ZM169.789,107.923l.006-.006.016-.006.022-.049-.017-.1-.033-.082-.121-.214-.055-.104-.071-.176-.044-.104-.039-.099-.061-.144-.066-.055-.044.088-.044.138-.093.209-.071.147-.05.138-.044.099-.055.11-.005.044-.011.049v.056l.039.038.093.006h.099l.154.011.368.011.126-.005Z"/><path class="cls-3" d="M174.837,109.571l-.055-.027-.044-.038-.061-.066-.065-.094-.044-.055-.044-.061-.044-.065-.05-.071-.033-.056-.044-.055-.061-.088-.088-.099-.061-.077-.049-.071-.071-.088-.083-.099-.066-.094-.088-.104-.055-.076-.033-.045-.039-.027-.055-.038-.055-.027-.061-.011-.071-.012-.049.006-.34-.011-.132.011-.11.038-.027.088-.011.148-.011.127-.005.065-.005.143v.11l.005.153-.005.044v.104l-.005.094v.115l-.011.077-.011.088-.027.055-.027.033-.033.017-.055.016h-.066l-.099.012-.121-.012-.061-.011-.055-.021-.049-.088-.028-.077v-.132l-.005-.132-.005-.055.016-.215v-.132l-.005-.109-.011-.088v-.374l.005-.104.005-.066-.005-.044v-.253l.005-.104v-.214l-.005-.115v-.077l.011-.055-.011-.066v-.109l-.005-.038.005-.033.005-.055v-.1l-.005-.021.011-.083v-.264l-.011-.055.011-.055-.016-.104v-.099l.005-.11.022-.093.033-.05.033-.027.061-.033.159-.021.242.011.192-.006.126-.005h.088l.06.005.093-.005.126-.006.28.006h.071l.104-.006h.252l.126.006.297.027.066.017.099.032.126.056.137.082.077.077.044.049.082.088.05.094.027.088.039.094.027.076.022.044.011.05.011.044-.005.065.005.072.005.132.006.17-.006.082-.011.044-.017.061-.022.061-.039.11-.055.126-.033.05-.033.055-.061.065-.055.05-.055.061-.093.061-.066.032-.094.066-.115.05-.033.032.005.027.005.022.033.055.06.099.077.094.055.066.028.049.044.05.165.236.061.077.066.088.055.065.044.071.06.077.039.099-.011.039-.022.071-.065.109-.077.05-.093.065-.121.05-.055-.017ZM174.096,107.407l.049-.006.061-.005.044-.006.055.006.049-.022.039-.017.049-.017.033-.027.039-.038.033-.044.044-.115.022-.116.011-.049.005-.082.011-.066-.011-.082-.027-.1-.027-.088-.066-.104-.094-.061-.077-.022-.104-.033-.104-.005-.083-.006-.049-.006h-.05l-.061-.005-.065.011h-.368l-.077-.006h-.088l-.099.006-.083-.017h-.17l-.132.017-.033.011-.017.039-.005.071-.006.143v.176l-.005.127.005.176-.005.164.017.1.083.049.071.017.071.006.099-.012.06.012.121.005h.115l.033.006.121-.006h.148l.231.022h.187Z"/><path class="cls-3" d="M176.567,109.521l-.104-.027-.077-.076-.022-.077.005-.127v-.22l.005-.132-.011-.088.005-.126-.011-.138.005-.071.005-.061-.016-.093v-.171l.011-.132-.011-.109.016-.099-.005-.066v-.099l-.017-.099.006-.066v-.088l-.017-.153-.006-.094.017-.165v-.159l.006-.148-.006-.109v-.527l-.005-.11.022-.088.027-.049.033-.033.071-.05.104-.011h.099l.115.006.088.027.044.049.044.072.006.099.005.137v.094l-.005.061.011.093-.005.138v.132l.011.094-.006.137-.005.171v.109l.005.077v.138l.006.12-.006.148.006.259-.011.153v.071l.005.05v.308l.006.088v.285l.011.061v.259l-.005.126-.028.153-.027.061-.027.033-.039.017-.099.038h-.116l-.044.006-.071-.006Z"/><path class="cls-3" d="M181.234,109.527l-.176.006-.116-.022-.071-.05-.076-.099-.094-.126-.22-.313-.104-.137-.055-.077-.121-.182-.132-.187-.099-.126-.083-.094-.055-.082-.05-.05-.115-.165-.071-.088-.049-.049-.039-.072-.065-.071-.127-.17-.104-.153-.066-.088-.071-.077-.044-.061-.033-.033-.055-.021-.05.027-.005.104.005.126v.11l-.005.115.011.17v.226l.005.225.005.138.017.104-.005.17v.23l-.011.154v.082l-.005.115.005.088-.005.071v.1l-.011.088-.038.071-.055.038-.049.017-.088.017h-.071l-.039.006-.115-.006-.116-.077-.044-.082-.016-.088.005-.099.011-.104-.005-.104v-.071l-.005-.099v-.104l.011-.077-.005-.143-.011-.104-.017-.104.005-.165v-.093l-.005-.094.005-.099v-.061l.011-.154v-.165l-.011-.082v-.049l.011-.088-.011-.1v-.038l.011-.099-.005-.138.005-.121-.011-.093.006-.056-.006-.071-.005-.109-.005-.1v-.147l.005-.104.005-.066v-.055l.011-.088.011-.071.028-.022.099-.055.083-.006.104-.005.121.011.115.022.071.049.088.11.055.082.093.132.077.121.071.088.071.109.077.1.033.044.055.099.061.077.093.104.072.1.06.065.11.132.132.176.082.132.132.176.055.061.045.066.071.104.099.115.099.153.055.066.039.049.055.044h.061l.017-.027.011-.121.006-.115v-.549l.011-.154v-.099l-.006-.104v-.099l.012-.077v-.368l-.012-.055.006-.088-.006-.11v-.088l-.005-.082v-.153l.005-.104.027-.1.044-.032.061-.033.05-.011.071-.006.061-.017h.159l.066.033.049.055.039.088.011.144-.011.126-.006.061.011.104-.005.082.005.077-.005.082.005.055v.215l.006.159v.285l.017.083v.049l-.012.071.012.116-.006.06.006.05-.017.061v.648l-.006.153.006.083v.62l.017.094-.012.132-.061.055-.043.017-.056.011-.12-.011Z"/><path class="cls-3" d="M184.882,109.538l-.039-.005-.049.005-.127-.011-.109.006-.071-.006-.154.006h-.115l-.104-.006h-.088l-.077.011-.088-.005-.027.005-.121-.011h-.164l-.182-.006-.197.006h-.176l-.088-.006-.088-.049-.066-.11-.011-.132v-.39l-.006-.171.006-.126v-.17l-.006-.104-.005-.115-.006-.055v-.077l.006-.083v-.132l-.006-.017.006-.049-.006-.066v-.049l-.006-.132.006-.231.006-.153v-.094l-.006-.159v-.356l-.011-.094.005-.071v-.066l.006-.104v-.061l.006-.104.005-.148.022-.071.038-.061.061-.039.044-.021.061-.011h.159l.23.011h.362l.154-.006.115-.005.17-.006h.357l.121.017h.121l.088-.011.153.005.088.006.22-.011.061.005.082-.005.088.011.083.033.044.065.033.11.011.115-.006.071-.033.099-.06.077-.061.022-.127.011-.197.005-.115.006-.05-.006-.176.012h-.258l-.209-.006-.126-.006h-.056l-.109.012-.291.005h-.1l-.12.006h-.104l-.099.027-.017.088-.006.094-.011.038v.094l-.006.126.011.138-.005.143.027.126.065.039h.044l.121.017.143-.012h.094l.115.012.121-.012.417-.005h.303l.082.005.094.027.065.066.022.061.011.055.006.044.011.126-.017.115-.038.066-.11.055h-.291l-.318.017-.176-.005h-.061l-.226-.006-.065.006-.1-.006-.131.006-.066.011-.071.021-.038.033-.006.077-.006.082-.011.094v.121l.006.082v.104l-.006.088v.148l.05.143.153.065h.385l.153-.005.154.005.312-.005.116-.011h.329l.066.011h.104l.171.005.138.012h.071l.044.011.049.033.033.049.017.099-.006.116v.065l-.011.061-.021.066-.033.043-.039.022-.055.017-.274.027-.143.017h-.154l-.109-.006Z"/><path class="cls-3" d="M189.63,109.604l-.071-.011-.094-.017-.148-.022-.165-.055-.109-.039-.209-.088-.148-.082-.065-.049-.094-.066-.154-.138-.12-.104-.066-.104-.049-.094v-.109l.049-.094.061-.077.094-.05.055-.016.055-.022h.071l.072.017.055.033.132.121.021.038.022.021.159.127.065.049.061.028.11.06.12.044.088.044.077.022.056.011h.043l.045-.005.049.011.033-.006.082.006.132.005.083-.021h.082l.066-.011.071-.006.06-.017.045-.021.071-.022.093-.055.121-.099.077-.094.017-.044.032-.082.012-.104-.017-.138-.094-.148-.109-.065-.061-.027-.083-.027-.076-.022-.083-.011-.082-.022-.077-.011-.071-.017-.077-.005-.115-.022-.115-.011-.061-.017-.115-.011-.22-.039-.077-.017-.065-.021-.11-.027-.109-.039-.077-.032-.088-.033-.121-.061-.088-.055-.021-.012-.061-.049-.071-.066-.039-.032-.032-.044-.044-.066-.028-.049-.055-.088-.055-.215v-.159l.011-.094.017-.126.022-.082.021-.056.027-.055.022-.05.038-.06.061-.083.17-.17.056-.027.076-.055.094-.045.071-.055.061-.033.05-.021.049-.006.055-.032.198-.056.104-.016.126-.017.061-.012.071-.005.121-.012.109.006h.05l.038.006.192.017.033.011h.044l.055.011.05.011.065.012.144.055.055.033.05.021.071.044.137.061.077.071.121.094.104.109.093.132.05.094-.011.165-.012.032-.021.039-.044.038-.099.061-.104.038-.088-.005-.088-.039-.055-.038-.061-.061-.094-.099-.077-.066-.049-.038-.094-.05-.061-.049-.126-.055-.088-.022-.148-.017-.099-.006-.148.006-.132.011-.11.006-.164.033-.16.071-.065.038-.088.061-.11.099-.032.083-.022.065-.005.1.021.099.033.088.027.038.044.033.077.061.115.044.17.049.104.022.066.017.061.005.071.012.049.011.061.027h.038l.056.006h.109l.066.017.093.016.11.027.055.017.055.006.022.017.143.017.253.065.121.055.115.05.093.071.033.033.077.055.082.094.033.065.033.061.021.039.011.044.033.088.012.076.005.022.011.011.006.077v.203l-.021.126-.022.088-.027.077-.027.055-.011.039-.039.065-.049.071-.045.05-.038.05-.027.027-.038.049-.05.05-.065.044-.094.061-.055.033-.039.021-.055.027-.055.022-.039.017-.076.021-.11.038-.143.033-.132.012-.082.011-.11.005h-.214l-.132-.005Z"/><path class="cls-3" d="M194.266,109.604h-.094l-.082-.006-.11-.017h-.137l-.099-.027-.056-.011-.071-.017-.099-.038-.132-.05-.11-.061-.055-.027-.061-.038-.071-.039-.049-.038-.056-.033-.077-.071-.093-.082-.061-.061-.198-.236-.076-.148-.066-.121-.071-.126-.033-.121-.027-.071-.027-.132-.021-.109-.006-.066-.017-.094-.006-.076.006-.094v-.159l.017-.104.011-.099.044-.138.017-.088.044-.126.055-.144.05-.076.055-.121.104-.165.094-.126.055-.05.038-.049.056-.061.055-.056.044-.021.061-.061.148-.082.132-.066.153-.071.115-.033.071-.032.148-.05.138-.022.088-.016.132.005.192-.005.132.011h.061l.099.017.109.027.072.017.049.021.082.027.077.028.077.038.088.05.115.06.154.1.115.093.115.11.137.165.088.104.039.056.033.065.038.055.05.1.055.126.033.11.027.088.011.049.022.071.027.138.011.088v.077l.005.088-.011.093-.011.143-.011.088-.006.088-.017.11-.017.065-.021.094-.05.132-.044.121-.049.104-.039.065-.027.056-.044.055-.038.049-.033.05-.022.038-.032.039-.061.061-.071.055-.05.049-.038.033-.05.039-.044.038-.055.033-.039.032-.065.045-.11.06-.12.071-.094.039-.061.021-.115.039-.138.038-.115.017h-.159l-.126-.011ZM194.452,108.966l.071-.005.033-.006.027-.017.022-.011.071-.011.071-.033.065-.022.104-.055.11-.071.143-.104.082-.088.027-.033.045-.065.082-.104.109-.165.033-.121.022-.104.017-.121.011-.148.011-.077-.011-.143-.039-.198-.038-.126-.055-.115-.027-.094-.033-.06-.044-.088-.066-.083-.038-.05-.061-.06-.187-.148-.176-.104-.104-.044-.115-.033-.044-.011-.071-.022-.094-.021h-.302l-.083.017-.099.011-.126.038-.182.077-.308.176-.055.061-.044.055-.033.027-.065.094-.05.094-.027.038-.022.061-.038.071-.033.088-.027.088-.011.077-.027.121-.011.137.005.066.006.076.011.088v.083l.006.027.016.061.022.099.017.082.065.121.132.198.104.132.039.044.088.076.109.071.038.022.022.011.099.055.115.056.094.027.154.027.153.022.132.005.159-.017Z"/><path class="cls-3" d="M197.342,109.51l-.071-.038-.038-.077-.027-.099-.006-.115.006-.121-.006-.11.011-.082-.005-.143v-.247l.005-.121-.005-.132-.012-.061-.005-.121v-.341l.005-.153v-.104l.012-.121.005-.12.011-.144-.011-.143.011-.115v-.253l-.011-.077v-.159l-.005-.137v-.303l.021-.088.017-.038.027-.038.038-.022.066-.017.071-.005.071.011h.104l.088-.006.061.022.033.033.027.049.011.039.006.088.005.109v.082l.012.121v.088l-.012.11-.005.093v.347l.005.12.012.104.005.099.006.165.006.121-.006.038.006.061.005.104-.005.104v.05l-.006.049.006.039-.012.109v.099l-.005.188-.017.12v.127l.005.093.017.132v.044l.006.05.033.044.027.011h.241l.121.006.05-.006.055.006.088.005.109.006h.115l.088-.017.104-.005h.1l.082.005h.11l.065.011h.099l.132-.016h.132l.083.005h.076l.071.017.061.039.061.071.012.038v.247l-.012.055-.017.039-.044.038-.093.05-.077.011-.094-.006h-.285l-.094.017-.071-.005h-.313l-.082-.006-.324.011h-1.06l-.083-.027Z"/><path class="cls-3" d="M201.961,109.615l-.065-.017-.071-.017-.072-.011-.093-.022-.121-.043-.082-.039-.056-.017-.082-.055-.077-.038-.06-.05-.072-.061-.038-.055-.065-.066-.072-.088-.038-.071-.027-.055-.017-.05-.021-.082-.039-.115-.027-.104-.006-.061-.016-.044.005-.088v-.187l-.011-.082v-.033l-.006-.061-.005-.099.011-.1.006-.104v-.099l-.012-.088.017-.038-.005-.055v-.148l-.006-.061v-.05l-.011-.071v-.23l.005-.071v-.05l-.005-.077-.006-.071v-.39l-.006-.077.012-.077-.006-.099.006-.099.011-.083.021-.043.056-.039.104-.033h.088l.06-.011.056.011.076.022.066.021.055.044.017.061-.006.061.012.055.005.094v.088l-.011.027.006.055v.148l.011.071v.094l.006.044.005.061-.011.055v.061l-.006.055.006.148v.143l.006.033.005.044-.005.033v.061l-.006.061.011.049-.005.099-.006.104.006.039v.065l-.006.044.011.056-.005.088-.006.093v.126l.011.165.006.127.027.104.027.131.082.127.061.077.044.032.083.056.099.049.071.027.082.028.071.016.072.012.093.005h.044l.138.006.23-.017.094-.027.115-.039.104-.038.049-.044.066-.061.044-.055.021-.017.033-.061.027-.071.011-.049.012-.056.011-.065.011-.071v-.11l.012-.077-.006-.027.011-.038-.005-.061.005-.138v-.132l.011-.109v-.132l-.011-.077v-.065l-.005-.104v-.215l-.006-.065v-.171l-.006-.055-.005-.115v-.094l.011-.153v-.126l-.006-.088v-.088l-.005-.127.011-.115.021-.104.044-.049.05-.022.077-.017.093-.011h.077l.077.011.088.039.082.071.027.115.012.088v.099l.005.088-.005.143v.324l-.006.148-.011.088-.006.094v.088l.006.077-.006.109.006.143v.401l-.006.099v.132l.006.121-.006.132-.005.082-.017.138-.017.109-.017.061-.038.132-.039.104-.049.094-.061.093-.083.138-.093.104-.022.017-.044.027-.055.027-.044.027-.088.038-.115.056-.104.032-.099.017-.066.022-.209.027-.109.021h-.418l-.071-.021Z"/><path class="cls-3" d="M206.218,109.56h-.093l-.056-.012-.077-.043-.027-.033-.032-.033-.022-.104v-.115l.006-.082v-.083l.011-.104-.006-.137.006-.104v-.115l.006-.094-.006-.214v-.385l-.011-.132v-.044l.005-.061v-.291l-.011-.094v-.147l.006-.176v-.116l.005-.044-.011-.055.006-.088v-.071l-.006-.044v-.061l-.011-.094-.027-.065-.022-.017-.115-.006-.132.012-.044.005-.071-.005h-.099l-.352-.012-.115.006-.077-.017-.05-.038-.044-.05-.032-.077-.012-.131.017-.148.05-.094.065-.044.066-.022.077-.005.088-.017h.065l.044.006h.274l.027.005h.319l.071.006h.126l.121.005h.148l.132-.005.104-.006.109.006.132-.006.143.006.527.011.132.011.11.017.121.094.038.132v.071l.006.05-.017.076-.017.044-.022.033-.038.044-.104.033-.17.021-.187-.005-.144.011-.396-.011-.088.021-.033.05-.005.115v.126l.005.104-.005.11v.093l-.011.116-.006.131v.056l.006.065.005.061-.005.039.005.071v.12l-.011.056.011.044-.005.061.005.06-.011.061-.006.083v.076l-.005.088v.077l-.011.055.011.033-.011.083.005.147v.083l.006.049-.011.061.005.05-.005.05v.137l.005.088-.011.071v.05l.017.038.011.056.006.06-.012.066-.021.065-.033.061-.038.017-.05.022-.049.016-.061.028-.11-.017Z"/><path class="cls-3" d="M208.942,109.521l-.104-.027-.077-.076-.022-.077.006-.127v-.22l.006-.132-.012-.088.006-.126-.011-.138.005-.071.006-.061-.017-.093v-.171l.011-.132-.011-.109.017-.099-.006-.066v-.099l-.016-.099.005-.066v-.088l-.017-.153-.005-.094.017-.165v-.159l.005-.148-.005-.109v-.527l-.006-.11.021-.088.028-.049.032-.033.072-.05.104-.011h.1l.115.006.088.027.044.049.044.072.005.099.006.137v.094l-.006.061.012.093-.006.138v.132l.011.094-.005.137-.006.171v.109l.006.077v.138l.005.12-.005.148.005.259-.011.153v.071l.006.05v.308l.005.088v.285l.012.061v.259l-.006.126-.027.153-.027.061-.027.033-.039.017-.099.038h-.115l-.044.006-.071-.006Z"/><path class="cls-3" d="M212.395,109.604h-.094l-.082-.006-.11-.017h-.137l-.099-.027-.056-.011-.071-.017-.099-.038-.132-.05-.11-.061-.055-.027-.061-.038-.071-.039-.049-.038-.056-.033-.077-.071-.093-.082-.061-.061-.198-.236-.076-.148-.066-.121-.071-.126-.033-.121-.027-.071-.027-.132-.021-.109-.006-.066-.017-.094-.006-.076.006-.094v-.159l.017-.104.011-.099.044-.138.017-.088.044-.126.055-.144.05-.076.055-.121.104-.165.094-.126.055-.05.038-.049.056-.061.055-.056.044-.021.061-.061.148-.082.132-.066.153-.071.115-.033.071-.032.148-.05.138-.022.088-.016.132.005.192-.005.132.011h.061l.099.017.109.027.072.017.049.021.082.027.077.028.077.038.088.05.115.06.154.1.115.093.115.11.137.165.088.104.039.056.033.065.038.055.05.1.055.126.033.11.027.088.011.049.022.071.027.138.011.088v.077l.005.088-.011.093-.011.143-.011.088-.006.088-.017.11-.017.065-.021.094-.05.132-.044.121-.049.104-.039.065-.027.056-.044.055-.038.049-.033.05-.022.038-.032.039-.061.061-.071.055-.05.049-.038.033-.05.039-.044.038-.055.033-.039.032-.065.045-.11.06-.12.071-.094.039-.061.021-.115.039-.138.038-.115.017h-.159l-.126-.011ZM212.581,108.966l.071-.005.033-.006.027-.017.022-.011.071-.011.071-.033.065-.022.104-.055.11-.071.143-.104.082-.088.027-.033.045-.065.082-.104.109-.165.033-.121.022-.104.017-.121.011-.148.011-.077-.011-.143-.039-.198-.038-.126-.055-.115-.027-.094-.033-.06-.044-.088-.066-.083-.038-.05-.061-.06-.187-.148-.176-.104-.104-.044-.115-.033-.044-.011-.071-.022-.094-.021h-.302l-.083.017-.099.011-.126.038-.182.077-.308.176-.055.061-.044.055-.033.027-.065.094-.05.094-.027.038-.022.061-.038.071-.033.088-.027.088-.011.077-.027.121-.011.137.005.066.006.076.011.088v.083l.006.027.016.061.022.099.017.082.065.121.132.198.104.132.039.044.088.076.109.071.038.022.022.011.099.055.115.056.094.027.154.027.153.022.132.005.159-.017Z"/><path class="cls-3" d="M218.316,109.527l-.176.006-.115-.022-.071-.05-.077-.099-.094-.126-.22-.313-.104-.137-.055-.077-.121-.182-.131-.187-.1-.126-.082-.094-.055-.082-.05-.05-.115-.165-.071-.088-.05-.049-.038-.072-.066-.071-.126-.17-.104-.153-.066-.088-.071-.077-.044-.061-.032-.033-.056-.021-.049.027-.006.104.006.126v.11l-.006.115.011.17v.226l.006.225.006.138.017.104-.006.17v.23l-.011.154v.082l-.006.115.006.088-.006.071v.1l-.011.088-.039.071-.055.038-.049.017-.088.017h-.072l-.038.006-.115-.006-.115-.077-.044-.082-.017-.088.005-.099.012-.104-.006-.104v-.071l-.006-.099v-.104l.012-.077-.006-.143-.011-.104-.017-.104.006-.165v-.093l-.006-.094.006-.099v-.061l.011-.154v-.165l-.011-.082v-.049l.011-.088-.011-.1v-.038l.011-.099-.006-.138.006-.121-.011-.093.005-.056-.005-.071-.006-.109-.006-.1v-.147l.006-.104.006-.066v-.055l.011-.088.011-.071.027-.022.1-.055.082-.006.104-.005.12.011.116.022.071.049.088.11.055.082.094.132.076.121.072.088.071.109.076.1.033.044.055.099.061.077.094.104.071.1.061.065.109.132.132.176.083.132.132.176.055.061.044.066.071.104.099.115.1.153.055.066.038.049.056.044h.06l.017-.027.012-.121.005-.115v-.549l.011-.154v-.099l-.005-.104v-.099l.011-.077v-.368l-.011-.055.005-.088-.005-.11v-.088l-.006-.082v-.153l.006-.104.027-.1.044-.032.061-.033.049-.011.072-.006.06-.017h.159l.066.033.05.055.038.088.011.144-.011.126-.006.061.012.104-.006.082.006.077-.006.082.006.055v.215l.005.159v.285l.017.083v.049l-.011.071.011.116-.006.06.006.05-.017.061v.648l-.005.153.005.083v.62l.017.094-.011.132-.061.055-.044.017-.055.011-.121-.011Z"/><path class="cls-3" d="M221.129,109.604l-.072-.011-.093-.017-.148-.022-.165-.055-.109-.039-.209-.088-.148-.082-.065-.049-.094-.066-.153-.138-.121-.104-.066-.104-.049-.094v-.109l.049-.094.061-.077.094-.05.055-.016.055-.022h.071l.071.017.056.033.132.121.021.038.022.021.159.127.065.049.061.028.11.06.121.044.088.044.076.022.055.011h.045l.043-.005.05.011.033-.006.082.006.132.005.083-.021h.082l.065-.011.072-.006.061-.017.043-.021.072-.022.093-.055.121-.099.077-.094.017-.044.032-.082.012-.104-.017-.138-.094-.148-.109-.065-.061-.027-.083-.027-.076-.022-.083-.011-.082-.022-.077-.011-.071-.017-.077-.005-.115-.022-.115-.011-.061-.017-.115-.011-.22-.039-.077-.017-.065-.021-.11-.027-.109-.039-.077-.032-.088-.033-.121-.061-.088-.055-.021-.012-.061-.049-.071-.066-.039-.032-.032-.044-.044-.066-.027-.049-.056-.088-.055-.215v-.159l.011-.094.017-.126.022-.082.021-.056.027-.055.022-.05.038-.06.061-.083.17-.17.056-.027.076-.055.094-.045.071-.055.061-.033.05-.021.049-.006.056-.032.197-.056.104-.016.126-.017.061-.012.071-.005.121-.012.11.006h.049l.039.006.191.017.033.011h.044l.055.011.05.011.066.012.143.055.055.033.05.021.071.044.137.061.077.071.121.094.104.109.093.132.05.094-.011.165-.011.032-.022.039-.044.038-.099.061-.104.038-.088-.005-.088-.039-.055-.038-.061-.061-.094-.099-.077-.066-.049-.038-.094-.05-.061-.049-.126-.055-.088-.022-.148-.017-.099-.006-.148.006-.132.011-.11.006-.164.033-.159.071-.066.038-.088.061-.109.099-.033.083-.022.065-.005.1.021.099.033.088.027.038.044.033.077.061.115.044.17.049.104.022.066.017.06.005.072.012.049.011.061.027h.039l.055.006h.109l.066.017.093.016.11.027.055.017.055.006.022.017.143.017.253.065.121.055.115.05.093.071.033.033.077.055.082.094.033.065.033.061.021.039.012.044.032.088.011.076.006.022.011.011.006.077v.203l-.022.126-.021.088-.027.077-.027.055-.012.039-.038.065-.05.071-.043.05-.039.05-.027.027-.038.049-.05.05-.066.044-.093.061-.055.033-.039.021-.055.027-.055.022-.039.017-.076.021-.11.038-.143.033-.132.012-.083.011-.109.005h-.214l-.132-.005Z"/><path class="cls-3" d="M158.026,116.193l-.071-.016-.099-.05-.077-.061-.055-.065-.022-.066v-.099l.049-.099.033-.083.027-.061.033-.065.049-.115.033-.088.104-.209.055-.121.05-.126.088-.171.055-.126.039-.077.039-.082.044-.094.077-.197.066-.115.044-.121.077-.165.088-.203.049-.109.083-.209.06-.126.028-.083.049-.093.039-.077.011-.044.022-.055.027-.077.039-.056.033-.065.033-.061.022-.044.039-.065.066-.056.137-.027h.148l.071.017.061.055.039.071.033.066.055.126.055.121.104.203.033.088.039.071.033.1.044.099.027.077.038.076.061.138.061.121.039.099.039.066.021.06.039.083.049.088.033.088.033.093.033.056.027.071.055.099.044.109.071.171.099.187.055.132.039.083.022.049.022.071.066.132.049.104.027.044.05.104.038.115.027.094-.021.12-.061.072-.11.055-.192.049-.126-.027-.049-.044-.055-.055-.016-.071-.049-.104-.061-.126-.033-.061-.049-.11-.061-.126-.022-.05-.038-.065-.05-.088-.038-.071-.055-.039-.11-.011-.137.006h-.643l-.181-.006-.143.011-.077-.005-.093.011-.088.006-.071.038-.033.05-.11.22-.055.099-.017.061-.027.055-.033.077-.044.093-.027.083-.055.088-.065.099-.061.05-.088.021-.094-.006ZM159.977,114.523l.006-.005.016-.006.022-.049-.017-.1-.033-.082-.121-.214-.055-.104-.071-.176-.044-.104-.039-.099-.061-.144-.066-.055-.044.088-.044.138-.093.208-.071.148-.05.138-.044.099-.055.11-.005.044-.011.049v.056l.039.038.093.006h.099l.154.011.368.011.126-.006Z"/><path class="cls-3" d="M165.25,116.127l-.176.006-.115-.022-.071-.049-.077-.1-.093-.126-.22-.313-.104-.137-.055-.077-.121-.182-.132-.187-.099-.126-.082-.094-.055-.082-.049-.05-.115-.165-.071-.088-.05-.049-.038-.071-.066-.072-.126-.17-.104-.154-.066-.088-.071-.076-.044-.061-.033-.033-.055-.021-.049.027-.006.104.006.126v.109l-.006.116.011.17v.226l.005.225.005.138.017.104-.005.17v.23l-.011.154v.082l-.005.115.005.088-.005.072v.099l-.011.088-.039.071-.055.038-.049.017-.088.017h-.071l-.039.006-.115-.006-.115-.077-.044-.082-.017-.088.005-.099.011-.104-.006-.104v-.071l-.005-.1v-.104l.011-.077-.006-.143-.011-.104-.017-.104.005-.165v-.094l-.005-.093.005-.099v-.061l.011-.154v-.164l-.011-.083v-.05l.011-.088-.011-.099v-.038l.011-.099-.006-.138.006-.121-.011-.093.005-.056-.005-.071-.005-.109-.005-.099v-.148l.005-.104.005-.066v-.055l.011-.088.011-.071.027-.022.099-.055.083-.005.104-.006.121.011.115.022.072.049.088.11.055.082.093.132.077.121.071.088.071.109.077.1.033.044.055.099.06.077.094.104.071.099.061.065.11.132.132.176.083.132.132.176.055.061.044.066.071.104.099.116.099.153.055.066.038.049.055.044h.061l.016-.027.011-.121.005-.115v-.549l.011-.154v-.099l-.005-.104v-.099l.011-.077v-.368l-.011-.055.005-.088-.005-.109v-.088l-.006-.083v-.153l.006-.104.027-.099.044-.033.061-.033.049-.011.071-.006.061-.017h.159l.066.033.049.055.039.088.011.143-.011.127-.005.061.011.104-.005.082.005.077-.005.082.005.055v.215l.005.159v.285l.017.083v.049l-.011.072.011.115-.005.061.005.049-.017.061v.648l-.005.153.005.083v.62l.017.094-.011.132-.061.055-.044.017-.055.011-.121-.011Z"/><path class="cls-3" d="M167.146,116.144l-.143-.011-.126-.028-.061-.038-.027-.033-.022-.071-.016-.099v-.176l.005-.065v-.061l.005-.066-.005-.121.011-.132-.011-.17-.005-.153-.006-.133v-.719l.006-.171-.006-.143-.005-.104-.005-.115.005-.143-.005-.159.005-.121v-.182l.011-.165-.017-.153v-.115l.022-.094.049-.071.049-.038.099-.006.159-.005.099.005.061-.005.138.005h.697l.083-.011h.077l.061-.006.143-.005.143.011.077-.006.033.012.05.005.077.006.181.027.083.017.115.044.11.044.066.044.093.061.077.055.077.061.121.126.099.11.055.093.083.132.049.104.039.071.033.083.039.109.027.115.011.044.017.127.016.17.011.082.017.061.005.11-.005.143-.006.132-.022.148-.027.159-.039.132-.049.182-.044.099-.049.109-.033.056-.038.076-.088.121-.094.11-.082.088-.077.065-.083.061-.121.065-.126.061-.049.022-.071.027-.072.022-.214.055-.264.011h-.17l-.176.006-.143-.006-.291.017-.181.006-.154-.006-.104.006-.252-.006ZM168.502,115.523l.138-.021.132-.027.104-.017.137-.056.11-.06.148-.104.11-.121.099-.138.06-.147.039-.148.028-.132.005-.1v-.362l-.011-.159-.017-.121-.021-.104-.039-.132-.039-.109-.044-.077-.049-.077-.099-.12-.159-.132-.126-.071-.077-.033-.203-.055-.077-.006-.137-.006h-.429l-.214-.005-.165.005-.071.017-.099.011-.088.022-.038.038-.011.061-.005.082.005.104v.077l-.005.099-.006.148v.352l.006.138v.368l-.006.153v.379l.011.11.005.143.006.094v.137l.016.071.083.022.077-.011.093.005.11.012h.154l.176.005h.384Z"/><path class="cls-3" d="M173.278,116.144l-.143-.011-.126-.028-.061-.038-.027-.033-.022-.071-.016-.099v-.176l.005-.065v-.061l.005-.066-.005-.121.011-.132-.011-.17-.005-.153-.006-.133v-.719l.006-.171-.006-.143-.005-.104-.005-.115.005-.143-.005-.159.005-.121v-.182l.011-.165-.017-.153v-.115l.022-.094.049-.071.049-.038.099-.006.159-.005.099.005.061-.005.138.005h.697l.083-.011h.077l.061-.006.143-.005.143.011.077-.006.033.012.05.005.077.006.181.027.083.017.115.044.11.044.066.044.093.061.077.055.077.061.121.126.099.11.055.093.083.132.049.104.039.071.033.083.039.109.027.115.011.044.017.127.016.17.011.082.017.061.005.11-.005.143-.006.132-.022.148-.027.159-.039.132-.049.182-.044.099-.049.109-.033.056-.038.076-.088.121-.094.11-.082.088-.077.065-.083.061-.121.065-.126.061-.049.022-.071.027-.072.022-.214.055-.264.011h-.17l-.176.006-.143-.006-.291.017-.181.006-.154-.006-.104.006-.252-.006ZM174.635,115.523l.138-.021.132-.027.104-.017.137-.056.11-.06.148-.104.11-.121.099-.138.06-.147.039-.148.028-.132.005-.1v-.362l-.011-.159-.017-.121-.021-.104-.039-.132-.039-.109-.044-.077-.049-.077-.099-.12-.159-.132-.126-.071-.077-.033-.203-.055-.077-.006-.137-.006h-.429l-.214-.005-.165.005-.071.017-.099.011-.088.022-.038.038-.011.061-.005.082.005.104v.077l-.005.099-.006.148v.352l.006.138v.368l-.006.153v.379l.011.11.005.143.006.094v.137l.016.071.083.022.077-.011.093.005.11.012h.154l.176.005h.384Z"/><path class="cls-3" d="M179.514,116.138l-.039-.005-.049.005-.127-.011-.109.006-.071-.006-.154.006h-.115l-.104-.006h-.088l-.077.011-.088-.005-.028.005-.121-.011h-.165l-.182-.006-.198.006h-.176l-.088-.006-.088-.049-.066-.11-.011-.132v-.39l-.006-.17.006-.127v-.17l-.006-.104-.005-.115-.005-.056v-.076l.005-.083v-.132l-.005-.016.005-.05-.005-.066v-.049l-.005-.132.005-.23.005-.154v-.094l-.005-.159v-.356l-.011-.094.005-.071v-.066l.005-.104v-.06l.005-.104.005-.148.022-.071.038-.061.061-.038.044-.022.061-.011h.159l.23.011h.363l.154-.006.115-.005.17-.006h.357l.121.017h.121l.088-.011.153.005.088.006.22-.011.061.005.082-.005.088.011.083.033.044.065.032.11.012.115-.006.071-.033.099-.061.077-.06.021-.127.012-.197.005-.115.006-.05-.006-.176.012h-.258l-.209-.006-.126-.006h-.055l-.109.012-.292.005h-.099l-.121.006h-.104l-.099.027-.017.088-.005.094-.011.038v.094l-.006.126.011.138-.005.143.027.126.066.039h.044l.121.016.143-.011h.093l.115.011.121-.011.417-.005h.303l.082.005.094.027.065.066.022.061.011.055.006.044.011.126-.017.116-.038.065-.11.055h-.291l-.318.017-.176-.006h-.061l-.226-.005-.065.005-.099-.005-.132.005-.066.012-.071.021-.039.033-.005.077-.006.082-.011.094v.12l.005.083v.104l-.005.088v.148l.049.143.154.065h.385l.154-.005.154.005.313-.005.115-.012h.329l.066.012h.104l.17.005.137.012h.072l.044.011.049.033.033.049.017.1-.006.115v.065l-.011.061-.022.065-.032.045-.039.021-.055.017-.274.027-.143.017h-.154l-.109-.006Z"/><path class="cls-3" d="M181.43,116.111l-.071-.038-.038-.077-.027-.099-.006-.115.006-.121-.006-.11.011-.082-.005-.143v-.247l.005-.121-.005-.132-.012-.061-.005-.121v-.34l.005-.154v-.104l.012-.121.005-.12.011-.144-.011-.143.011-.115v-.253l-.011-.076v-.16l-.005-.137v-.303l.021-.088.017-.038.027-.038.038-.022.066-.017.071-.005.071.011h.104l.088-.006.061.022.033.032.027.05.011.038.006.088.005.11v.082l.012.121v.088l-.012.11-.005.093v.347l.005.12.012.104.005.1.006.164.006.121-.006.038.006.061.005.104-.005.104v.05l-.006.049.006.039-.012.109v.099l-.005.188-.017.12v.127l.005.093.017.132v.044l.006.05.033.044.027.011h.241l.121.006.05-.006.055.006.088.006.109.005h.115l.088-.017.104-.005h.1l.082.005h.11l.065.012h.099l.132-.017h.132l.083.005h.076l.071.017.061.038.061.072.012.038v.247l-.012.055-.017.039-.044.038-.093.05-.077.011-.094-.006h-.285l-.094.017-.071-.005h-.313l-.082-.006-.324.011h-1.06l-.083-.027Z"/><path class="cls-3" d="M185.198,116.122l-.104-.027-.077-.077-.022-.076.006-.127v-.22l.006-.132-.012-.088.006-.126-.011-.138.005-.071.006-.061-.017-.093v-.171l.011-.132-.011-.109.017-.099-.006-.066v-.099l-.016-.099.005-.066v-.088l-.017-.153-.005-.094.017-.165v-.159l.005-.148-.005-.109v-.527l-.006-.11.021-.088.028-.049.032-.033.072-.05.104-.011h.1l.115.006.088.027.044.049.044.071.005.1.006.137v.094l-.006.061.012.094-.006.137v.132l.011.094-.005.137-.006.171v.109l.006.077v.138l.005.12-.005.148.005.259-.011.153v.071l.006.05v.308l.005.088v.285l.012.061v.259l-.006.126-.027.154-.027.06-.027.033-.039.017-.099.038h-.115l-.044.006-.071-.006Z"/><path class="cls-3" d="M188.221,116.133l-.115-.017-.038-.017-.039-.038-.044-.056-.005-.055-.044-.099-.012-.05-.021-.038-.071-.132-.056-.132-.027-.061-.049-.088-.044-.11-.056-.12-.038-.121-.065-.138-.033-.088-.044-.071-.033-.099-.021-.061-.017-.05-.039-.088-.104-.208-.017-.05-.033-.082-.027-.066-.033-.088-.011-.038-.044-.094-.071-.153-.044-.104-.022-.05-.006-.038-.027-.061-.027-.071-.033-.1-.027-.049-.005-.033-.033-.049-.05-.127-.055-.148-.038-.132-.033-.077-.017-.055-.011-.065v-.066l.021-.049.017-.022.077-.038.121-.05.132-.027.076.006.077.038.056.065.027.056.032.071.056.132.088.203.115.247.038.121.038.104.022.044.044.115.038.121.028.038.021.055.044.099.05.116.049.104.027.076.022.055.027.072.055.099.061.132.038.088.033.049.039.088.049.11.039.094.044.055.032.033.033-.012.033-.044.027-.061.033-.049.033-.088.043-.127.039-.065.017-.055.038-.088.027-.071.012-.033.032-.05.039-.077.027-.071.021-.065.022-.05.017-.071.055-.109.038-.088.027-.077.039-.061.033-.071.027-.061.032-.071.028-.071.016-.044.027-.071.045-.077.038-.088.05-.115.055-.115.033-.077.021-.044.017-.05.038-.071.05-.104.061-.082.088-.05.049-.011.094.027.088.033.094.044.032.005.072.077.011.094-.006.033-.021.093-.05.11-.027.071-.077.192-.05.126-.043.088-.077.165-.033.077-.027.076-.027.061-.022.039-.017.049-.055.127-.05.109-.016.039-.022.071-.033.06-.021.045-.022.049-.011.039-.027.06-.044.121-.05.099-.027.072-.017.049-.016.033-.017.044-.028.071-.038.082-.065.11-.056.159-.032.094-.012.049-.032.055-.017.056-.027.061-.033.076-.039.094-.016.065-.022.056-.05.104-.055.126-.038.061-.017.033-.044.055-.044.033-.082.017-.154-.017Z"/><path class="cls-3" d="M193.083,116.138l-.039-.005-.049.005-.127-.011-.109.006-.071-.006-.154.006h-.115l-.104-.006h-.088l-.077.011-.088-.005-.027.005-.121-.011h-.164l-.182-.006-.197.006h-.176l-.088-.006-.088-.049-.066-.11-.011-.132v-.39l-.006-.17.006-.127v-.17l-.006-.104-.005-.115-.006-.056v-.076l.006-.083v-.132l-.006-.016.006-.05-.006-.066v-.049l-.006-.132.006-.23.006-.154v-.094l-.006-.159v-.356l-.011-.094.005-.071v-.066l.006-.104v-.06l.006-.104.005-.148.022-.071.038-.061.061-.038.044-.022.061-.011h.159l.23.011h.362l.154-.006.115-.005.17-.006h.357l.121.017h.121l.088-.011.153.005.088.006.22-.011.061.005.082-.005.088.011.083.033.044.065.033.11.011.115-.006.071-.033.099-.06.077-.061.021-.127.012-.197.005-.115.006-.05-.006-.176.012h-.258l-.209-.006-.126-.006h-.056l-.109.012-.291.005h-.1l-.12.006h-.104l-.099.027-.017.088-.006.094-.011.038v.094l-.006.126.011.138-.005.143.027.126.065.039h.044l.121.016.143-.011h.094l.115.011.121-.011.417-.005h.303l.082.005.094.027.065.066.022.061.011.055.006.044.011.126-.017.116-.038.065-.11.055h-.291l-.318.017-.176-.006h-.061l-.226-.005-.065.005-.1-.005-.131.005-.066.012-.071.021-.038.033-.006.077-.006.082-.011.094v.12l.006.083v.104l-.006.088v.148l.05.143.153.065h.385l.153-.005.154.005.312-.005.116-.012h.329l.066.012h.104l.171.005.138.012h.071l.044.011.049.033.033.049.017.1-.006.115v.065l-.011.061-.021.065-.033.045-.039.021-.055.017-.274.027-.143.017h-.154l-.109-.006Z"/><path class="cls-3" d="M197.619,116.171l-.055-.027-.044-.039-.061-.065-.065-.094-.044-.055-.044-.061-.044-.065-.05-.071-.033-.056-.044-.055-.06-.088-.088-.099-.061-.077-.05-.071-.071-.088-.082-.099-.066-.094-.088-.104-.055-.077-.033-.043-.038-.028-.056-.038-.055-.027-.061-.011-.071-.012-.05.006-.34-.011-.132.011-.11.038-.027.088-.011.148-.011.127-.006.065-.006.143v.11l.006.153-.006.044v.104l-.005.094v.115l-.011.077-.012.088-.027.055-.027.033-.033.017-.055.017h-.066l-.099.011-.12-.011-.061-.012-.056-.021-.049-.088-.027-.077v-.132l-.006-.132-.006-.055.017-.215v-.132l-.005-.109-.012-.088v-.374l.006-.104.006-.065-.006-.044v-.253l.006-.104v-.214l-.006-.115v-.077l.011-.055-.011-.066v-.109l-.006-.039.006-.032.006-.056v-.099l-.006-.021.011-.083v-.264l-.011-.055.011-.055-.017-.104v-.099l.006-.11.022-.093.032-.05.033-.027.061-.033.159-.021.242.011.191-.006.127-.005h.088l.061.005.093-.005.127-.006.28.006h.071l.104-.006h.252l.127.006.296.027.066.017.099.032.127.056.137.082.077.077.044.049.082.088.05.094.027.088.038.094.027.076.022.044.011.05.012.044-.006.066.006.071.005.132.006.17-.006.082-.011.044-.017.061-.022.061-.038.11-.055.126-.033.05-.033.055-.06.065-.056.05-.055.061-.094.061-.065.033-.094.065-.115.05-.033.032.006.028.006.021.032.055.061.1.077.093.055.066.027.049.044.05.165.236.061.076.066.088.055.066.044.071.061.077.038.099-.011.038-.022.072-.065.109-.077.05-.094.065-.12.05-.056-.017ZM196.878,114.007l.05-.006.061-.006.043-.005.056.005.049-.021.039-.017.049-.017.033-.027.038-.038.033-.044.044-.115.022-.115.011-.05.006-.083.011-.065-.011-.082-.028-.1-.027-.088-.065-.104-.094-.06-.077-.022-.104-.033-.104-.005-.083-.006-.049-.005h-.05l-.061-.006-.065.011h-.368l-.077-.005h-.088l-.099.005-.083-.017h-.17l-.132.017-.033.011-.017.039-.005.071-.006.143v.176l-.005.126.005.176-.005.165.016.099.083.05.071.017.071.006.099-.012.061.012.121.005h.115l.033.006.121-.006h.148l.23.022h.187Z"/><path class="cls-3" d="M200.393,116.127l-.032-.011-.033-.017-.044-.033-.027-.05-.017-.049-.011-.066-.012-.061v-.153l.006-.209v-.132l-.006-.104.012-.109.005-.083-.011-.055-.006-.17-.005-.253-.039-.159-.038-.055-.021-.05-.05-.082-.044-.044-.044-.071-.071-.077-.033-.033-.033-.055-.065-.077-.044-.05-.033-.055-.061-.055-.044-.038-.071-.088-.082-.094-.05-.071-.044-.061-.109-.126-.088-.116-.066-.099-.077-.082-.071-.088-.027-.044-.05-.066-.044-.088-.016-.061v-.071l.038-.065.038-.05.055-.032.11-.083.05-.011.061-.027.104.011.11.094.109.126.1.094.049.055.071.094.061.088.088.115.071.088.077.115.05.065.055.077.055.082.017.022.017.017.044.055.061.071.055.061.066.071.065.061.05.021.044-.011.038-.017.11-.109.032-.05.044-.049.039-.056.032-.038.039-.044.044-.061.055-.065.044-.056.039-.049.027-.027.044-.05.049-.065.033-.033.044-.055.05-.061.027-.039.032-.038.017-.033.012-.017.044-.044.049-.061.033-.044.044-.049.061-.077.038-.055.039-.033.088-.065.104-.045.077.028.247.197.05.061.011.061-.061.126-.055.088-.088.104-.082.115-.055.071-.094.104-.115.121-.061.077-.121.164-.082.116-.094.104-.077.099-.049.049-.066.083-.038.044-.022.038-.065.082-.077.104-.061.1-.049.109-.012.154v.291l.006.165-.017.23-.006.181.012.198-.006.187v.077l-.021.055-.044.066-.066.032-.126.012h-.1l-.115-.006Z"/></svg>